<svg width="512" height="512" viewBox="0 0 512 512" fill="none" xmlns="http://www.w3.org/2000/svg">
<g clip-path="url(#clip0_3_53)">
<path opacity="0.5" d="M256 512C397.385 512 512 397.385 512 256C512 114.615 397.385 0 256 0C114.615 0 0 114.615 0 256C0 397.385 114.615 512 256 512Z" fill="#1C274C"/>
<path d="M299.386 89.2119H145.67V402.101H373.226V163.052L299.386 89.2119Z" fill="#F4E3C3"/>
<path d="M373.226 163.052L299.386 89.2119H254.85V402.101H373.226V163.052Z" fill="#FED8B2"/>
<path d="M299.386 163.052H373.226L299.386 89.2119V163.052Z" fill="#FFD15D"/>
<path d="M339.609 188.768H211.178V195.664H339.609V188.768Z" fill="#F9B54C"/>
<path d="M197.387 188.768H168.943V195.664H197.387V188.768Z" fill="#F9B54C"/>
<path d="M339.609 217.212H211.178V224.108H339.609V217.212Z" fill="#F9B54C"/>
<path d="M197.387 217.212H168.943V224.108H197.387V217.212Z" fill="#F9B54C"/>
<path d="M339.609 245.657H211.178V252.553H339.609V245.657Z" fill="#F9B54C"/>
<path d="M197.387 245.657H168.943V252.553H197.387V245.657Z" fill="#F9B54C"/>
<path d="M339.609 274.101H211.178V280.997H339.609V274.101Z" fill="#F9B54C"/>
<path d="M197.387 274.101H168.943V280.997H197.387V274.101Z" fill="#F9B54C"/>
<path d="M294.788 343.488H237.899V350.384H294.788V343.488Z" fill="#F9B54C"/>
<path d="M339.609 188.768H254.845V195.664H339.609V188.768Z" fill="#F4A200"/>
<path d="M339.609 217.212H254.845V224.108H339.609V217.212Z" fill="#F4A200"/>
<path d="M339.609 245.657H254.845V252.553H339.609V245.657Z" fill="#F4A200"/>
<path d="M339.609 274.101H254.845V280.997H339.609V274.101Z" fill="#F4A200"/>
<path d="M294.788 343.488H254.845V350.384H294.788V343.488Z" fill="#F4A200"/>
<path d="M340.34 334.932C341.84 334.932 343.057 333.715 343.057 332.215V330.358C343.057 324.731 337.737 320.144 331.121 319.965V319.255C331.121 317.755 329.904 316.538 328.404 316.538C326.904 316.538 325.687 317.755 325.687 319.255V319.965C319.071 320.144 313.751 324.73 313.751 330.358V334.071C313.751 339.698 319.071 344.285 325.687 344.463V358.128C322.125 357.973 319.186 355.768 319.186 353.168V351.311C319.186 349.811 317.969 348.594 316.469 348.594C314.969 348.594 313.752 349.811 313.752 351.311V353.168C313.752 358.795 319.072 363.382 325.688 363.56V364.27C325.688 365.77 326.905 366.987 328.405 366.987C329.905 366.987 331.122 365.77 331.122 364.27V363.56C337.738 363.381 343.058 358.795 343.058 353.168V349.455C343.058 343.828 337.738 339.241 331.122 339.062V325.397C334.684 325.552 337.623 327.757 337.623 330.357V332.214C337.624 333.715 338.839 334.932 340.34 334.932ZM319.185 334.072V330.359C319.185 327.759 322.124 325.553 325.686 325.399V339.033C322.124 338.877 319.185 336.672 319.185 334.072ZM337.624 349.456V353.169C337.624 355.769 334.685 357.974 331.123 358.129V344.495C334.684 344.65 337.624 346.857 337.624 349.456Z" fill="#F4A200"/>
<rect x="64" y="285" width="165" height="165" rx="82.5" fill="white"/>
<path opacity="0.5" d="M148.478 396.38L146.176 398.804C146.176 398.804 140.703 404.567 125.763 388.838C110.824 373.11 116.297 367.348 116.297 367.348L117.747 365.821C121.32 362.061 121.656 356.023 118.54 351.615L112.165 342.599C108.307 337.143 100.854 336.422 96.4329 341.077L88.4977 349.431C86.3055 351.739 84.8364 354.731 85.0146 358.05C85.4704 366.541 89.0986 384.809 109.344 406.125C130.814 428.728 150.959 429.626 159.197 428.813C161.802 428.556 164.068 427.151 165.894 425.229L173.076 417.667C177.924 412.564 176.557 403.814 170.354 400.244L160.696 394.684C156.623 392.34 151.661 393.029 148.478 396.38Z" fill="#1C274C"/>
<path opacity="0.5" d="M137.065 309.33C137.52 306.519 140.178 304.612 142.989 305.067C143.163 305.1 143.723 305.205 144.016 305.27C144.603 305.401 145.421 305.602 146.441 305.899C148.482 306.494 151.332 307.473 154.753 309.041C161.603 312.181 170.718 317.674 180.176 327.133C189.635 336.592 195.128 345.707 198.268 352.556C199.837 355.977 200.816 358.828 201.41 360.868C201.707 361.888 201.908 362.707 202.039 363.293C202.104 363.587 202.152 363.822 202.185 363.996L202.225 364.211C202.68 367.021 200.79 369.789 197.979 370.244C195.176 370.698 192.535 368.8 192.069 366.003C192.055 365.927 192.015 365.726 191.973 365.535C191.888 365.154 191.741 364.55 191.509 363.752C191.044 362.155 190.236 359.78 188.894 356.854C186.214 351.008 181.395 342.936 172.884 334.425C164.374 325.915 156.301 321.096 150.456 318.415C147.529 317.074 145.155 316.266 143.557 315.8C142.759 315.568 141.755 315.337 141.374 315.253C138.576 314.786 136.611 312.133 137.065 309.33Z" fill="#1C274C"/>
<path opacity="0.5" fill-rule="evenodd" clip-rule="evenodd" d="M137.2 341.741C137.982 339.003 140.836 337.417 143.574 338.2L142.158 343.158C143.574 338.2 143.574 338.2 143.574 338.2L143.584 338.203L143.595 338.206L143.617 338.212L143.671 338.228L143.807 338.271C143.91 338.304 144.04 338.347 144.194 338.402C144.503 338.511 144.911 338.667 145.412 338.882C146.413 339.311 147.782 339.974 149.463 340.969C152.828 342.96 157.422 346.268 162.819 351.665C168.215 357.062 171.523 361.655 173.515 365.021C174.51 366.702 175.172 368.07 175.602 369.072C175.817 369.572 175.973 369.98 176.082 370.289C176.137 370.443 176.179 370.573 176.213 370.677L176.255 370.813L176.271 370.866L176.278 370.889L176.281 370.899C176.281 370.899 176.284 370.909 171.326 372.326L176.284 370.909C177.066 373.647 175.48 376.501 172.743 377.283C170.028 378.059 167.199 376.507 166.388 373.812L166.363 373.738C166.326 373.634 166.251 373.431 166.123 373.134C165.869 372.54 165.408 371.569 164.64 370.273C163.107 367.683 160.339 363.769 155.526 358.957C150.714 354.145 146.801 351.376 144.211 349.843C142.914 349.076 141.943 348.615 141.349 348.36C141.052 348.233 140.849 348.157 140.746 348.12L140.671 348.095C137.976 347.285 136.424 344.456 137.2 341.741Z" fill="#1C274C"/>
</g>
<defs>
<clipPath id="clip0_3_53">
<rect width="512" height="512" fill="white"/>
</clipPath>
</defs>
</svg>
