<svg width="512" height="512" viewBox="0 0 512 512" fill="none" xmlns="http://www.w3.org/2000/svg">
<g clip-path="url(#clip0_7_419)">
<path d="M256 512C397.385 512 512 397.385 512 256C512 114.615 397.385 0 256 0C114.615 0 0 114.615 0 256C0 397.385 114.615 512 256 512Z" fill="#B03052"/>
<g clip-path="url(#clip1_7_419)">
<path d="M239.228 149.34C239.228 149.34 187.991 77.9579 168.731 67.032C154.983 59.2334 161.623 97.1944 158.809 128.726C155.995 160.258 160.313 201.866 187.257 215.908L239.228 149.34Z" fill="#F37777"/>
<path d="M233.247 157.004C233.247 157.004 190.936 116.844 186.634 128.849C182.332 140.855 177.78 191.159 190.258 197.112L233.247 157.004Z" fill="#D45757"/>
<path d="M239.228 149.34C239.228 149.34 187.992 77.9579 168.731 67.032C178.84 75.4338 209.514 150.471 219.654 174.422L239.228 149.34Z" fill="#5C4F52"/>
<path d="M256.484 141.331C256.484 141.331 234.799 134.187 229.183 136.227C223.567 138.267 178.383 183.991 173.823 204.093C158.083 273.709 142.867 281.94 139.823 303.085C136.779 324.231 163.361 364.946 174.843 392.501C186.325 420.056 233.267 417.437 256.484 447V141.331Z" fill="#F7A747"/>
<path d="M207.982 316.365C207.982 316.365 189.131 294.406 189.131 297.469C189.131 300.533 210.522 344.158 221.639 349.516C232.755 354.873 235.053 365.589 256.484 365.589V331.382C256.484 331.382 234.033 338.034 229.183 336.502C224.333 334.97 207.982 316.365 207.982 316.365Z" fill="#262128"/>
<path d="M233.247 335.697C236.013 347.826 237.692 360.178 238.264 372.606C238.756 385.06 233.99 401.129 238.264 405.626C249.269 417.195 256.484 418.528 256.484 418.528V335.7L233.247 335.697Z" fill="#F37777"/>
<path d="M222.79 197.124C215.646 199.108 192.687 211.066 189.115 220.654C185.543 230.243 208.526 238.661 213.11 243.252C217.694 247.844 211.157 263.152 218.269 258.56C225.381 253.968 229.664 236.759 233.251 227.377C236.839 217.995 229.14 195.381 222.79 197.124Z" fill="#5C4F52"/>
<path d="M256.484 222.262C233.247 222.262 226.996 273.336 221.639 279.713C216.281 286.091 202.14 305.828 202.14 313.793C202.14 321.758 221.785 344.721 229.183 346.253C236.581 347.785 256.484 340.276 256.484 340.276V222.262Z" fill="#5C4F52"/>
<path d="M256.484 291.778C256.484 291.778 237.867 289.794 237.867 298.073C237.867 306.352 248.483 314.595 256.484 314.595V291.778Z" fill="#3F3941"/>
<path d="M247.046 307.907C247.046 307.907 239.835 301.22 244.558 300.827C249.281 300.434 254.829 312.325 247.046 307.907Z" fill="#262128"/>
<path d="M227.155 225.191C225.262 220.662 221.662 211.07 211.828 213.399C206.693 214.496 201.721 216.252 197.036 218.622C196.924 218.684 196.832 218.778 196.773 218.893C196.714 219.007 196.69 219.137 196.705 219.264C196.72 219.392 196.773 219.513 196.856 219.61C196.94 219.708 197.051 219.779 197.175 219.813C198.725 220.156 200.113 221.017 201.108 222.254C203.587 226.134 207.262 229.102 211.578 230.707C215.451 232.049 220.988 229.159 224.393 229.163C225.835 229.489 227.147 230.241 228.155 231.322C228.268 231.418 228.409 231.472 228.557 231.478C228.704 231.484 228.849 231.44 228.969 231.354C229.089 231.268 229.177 231.144 229.219 231.003C229.26 230.861 229.253 230.71 229.199 230.572C228.501 228.691 227.631 226.357 227.155 225.191Z" fill="#3F3941"/>
<path d="M213.122 230.854C217.823 230.854 221.635 226.924 221.635 222.075C221.635 217.227 217.823 213.296 213.122 213.296C208.42 213.296 204.609 217.227 204.609 222.075C204.609 226.924 208.42 230.854 213.122 230.854Z" fill="#F7A747"/>
<path d="M213.122 227.377C215.96 227.377 218.261 225.004 218.261 222.075C218.261 219.147 215.96 216.773 213.122 216.773C210.283 216.773 207.982 219.147 207.982 222.075C207.982 225.004 210.283 227.377 213.122 227.377Z" fill="#3D2A2E"/>
<path d="M209.066 220.65C209.942 220.65 210.653 219.918 210.653 219.015C210.653 218.112 209.942 217.38 209.066 217.38C208.189 217.38 207.478 218.112 207.478 219.015C207.478 219.918 208.189 220.65 209.066 220.65Z" fill="#FBFCFC"/>
<path d="M273.736 149.34C273.736 149.34 324.973 77.9579 344.233 67.032C357.985 59.2334 351.341 97.1944 354.155 128.726C356.969 160.258 352.647 201.866 325.703 215.908L273.736 149.34Z" fill="#F37777"/>
<path d="M279.717 157.004C279.717 157.004 322.008 116.844 326.334 128.849C330.66 140.855 335.185 191.159 322.707 197.112L279.717 157.004Z" fill="#D45757"/>
<path d="M273.736 149.34C273.736 149.34 324.973 77.9579 344.233 67.032C334.125 75.4338 303.45 150.471 293.314 174.422L273.736 149.34Z" fill="#5C4F52"/>
<path d="M256.484 141.331C256.484 141.331 278.17 134.187 283.781 136.227C289.393 138.267 334.581 183.991 339.141 204.093C354.882 273.709 370.078 281.94 373.142 303.085C376.206 324.231 349.603 364.946 338.121 392.501C326.64 420.056 279.698 417.437 256.484 447V141.331Z" fill="#F7A747"/>
<path d="M304.982 316.365C304.982 316.365 323.834 294.406 323.834 297.469C323.834 300.533 302.443 344.158 291.326 349.516C280.21 354.873 277.912 365.589 256.484 365.589V331.382C256.484 331.382 278.936 338.034 283.781 336.502C288.627 334.97 304.982 316.365 304.982 316.365Z" fill="#262128"/>
<path d="M279.717 335.697C276.953 347.826 275.275 360.178 274.701 372.606C274.209 385.06 278.979 401.129 274.701 405.626C263.699 417.195 256.484 418.528 256.484 418.528V335.7L279.717 335.697Z" fill="#F37777"/>
<path d="M290.159 197.124C297.303 199.108 320.262 211.066 323.834 220.654C327.406 230.243 304.423 238.661 299.843 243.252C295.263 247.844 301.792 263.152 294.683 258.56C287.575 253.968 283.289 236.759 279.701 227.377C276.114 217.995 283.841 195.381 290.159 197.124Z" fill="#5C4F52"/>
<path d="M256.484 222.262C279.717 222.262 285.968 273.336 291.326 279.713C296.684 286.091 310.824 305.828 310.824 313.793C310.824 321.758 291.179 344.721 283.781 346.253C276.384 347.785 256.484 340.276 256.484 340.276V222.262Z" fill="#5C4F52"/>
<path d="M256.484 291.778C256.484 291.778 275.098 289.794 275.098 298.073C275.098 306.352 264.481 314.595 256.484 314.595V291.778Z" fill="#3F3941"/>
<path d="M265.918 307.907C265.918 307.907 273.129 301.22 268.41 300.827C263.691 300.434 258.135 312.325 265.918 307.907Z" fill="#262128"/>
<path d="M285.821 225.191C287.714 220.662 291.314 211.07 301.152 213.399C306.286 214.496 311.256 216.252 315.94 218.622C316.055 218.683 316.148 218.777 316.209 218.891C316.269 219.006 316.293 219.136 316.278 219.265C316.263 219.394 316.209 219.515 316.124 219.613C316.039 219.711 315.927 219.78 315.801 219.813C314.252 220.157 312.867 221.018 311.872 222.254C309.391 226.134 305.715 229.101 301.398 230.707C297.529 232.049 291.993 229.159 288.587 229.163C287.144 229.487 285.833 230.24 284.825 231.322C284.713 231.42 284.571 231.476 284.422 231.483C284.273 231.49 284.127 231.446 284.006 231.36C283.885 231.273 283.797 231.148 283.755 231.006C283.714 230.863 283.721 230.71 283.777 230.572C284.464 228.691 285.333 226.357 285.821 225.191Z" fill="#3F3941"/>
<path d="M299.839 230.854C304.541 230.854 308.352 226.924 308.352 222.075C308.352 217.227 304.541 213.296 299.839 213.296C295.137 213.296 291.326 217.227 291.326 222.075C291.326 226.924 295.137 230.854 299.839 230.854Z" fill="#F7A747"/>
<path d="M299.839 227.377C302.677 227.377 304.978 225.004 304.978 222.075C304.978 219.147 302.677 216.773 299.839 216.773C297 216.773 294.699 219.147 294.699 222.075C294.699 225.004 297 227.377 299.839 227.377Z" fill="#3D2A2E"/>
<path d="M303.903 220.65C304.78 220.65 305.49 219.918 305.49 219.015C305.49 218.112 304.78 217.38 303.903 217.38C303.026 217.38 302.315 218.112 302.315 219.015C302.315 219.918 303.026 220.65 303.903 220.65Z" fill="#FBFCFC"/>
</g>
</g>
<defs>
<clipPath id="clip0_7_419">
<rect width="512" height="512" fill="white"/>
</clipPath>
<clipPath id="clip1_7_419">
<rect width="381" height="381" fill="white" transform="translate(66 66)"/>
</clipPath>
</defs>
</svg>
