<svg width="512" height="512" viewBox="0 0 512 512" fill="none" xmlns="http://www.w3.org/2000/svg">
<g clip-path="url(#clip0_12_737)">
<path d="M256 512C397.385 512 512 397.385 512 256C512 114.615 397.385 0 256 0C114.615 0 0 114.615 0 256C0 397.385 114.615 512 256 512Z" fill="#35297D"/>
<g clip-path="url(#clip1_12_737)">
<path d="M259.5 443.846C358.55 443.846 438.846 363.55 438.846 264.5C438.846 165.45 358.55 85.1541 259.5 85.1541C160.45 85.1541 80.1541 165.45 80.1541 264.5C80.1541 363.55 160.45 443.846 259.5 443.846Z" fill="#FFE6B3"/>
<path opacity="0.1" d="M129.384 289.115C129.384 190.064 209.68 109.769 308.73 109.769C327.765 109.769 346.103 112.745 363.317 118.239C334.017 97.405 298.189 85.1541 259.5 85.1541C160.45 85.1541 80.1541 165.45 80.1541 264.5C80.1541 344.515 132.558 412.28 204.914 435.376C159.203 402.872 129.384 349.476 129.384 289.115Z" fill="black"/>
<path d="M390.669 133.331C355.632 98.2956 309.05 79 259.5 79C209.95 79 163.368 98.2956 128.331 133.331C93.2956 168.368 74 214.951 74 264.5C74 314.049 93.2956 360.632 128.331 395.669C161.476 428.814 204.957 447.86 251.505 449.821C251.69 449.838 251.876 449.85 252.06 449.85C252.086 449.85 252.111 449.845 252.137 449.844C254.584 449.939 257.037 450 259.5 450C309.05 450 355.632 430.704 390.669 395.669C425.704 360.632 445 314.049 445 264.5C445 214.951 425.705 168.368 390.669 133.331ZM410.033 178.93C400.001 180.253 390.251 182.339 380.881 184.97C380.447 185.045 380.019 185.169 379.6 185.342C357.969 191.556 338.409 200.625 322.135 209.78C322.037 209.827 321.939 209.868 321.843 209.921C321.661 210.02 321.485 210.127 321.317 210.242C315.035 213.801 309.245 217.366 304.034 220.772C281.325 235.619 265.606 249.77 259.617 255.453C250.91 252.782 226.062 244.483 197.828 229.018C203.177 221.431 214.836 206.554 233.965 190.29C258.874 169.11 301.862 141.25 365.781 127.85C383.659 141.785 398.739 159.142 410.033 178.93ZM352.24 118.293C291.532 133.052 250.109 160.308 225.514 181.321C204.825 198.998 192.558 214.943 187.088 222.871C173.453 214.711 159.426 204.903 146.344 193.298C150.405 186.106 160.498 170.093 178.224 152.995C200.02 131.973 238.175 104.978 296.386 95.2747C316.527 99.6615 335.372 107.555 352.24 118.293ZM259.5 91.3075C259.643 91.3075 259.787 91.3126 259.93 91.3133C217.301 104.649 187.73 126.631 169.251 144.552C152.473 160.824 142.238 175.989 137.114 184.64C130.592 178.156 124.413 171.174 118.767 163.671C150.229 119.884 201.588 91.3075 259.5 91.3075ZM111.578 174.503C118.506 183.282 126.086 191.325 133.982 198.669C134.285 199.021 134.625 199.345 135.008 199.626C151.601 214.878 169.527 227.05 185.737 236.403C185.8 236.442 185.859 236.486 185.925 236.524C185.988 236.561 186.054 236.585 186.117 236.619C191.959 239.979 197.579 242.978 202.823 245.616C227.632 258.094 248.208 264.872 256.194 267.286C258.24 276.131 263.536 301.792 264.534 333.981C255.12 333.149 236.006 330.521 211.688 322.222C179.818 311.345 132.69 288.282 88.0241 240.164C91.3827 216.4 99.5707 194.165 111.578 174.503ZM248.111 437.308C185.522 433.225 131.899 395.752 104.929 342.564C139.813 374.836 176.634 390.944 203.434 398.932C227.59 406.131 247.164 408.01 257.499 408.466C255.112 418.202 252.036 427.883 248.111 437.308ZM206.949 387.136C176.218 377.978 131.625 357.589 93.079 312.497C88.6748 297.25 86.3075 281.146 86.3075 264.5C86.3075 261.778 86.3792 259.073 86.5039 256.381C130.641 301.081 176.284 323.143 207.715 333.87C234.279 342.937 254.907 345.583 264.69 346.355C264.597 362.185 263.343 379.167 260.141 396.237C251.439 395.977 231.699 394.512 206.949 387.136ZM261.225 437.67C265.476 426.703 268.673 415.5 271.039 404.383C271.198 403.913 271.302 403.421 271.343 402.912C275.844 381.112 277.188 359.709 277.036 341.147C277.056 340.951 277.068 340.753 277.069 340.553C277.07 340.298 277.051 340.049 277.022 339.801C276.946 333.586 276.711 327.694 276.37 322.235C274.615 294.079 270.079 272.513 268.153 264.332C273.855 258.949 289.241 245.119 311.021 230.909C314.457 228.667 318.162 226.352 322.094 224.018C325.926 232.708 332.94 250.932 337.447 276.505C343.329 309.874 345.856 362.518 325.031 424.805C305.311 432.896 283.778 437.449 261.225 437.67ZM388.012 380.477C374.428 395.516 358.246 408.16 340.185 417.709C358.037 357.774 355.349 307.159 349.57 274.367C344.649 246.446 336.92 226.89 332.863 217.917C346.348 210.647 361.932 203.62 378.9 198.387C382.804 206.065 390.925 223.881 396.398 248.629C403.138 279.103 407.096 326.622 388.012 380.477ZM408.303 245.462C402.991 221.679 395.486 204.179 391.001 195.036C399.134 193.043 407.524 191.507 416.11 190.596C426.736 213.024 432.693 238.079 432.693 264.501C432.693 296.511 423.954 326.514 408.751 352.268C417.973 308.94 414.087 271.366 408.303 245.462Z" fill="#CCB88F"/>
</g>
</g>
<defs>
<clipPath id="clip0_12_737">
<rect width="512" height="512" fill="white"/>
</clipPath>
<clipPath id="clip1_12_737">
<rect width="371" height="371" fill="white" transform="translate(74 79)"/>
</clipPath>
</defs>
</svg>
