<svg width="512" height="512" viewBox="0 0 512 512" fill="none" xmlns="http://www.w3.org/2000/svg">
<g clip-path="url(#clip0_10_628)">
<path d="M256 512C397.385 512 512 397.385 512 256C512 114.615 397.385 0 256 0C114.615 0 0 114.615 0 256C0 397.385 114.615 512 256 512Z" fill="#1C274C"/>
<path d="M441.188 240.368C438.335 228.867 427.224 221.319 415.378 221.319C398.286 221.319 384.431 235.174 384.431 252.265V307.461C384.431 312.879 380.037 317.267 374.625 317.267H138.375C132.963 317.267 128.569 312.873 128.569 307.461V252.265C128.569 235.174 114.714 221.319 97.6224 221.319C84.7398 221.319 73.0853 230.396 71.2687 243.15C69.3433 256.686 78.0362 268.436 90.1897 271.589V337.001C90.1897 347.299 98.5372 355.653 108.842 355.653H404.164C414.463 355.653 422.817 347.305 422.817 337.001V271.589C435.795 268.225 444.827 255.048 441.188 240.368Z" fill="#DD352E"/>
<path d="M128.569 387.629H109.379V355.646H141.362L128.569 387.629Z" fill="#C7CAC7"/>
<path d="M384.431 387.629H403.621V355.646H371.638L384.431 387.629Z" fill="#C7CAC7"/>
<path d="M359.094 283.788L374.766 173.882C376.698 160.321 369.393 147.119 356.875 141.56C338.491 133.386 317.35 144.855 314.178 164.722L295.564 281.191C316.679 278.101 338.222 278.978 359.094 283.788Z" fill="#DD352E"/>
<path d="M372.674 188.562L359.094 283.781C367.678 285.758 376.154 288.368 384.431 291.675V256.513C384.431 248.428 386.785 240.393 391.678 233.959C403.627 218.242 421.512 218.62 432.482 227.229L437.26 198.547C439.966 182.313 430.179 166.596 414.412 161.869C395.267 156.125 375.495 168.771 372.674 188.562Z" fill="#ED4343"/>
<path d="M256.5 291.681C269.344 286.545 282.656 283.014 296.133 281.088L314.939 160.737C317.843 142.155 303.476 125.364 284.664 125.364H228.33C209.524 125.364 195.151 142.149 198.055 160.737L216.861 281.088C230.345 283.014 243.656 286.545 256.5 291.681Z" fill="#ED4343"/>
<path d="M217.436 281.184L198.822 164.716C195.65 144.848 174.509 133.379 156.125 141.554C143.607 147.119 136.302 160.315 138.234 173.876L153.906 283.781C174.778 278.977 196.321 278.101 217.436 281.184Z" fill="#DD352E"/>
<path d="M128.569 291.681C136.846 288.368 145.321 285.758 153.906 283.788L139.993 186.215C137.345 167.658 118.808 155.805 100.853 161.191C83.7931 166.309 73.194 183.317 76.1236 200.895L80.5244 227.3C90.3943 219.445 105.996 218.313 118.2 230.121C125.064 236.754 128.569 246.157 128.569 255.707V291.681Z" fill="#ED4343"/>
<path d="M256.5 317.267H128.569V291.681C169.628 275.255 215.441 275.255 256.5 291.681V317.267Z" fill="#BF2525"/>
<path d="M384.431 317.267H256.5V291.681C297.559 275.255 343.372 275.255 384.431 291.681V317.267Z" fill="#B02721"/>
<path d="M410.017 266.095C406.48 266.095 403.621 268.961 403.621 272.491C403.621 276.022 406.48 278.888 410.017 278.888H422.81V271.589C426.687 270.585 430.134 268.628 433.07 266.095H410.017Z" fill="#B02721"/>
<path d="M102.983 266.095H79.9104C82.8528 268.628 86.307 270.585 90.1897 271.589V278.888H102.983C106.52 278.888 109.379 276.022 109.379 272.491C109.379 268.961 106.52 266.095 102.983 266.095Z" fill="#B02721"/>
</g>
<defs>
<clipPath id="clip0_10_628">
<rect width="512" height="512" fill="white"/>
</clipPath>
</defs>
</svg>
