<svg width="512" height="512" viewBox="0 0 512 512" fill="none" xmlns="http://www.w3.org/2000/svg">
<g clip-path="url(#clip0_8_559)">
<path d="M256 512C397.385 512 512 397.385 512 256C512 114.615 397.385 0 256 0C114.615 0 0 114.615 0 256C0 397.385 114.615 512 256 512Z" fill="#387478"/>
<path d="M300.339 323.162H102.522C82.9891 323.162 67.1266 307.3 67.1266 287.767V158.252C67.1266 138.719 82.9891 122.856 102.522 122.856H300.339C319.872 122.856 335.734 138.719 335.734 158.252V287.725C335.734 307.3 319.914 323.162 300.339 323.162Z" fill="#248CBE"/>
<path d="M67.1266 167.533H335.777V208.075H67.1266V167.533Z" fill="#183351"/>
<path d="M168.25 264.353H94.1266C89.0219 264.353 84.8453 260.177 84.8453 255.072C84.8453 249.967 89.0219 245.791 94.1266 245.791H168.25C173.355 245.791 177.531 249.967 177.531 255.072C177.531 260.177 173.355 264.353 168.25 264.353ZM224.528 293.631H94.1266C89.0219 293.631 84.8453 289.455 84.8453 284.35C84.8453 279.245 89.0219 275.069 94.1266 275.069H224.528C229.633 275.069 233.809 279.245 233.809 284.35C233.809 289.455 229.633 293.631 224.528 293.631Z" fill="#FBFAEE"/>
<path d="M409.478 389.144H211.661C192.128 389.144 176.266 373.281 176.266 353.748V224.233C176.266 204.7 192.128 188.838 211.661 188.838H409.478C429.011 188.838 444.873 204.7 444.873 224.233V353.706C444.873 373.281 429.053 389.144 409.478 389.144Z" fill="#F5DB6F"/>
<path d="M372.564 296.162H203.266C198.161 296.162 193.984 291.986 193.984 286.881C193.984 281.777 198.161 277.6 203.266 277.6H372.564C377.669 277.6 381.845 281.777 381.845 286.881C381.845 291.986 377.669 296.162 372.564 296.162Z" fill="#AEB8C4"/>
<path d="M277.389 330.334H203.266C198.161 330.334 193.984 326.158 193.984 321.053C193.984 315.948 198.161 311.772 203.266 311.772H277.431C282.536 311.772 286.712 315.948 286.712 321.053C286.67 326.158 282.494 330.334 277.389 330.334ZM333.667 359.612H203.266C198.161 359.612 193.984 355.436 193.984 350.331C193.984 345.227 198.161 341.05 203.266 341.05H333.667C338.772 341.05 342.948 345.227 342.948 350.331C342.948 355.436 338.772 359.612 333.667 359.612Z" fill="#FBFAEE"/>
<path d="M255.325 259.502H209.509C200.945 259.502 193.984 252.541 193.984 243.977V222.545C193.984 213.981 200.945 207.02 209.509 207.02H255.325C263.889 207.02 270.85 213.981 270.85 222.545V243.977C270.85 252.541 263.889 259.502 255.325 259.502Z" fill="#F3C262"/>
<path d="M270.85 224.823H256.38V207.02H242.078V259.502H256.38V239.378H270.85V224.823ZM209.847 207.02V224.823H193.984V239.378H209.847V259.502H224.148V207.02H209.847Z" fill="#F7A04D"/>
<path d="M444.873 283.759V244.187C410.87 244.061 382.352 220.394 374.8 188.669H334.511C342.611 242.331 389.017 283.633 444.873 283.759Z" fill="#F7F9DD"/>
</g>
<defs>
<clipPath id="clip0_8_559">
<rect width="512" height="512" fill="white"/>
</clipPath>
</defs>
</svg>
