<svg width="512" height="512" viewBox="0 0 512 512" fill="none" xmlns="http://www.w3.org/2000/svg">
<g clip-path="url(#clip0_4_307)">
<path d="M256 512C397.385 512 512 397.385 512 256C512 114.615 397.385 0 256 0C114.615 0 0 114.615 0 256C0 397.385 114.615 512 256 512Z" fill="#118B50"/>
<path d="M299.386 89.2119H145.67V402.101H373.226V163.052L299.386 89.2119Z" fill="#F4E3C3"/>
<path d="M373.226 163.052L299.386 89.2119H254.85V402.101H373.226V163.052Z" fill="#FED8B2"/>
<path d="M299.386 163.052H373.226L299.386 89.2119V163.052Z" fill="#FFD15D"/>
<path d="M339.609 188.768H211.178V195.664H339.609V188.768Z" fill="#F9B54C"/>
<path d="M197.387 188.768H168.943V195.664H197.387V188.768Z" fill="#F9B54C"/>
<path d="M339.609 217.212H211.178V224.108H339.609V217.212Z" fill="#F9B54C"/>
<path d="M197.387 217.212H168.943V224.108H197.387V217.212Z" fill="#F9B54C"/>
<path d="M339.609 245.657H211.178V252.553H339.609V245.657Z" fill="#F9B54C"/>
<path d="M197.387 245.657H168.943V252.553H197.387V245.657Z" fill="#F9B54C"/>
<path d="M339.609 274.101H211.178V280.997H339.609V274.101Z" fill="#F9B54C"/>
<path d="M197.387 274.101H168.943V280.997H197.387V274.101Z" fill="#F9B54C"/>
<path d="M294.788 343.488H237.899V350.384H294.788V343.488Z" fill="#F9B54C"/>
<path d="M339.609 188.768H254.845V195.664H339.609V188.768Z" fill="#F4A200"/>
<path d="M339.609 217.212H254.845V224.108H339.609V217.212Z" fill="#F4A200"/>
<path d="M339.609 245.657H254.845V252.553H339.609V245.657Z" fill="#F4A200"/>
<path d="M339.609 274.101H254.845V280.997H339.609V274.101Z" fill="#F4A200"/>
<path d="M294.788 343.488H254.845V350.384H294.788V343.488Z" fill="#F4A200"/>
<path d="M340.34 334.932C341.84 334.932 343.057 333.715 343.057 332.215V330.358C343.057 324.731 337.737 320.144 331.121 319.965V319.255C331.121 317.755 329.904 316.538 328.404 316.538C326.904 316.538 325.687 317.755 325.687 319.255V319.965C319.071 320.144 313.751 324.73 313.751 330.358V334.071C313.751 339.698 319.071 344.285 325.687 344.463V358.128C322.125 357.973 319.186 355.768 319.186 353.168V351.311C319.186 349.811 317.969 348.594 316.469 348.594C314.969 348.594 313.752 349.811 313.752 351.311V353.168C313.752 358.795 319.072 363.382 325.688 363.56V364.27C325.688 365.77 326.905 366.987 328.405 366.987C329.905 366.987 331.122 365.77 331.122 364.27V363.56C337.738 363.381 343.058 358.795 343.058 353.168V349.455C343.058 343.828 337.738 339.241 331.122 339.062V325.397C334.684 325.552 337.623 327.757 337.623 330.357V332.214C337.624 333.715 338.839 334.932 340.34 334.932ZM319.185 334.072V330.359C319.185 327.759 322.124 325.553 325.686 325.399V339.033C322.124 338.877 319.185 336.672 319.185 334.072ZM337.624 349.456V353.169C337.624 355.769 334.685 357.974 331.123 358.129V344.495C334.684 344.65 337.624 346.857 337.624 349.456Z" fill="#F4A200"/>
<rect x="64" y="285" width="165" height="165" rx="82.5" fill="white"/>
<g clip-path="url(#clip1_4_307)">
<path fill-rule="evenodd" clip-rule="evenodd" d="M175.469 373.937C170.135 373.937 165.812 369.615 165.812 364.281C165.812 358.948 170.135 354.625 175.469 354.625C180.802 354.625 185.125 358.948 185.125 364.281C185.125 369.615 180.802 373.937 175.469 373.937ZM181.906 396.469H169.031C167.251 396.469 165.812 395.03 165.812 393.25C165.812 391.47 167.251 390.031 169.031 390.031H181.906C183.686 390.031 185.125 391.47 185.125 393.25C185.125 395.03 183.686 396.469 181.906 396.469ZM181.906 406.125H169.031C167.251 406.125 165.812 404.686 165.812 402.906C165.812 401.126 167.251 399.687 169.031 399.687H181.906C183.686 399.687 185.125 401.126 185.125 402.906C185.125 404.686 183.686 406.125 181.906 406.125ZM159.375 399.687C159.375 403.241 156.491 406.125 152.938 406.125H114.312C110.759 406.125 107.875 403.241 107.875 399.687V361.062C107.875 357.509 110.759 354.625 114.312 354.625H152.938C156.491 354.625 159.375 357.509 159.375 361.062V399.687ZM185.125 341.75H155.339L183.574 322.325C185.064 321.298 185.489 319.18 184.523 317.596C183.561 316.013 181.568 315.559 180.075 316.586C180.075 316.586 149.143 337.942 146.529 339.519L112.925 316.586C111.435 315.559 109.439 316.013 108.477 317.596C107.511 319.18 107.936 321.298 109.426 322.325L137.661 341.75H107.875C100.765 341.75 95 347.515 95 354.625V406.125C95 413.235 100.765 419 107.875 419H185.125C192.235 419 198 413.235 198 406.125V354.625C198 347.515 192.235 341.75 185.125 341.75ZM172.25 367.5H178.688V361.062H172.25V367.5ZM149.719 361.062H117.531C115.751 361.062 114.312 362.504 114.312 364.281V396.469C114.312 398.249 115.751 399.687 117.531 399.687H149.719C151.499 399.687 152.938 398.249 152.938 396.469V364.281C152.938 362.504 151.499 361.062 149.719 361.062Z" fill="#118B50"/>
</g>
</g>
<defs>
<clipPath id="clip0_4_307">
<rect width="512" height="512" fill="white"/>
</clipPath>
<clipPath id="clip1_4_307">
<rect width="103" height="103" fill="white" transform="translate(95 316)"/>
</clipPath>
</defs>
</svg>
