<svg width="512" height="512" viewBox="0 0 512 512" fill="none" xmlns="http://www.w3.org/2000/svg">
<g clip-path="url(#clip0_7_491)">
<path d="M256 512C397.385 512 512 397.385 512 256C512 114.615 397.385 0 256 0C114.615 0 0 114.615 0 256C0 397.385 114.615 512 256 512Z" fill="#B03052"/>
<path d="M104.68 93.0655C85.4844 105.131 86.0328 232.917 109.067 274.05L252.209 186.3C230.272 147.361 122.778 82.0968 104.68 93.0655Z" fill="#4C5359"/>
<path d="M132.102 142.973C123.875 147.909 120.036 231.82 134.295 258.145L225.884 202.205C212.722 176.977 139.78 138.586 132.102 142.973Z" fill="#F7A4A4"/>
<path d="M406.32 93.0655C425.516 105.131 424.967 232.917 402.481 274.05L259.339 186.3C280.728 147.361 388.222 82.0968 406.32 93.0655Z" fill="#4C5359"/>
<path d="M378.898 142.973C387.125 147.909 390.964 231.82 376.705 258.145L284.567 202.205C298.278 176.977 371.22 138.586 378.898 142.973Z" fill="#F7A4A4"/>
<path d="M254.403 152.845C105.777 152.845 92.0656 259.242 92.0656 319.57C92.0656 344.25 164.459 421.031 254.403 421.031C344.347 421.031 416.741 344.25 416.741 319.57C416.741 259.242 403.03 152.845 254.403 152.845Z" fill="#4C5359"/>
<path d="M212.722 293.245C212.722 293.245 195.72 319.57 164.459 311.344C133.198 303.117 131.553 271.856 131.553 271.856C131.553 271.856 148.555 245.531 179.816 253.758C211.625 261.984 212.722 293.245 212.722 293.245Z" fill="#BFFFAB"/>
<path d="M209.431 279.534C209.431 279.534 194.623 295.988 173.783 295.988C151.297 295.988 138.134 263.63 138.134 263.63C138.134 263.63 152.942 246.628 179.816 253.209C204.495 259.791 209.431 279.534 209.431 279.534Z" fill="#93E67F"/>
<path d="M186.397 278.986C186.397 315.183 168.847 315.183 168.847 278.986C169.395 242.789 186.397 242.789 186.397 278.986Z" fill="#4C5359"/>
<path d="M296.084 293.245C296.084 293.245 313.086 319.57 344.347 311.344C375.608 303.117 377.253 271.856 377.253 271.856C377.253 271.856 360.252 245.531 328.991 253.758C297.181 261.984 296.084 293.245 296.084 293.245Z" fill="#BFFFAB"/>
<path d="M298.827 279.534C298.827 279.534 313.634 295.988 334.475 295.988C356.961 295.988 370.123 263.63 370.123 263.63C370.123 263.63 355.316 246.628 328.442 253.209C303.762 259.791 298.827 279.534 298.827 279.534Z" fill="#93E67F"/>
<path d="M321.861 278.986C321.861 315.183 339.411 315.183 339.411 278.986C339.411 242.789 321.861 242.789 321.861 278.986Z" fill="#4C5359"/>
<path d="M301.569 322.312C287.309 311.344 271.953 274.598 254.403 274.598C236.853 274.598 220.948 311.344 206.689 322.312C184.203 339.862 124.423 359.606 124.423 359.606C124.423 359.606 188.042 415.547 253.855 415.547C319.667 415.547 383.286 359.606 383.286 359.606C383.834 359.606 324.055 339.862 301.569 322.312Z" fill="white"/>
<path d="M254.403 393.609C259.552 393.609 263.727 387.471 263.727 379.898C263.727 372.326 259.552 366.188 254.403 366.188C249.254 366.188 245.08 372.326 245.08 379.898C245.08 387.471 249.254 393.609 254.403 393.609Z" fill="#FF94A4"/>
<path d="M300.472 372.22C294.987 375.511 288.955 376.608 283.47 376.608C277.437 376.059 271.953 374.414 267.566 370.575C263.178 367.284 259.887 362.348 258.791 356.316L254.403 331.636L250.016 356.316C248.919 361.8 245.628 366.736 241.241 370.575C236.853 374.414 230.82 376.059 225.336 376.608C219.303 376.608 213.27 375.511 208.334 372.22C202.85 368.93 198.462 363.994 196.269 357.413C196.817 364.542 200.108 371.123 205.592 376.059C211.077 380.995 218.206 383.738 224.787 383.738C232.466 384.286 239.595 382.092 245.628 377.705C248.919 375.511 251.661 372.22 253.855 368.93C256.048 372.22 258.791 375.511 262.081 377.705C268.114 382.092 275.792 384.286 282.922 383.738C290.052 383.189 297.181 380.447 302.666 376.059C308.15 371.123 311.989 364.542 311.989 357.413C310.344 363.445 305.956 368.93 300.472 372.22Z" fill="#4C5359"/>
<path d="M276.341 326.7C271.953 321.216 258.242 320.667 254.403 320.667C250.564 320.667 236.853 321.216 232.466 326.7C229.175 330.539 231.917 340.411 240.144 348.638C245.628 354.122 250.564 355.767 254.403 355.767C258.242 355.767 263.727 354.122 268.663 348.638C276.889 339.863 279.631 330.539 276.341 326.7Z" fill="#4C5359"/>
</g>
<defs>
<clipPath id="clip0_7_491">
<rect width="512" height="512" fill="white"/>
</clipPath>
</defs>
</svg>
