<svg width="512" height="512" viewBox="0 0 512 512" fill="none" xmlns="http://www.w3.org/2000/svg">
<g clip-path="url(#clip0_10_600)">
<path d="M256 512C397.385 512 512 397.385 512 256C512 114.615 397.385 0 256 0C114.615 0 0 114.615 0 256C0 397.385 114.615 512 256 512Z" fill="#00C1CE"/>
<path d="M105.083 369.312V128.646C105.083 112.1 118.621 98.5625 135.167 98.5625H300.625C317.171 98.5625 330.708 112.1 330.708 128.646V369.312C330.708 385.858 317.171 399.396 300.625 399.396H135.167C118.621 399.396 105.083 385.858 105.083 369.312Z" fill="#37474F"/>
<path d="M300.625 121.125H135.167C130.654 121.125 127.646 124.133 127.646 128.646V346.75C127.646 351.262 130.654 354.271 135.167 354.271H300.625C305.138 354.271 308.146 351.262 308.146 346.75V128.646C308.146 124.133 305.138 121.125 300.625 121.125Z" fill="#BBDEFB"/>
<path d="M187.812 369.312H232.938V384.354H187.812V369.312Z" fill="#78909C"/>
<path d="M255.5 384.354V203.854C255.5 187.308 269.037 173.771 285.583 173.771H375.833C392.379 173.771 405.917 187.308 405.917 203.854V384.354C405.917 400.9 392.379 414.438 375.833 414.438H285.583C269.037 414.438 255.5 400.9 255.5 384.354Z" fill="#E38939"/>
<path d="M375.833 196.333H285.583C281.071 196.333 278.062 199.342 278.062 203.854V369.313C278.062 373.825 281.071 376.833 285.583 376.833H375.833C380.346 376.833 383.354 373.825 383.354 369.313V203.854C383.354 199.342 380.346 196.333 375.833 196.333Z" fill="#FFF3E0"/>
<path d="M319.427 395.635C319.427 398.627 320.616 401.497 322.731 403.613C324.847 405.728 327.716 406.917 330.708 406.917C333.7 406.917 336.57 405.728 338.685 403.613C340.801 401.497 341.99 398.627 341.99 395.635C341.99 392.644 340.801 389.774 338.685 387.658C336.57 385.543 333.7 384.354 330.708 384.354C327.716 384.354 324.847 385.543 322.731 387.658C320.616 389.774 319.427 392.644 319.427 395.635Z" fill="#A6642A"/>
</g>
<defs>
<clipPath id="clip0_10_600">
<rect width="512" height="512" fill="white"/>
</clipPath>
</defs>
</svg>
