<svg width="512" height="512" viewBox="0 0 512 512" fill="none" xmlns="http://www.w3.org/2000/svg">
<g clip-path="url(#clip0_11_666)">
<path d="M256 512C397.385 512 512 397.385 512 256C512 114.615 397.385 0 256 0C114.615 0 0 114.615 0 256C0 397.385 114.615 512 256 512Z" fill="#EE66A6"/>
<g clip-path="url(#clip1_11_666)">
<path d="M369.042 233.925V315.244C369.042 345.487 344.176 370.353 313.933 370.353H289.739C259.497 370.353 234.63 345.487 234.63 315.244V233.925C214.468 246.694 201.027 269.544 201.027 295.082V383.794C201.027 420.757 231.27 451 268.233 451H335.44C372.403 451 402.646 420.757 402.646 383.794V295.082C402.645 269.544 389.204 246.694 369.042 233.925Z" fill="#FABA81"/>
<path d="M237.99 226.532C243.367 220.484 253.447 222.5 255.464 229.893V230.565C258.152 240.646 272.938 239.974 274.954 229.893V229.22C276.298 221.156 286.379 218.468 291.755 223.844C299.148 231.236 311.917 223.172 308.557 213.091V212.419C305.868 205.027 312.589 197.633 320.654 198.978H321.326C331.407 201.666 338.128 188.225 330.735 181.504H330.063C324.014 176.128 326.03 166.047 334.096 164.03H334.768C344.849 160.67 344.177 146.557 334.096 144.541H333.424C325.359 143.196 322.671 133.116 328.047 127.739C335.44 120.347 327.375 107.577 317.294 110.938H316.622C309.23 113.626 301.836 106.905 303.181 98.8402V98.168C305.197 90.7756 297.132 84.0547 289.74 86.0706L225.222 122.362L211.781 148.573L219.173 222.499C222.533 229.892 231.941 232.58 237.99 226.532Z" fill="#ECE8D8"/>
<path d="M281.002 202.338C278.986 202.338 276.97 201.665 275.626 199.649L242.695 152.605C241.35 150.589 241.351 147.901 242.023 145.884C243.367 143.868 245.383 142.524 248.071 142.524H307.885C311.918 142.524 314.606 145.212 314.606 149.245C314.606 153.277 311.918 155.966 307.885 155.966H260.841L286.379 192.257C288.395 195.617 287.724 199.649 285.035 201.666C283.69 201.666 282.346 202.338 281.002 202.338Z" fill="#C9B693"/>
<path d="M112.987 74.6462C119.036 62.5489 133.821 58.5169 145.918 65.2371L226.565 122.362L213.124 148.572L123.74 106.906C111.643 101.529 106.938 86.7436 112.987 74.6462Z" fill="#434C6D"/>
<path d="M349.552 182.176H330.062H330.735C338.799 188.897 332.079 202.338 321.325 199.65H320.653C312.589 197.634 305.868 205.026 308.556 213.091V213.763C311.916 223.844 299.819 231.909 291.754 224.516C285.706 219.14 276.297 221.828 274.953 229.893V230.565C272.937 240.645 258.151 241.318 255.463 231.237V230.565C253.447 223.172 243.366 220.484 237.989 226.532V227.204C237.317 227.877 235.973 228.549 235.301 229.22V317.932C235.301 346.831 258.824 370.353 287.722 370.353H316.621C345.519 370.353 369.041 346.83 369.041 317.932V201.666C369.042 190.912 360.305 182.176 349.552 182.176Z" fill="#D75D72"/>
</g>
</g>
<defs>
<clipPath id="clip0_11_666">
<rect width="512" height="512" fill="white"/>
</clipPath>
<clipPath id="clip1_11_666">
<rect width="389" height="389" fill="white" transform="translate(62 62)"/>
</clipPath>
</defs>
</svg>
