<?xml version="1.0" encoding="iso-8859-1"?>
<!-- Uploaded to: SVG Repo, www.svgrepo.com, Generator: SVG Repo Mixer Tools -->
<svg version="1.1" id="Layer_1" xmlns="http://www.w3.org/2000/svg" xmlns:xlink="http://www.w3.org/1999/xlink" 
	 viewBox="0 0 512 512" xml:space="preserve">
<circle style="fill:#0575A5;" cx="256" cy="256" r="256"/>
<path style="fill:#0575A5;" d="M270.51,511.565c117.355-6.561,213.596-92.132,236.37-204.408L376.868,177.152h-6.433l-40.817-40.814
	l-9.651,4.754l-4.867-4.864l-23.442-21.391l-26.885,44.421l-44.429-44.424L196.9,136.225l14.305,14.305l-28.823-14.198
	l-9.546,35.436l5.376,5.381h-43.08v59.5l9.257,9.252v139.556L270.51,511.565z"/>
<g>
	<rect x="144.384" y="177.126" style="fill:#F2F9FF;" width="223.206" height="208.333"/>
	<rect x="135.124" y="177.126" style="fill:#F2F9FF;" width="241.741" height="59.52"/>
</g>
<g>
	<polygon style="fill:#F28124;" points="259.725,177.137 315.1,136.236 291.643,114.834 255.997,173.732 	"/>
	<polygon style="fill:#F28124;" points="252.27,177.137 196.895,136.236 220.357,114.834 255.997,173.732 	"/>
</g>
<g>
	<polygon style="fill:#FF8E31;" points="259.725,177.137 339.141,171.771 329.61,136.323 258.204,171.515 	"/>
	<polygon style="fill:#FF8E31;" points="252.27,177.137 172.854,171.771 182.387,136.323 253.788,171.515 	"/>
</g>
<polygon style="fill:#F28124;" points="265.608,176.748 259.725,177.137 252.27,177.137 246.385,176.748 249.677,163.292 
	262.328,163.292 "/>
<rect x="246.861" y="177.126" style="fill:#FF8E31;" width="18.289" height="59.52"/>
<rect x="246.861" y="236.672" style="fill:#F28124;" width="18.289" height="148.787"/>
<rect x="144.384" y="254.925" style="fill:#FF8E31;" width="223.206" height="18.301"/>
<g>
	<rect x="144.384" y="236.672" style="fill:#C3DDF2;" width="102.426" height="7.13"/>
	<rect x="265.139" y="236.672" style="fill:#C3DDF2;" width="102.426" height="7.13"/>
</g>
<rect x="246.835" y="236.672" style="fill:#C37223;" width="18.319" height="7.13"/>
</svg>