<?xml version="1.0" encoding="iso-8859-1"?>
<!-- Uploaded to: SVG Repo, www.svgrepo.com, Generator: SVG Repo Mixer Tools -->
<svg version="1.1" id="Layer_1" xmlns="http://www.w3.org/2000/svg" xmlns:xlink="http://www.w3.org/1999/xlink" 
	 viewBox="0 0 512 512" xml:space="preserve">
<path style="fill:#F00000;" d="M256,0C114.616,0,0,114.616,0,256s114.616,256,256,256s256-114.616,256-256S397.384,0,256,0z"/>
<path style="fill:#FFFFFF;" d="M428.496,379.144H83.504c-6.328,0-11.504-5.176-11.504-11.496V144.352
	c0-6.328,5.176-11.504,11.504-11.504h345c6.328,0,11.504,5.176,11.504,11.504V367.64C440,373.968,434.824,379.144,428.496,379.144z"
	/>
<rect x="71.984" y="171.072" width="368" height="57.504"/>
<rect x="112.88" y="272.4" width="92.848" height="11.504"/>
<rect x="112.88" y="304.72" width="56.64" height="11.504"/>
<polygon points="315.264,295.592 266.232,247.28 217.2,295.592 238.24,295.592 238.24,361.616 294.216,361.616 294.216,295.592 "/>
<polygon points="314.528,370.64 363.56,418.952 412.592,370.64 391.552,370.64 391.552,304.608 335.576,304.608 335.576,370.64 "/>
</svg>