<svg width="512" height="512" viewBox="0 0 512 512" fill="none" xmlns="http://www.w3.org/2000/svg">
<g clip-path="url(#clip0_4_214)">
<path d="M256 512C397.385 512 512 397.385 512 256C512 114.615 397.385 0 256 0C114.615 0 0 114.615 0 256C0 397.385 114.615 512 256 512Z" fill="#298BA6"/>
<path d="M299.386 89.2119H145.67V402.101H373.226V163.052L299.386 89.2119Z" fill="#F4E3C3"/>
<path d="M373.226 163.052L299.386 89.2119H254.85V402.101H373.226V163.052Z" fill="#FED8B2"/>
<path d="M299.386 163.052H373.226L299.386 89.2119V163.052Z" fill="#FFD15D"/>
<path d="M339.609 188.768H211.178V195.664H339.609V188.768Z" fill="#F9B54C"/>
<path d="M197.387 188.768H168.943V195.664H197.387V188.768Z" fill="#F9B54C"/>
<path d="M339.609 217.212H211.178V224.108H339.609V217.212Z" fill="#F9B54C"/>
<path d="M197.387 217.212H168.943V224.108H197.387V217.212Z" fill="#F9B54C"/>
<path d="M339.609 245.657H211.178V252.553H339.609V245.657Z" fill="#F9B54C"/>
<path d="M197.387 245.657H168.943V252.553H197.387V245.657Z" fill="#F9B54C"/>
<path d="M339.609 274.101H211.178V280.997H339.609V274.101Z" fill="#F9B54C"/>
<path d="M197.387 274.101H168.943V280.997H197.387V274.101Z" fill="#F9B54C"/>
<path d="M294.788 343.488H237.899V350.384H294.788V343.488Z" fill="#F9B54C"/>
<path d="M339.609 188.768H254.845V195.664H339.609V188.768Z" fill="#F4A200"/>
<path d="M339.609 217.212H254.845V224.108H339.609V217.212Z" fill="#F4A200"/>
<path d="M339.609 245.657H254.845V252.553H339.609V245.657Z" fill="#F4A200"/>
<path d="M339.609 274.101H254.845V280.997H339.609V274.101Z" fill="#F4A200"/>
<path d="M294.788 343.488H254.845V350.384H294.788V343.488Z" fill="#F4A200"/>
<path d="M340.34 334.932C341.84 334.932 343.057 333.715 343.057 332.215V330.358C343.057 324.731 337.737 320.144 331.121 319.965V319.255C331.121 317.755 329.904 316.538 328.404 316.538C326.904 316.538 325.687 317.755 325.687 319.255V319.965C319.071 320.144 313.751 324.73 313.751 330.358V334.071C313.751 339.698 319.071 344.285 325.687 344.463V358.128C322.125 357.973 319.186 355.768 319.186 353.168V351.311C319.186 349.811 317.969 348.594 316.469 348.594C314.969 348.594 313.752 349.811 313.752 351.311V353.168C313.752 358.795 319.072 363.382 325.688 363.56V364.27C325.688 365.77 326.905 366.987 328.405 366.987C329.905 366.987 331.122 365.77 331.122 364.27V363.56C337.738 363.381 343.058 358.795 343.058 353.168V349.455C343.058 343.828 337.738 339.241 331.122 339.062V325.397C334.684 325.552 337.623 327.757 337.623 330.357V332.214C337.624 333.715 338.839 334.932 340.34 334.932ZM319.185 334.072V330.359C319.185 327.759 322.124 325.553 325.686 325.399V339.033C322.124 338.877 319.185 336.672 319.185 334.072ZM337.624 349.456V353.169C337.624 355.769 334.685 357.974 331.123 358.129V344.495C334.684 344.65 337.624 346.857 337.624 349.456Z" fill="#F4A200"/>
<rect x="64" y="285" width="165" height="165" rx="82.5" fill="white"/>
<path d="M146.129 304C130.874 324.367 103 353.47 103 387.863C103 411.687 122.309 431 146.129 431C169.949 431 189.258 411.687 189.258 387.863C189.258 353.47 161.376 324.367 146.129 304Z" fill="#22BAF5"/>
</g>
<defs>
<clipPath id="clip0_4_214">
<rect width="512" height="512" fill="white"/>
</clipPath>
</defs>
</svg>
