<?xml version="1.0" encoding="iso-8859-1"?>
<!-- Uploaded to: SVG Repo, www.svgrepo.com, Generator: SVG Repo Mixer Tools -->
<svg height="800px" width="800px" version="1.1" id="Layer_1" xmlns="http://www.w3.org/2000/svg" xmlns:xlink="http://www.w3.org/1999/xlink" 
	 viewBox="0 0 393.568 393.568" xml:space="preserve">
<circle style="fill:#6EB1E1;" cx="196.784" cy="196.784" r="196.784"/>
<polygon style="fill:#DEDEDF;" points="231.111,130.521 176.097,75.184 120.824,130.521 "/>
<polygon style="fill:#F1F3F7;" points="338.295,130.521 264.663,57.147 191.289,130.521 "/>
<circle style="fill:#4F5565;" cx="270.158" cy="309.463" r="26.958"/>
<circle style="fill:#F1F3F7;" cx="270.158" cy="309.463" r="13.382"/>
<circle style="fill:#4F5565;" cx="172.412" cy="309.463" r="26.958"/>
<circle style="fill:#F1F3F7;" cx="172.412" cy="309.463" r="13.382"/>
<g>
	<path style="fill:#4F5565;" d="M280.113,176.097H147.265c-5.495,0-9.697-4.461-9.697-9.697c0-5.495,4.461-9.697,9.697-9.697
		h132.848c5.495,0,9.697,4.461,9.697,9.697C289.81,171.895,285.349,176.097,280.113,176.097z"/>
	<path style="fill:#4F5565;" d="M270.158,205.964H157.479c-5.495,0-9.697-4.461-9.697-9.697c0-5.236,4.461-9.697,9.697-9.697
		h112.679c5.495,0,9.697,4.461,9.697,9.697C279.855,201.503,275.394,205.964,270.158,205.964z"/>
</g>
<path style="fill:#F0582F;" d="M22.82,65.81c-5.495,0-9.697,4.461-9.697,9.697c-0.259,5.495,4.202,9.956,9.697,9.956h28.057V65.81
	H22.82z"/>
<path style="fill:#FCFCFD;" d="M311.855,216.63l42.667-89.277H96.84L70.465,71.305c-1.552-3.426-4.978-5.754-8.921-5.754H50.812
	v19.911h4.461l67.362,143.321c1.552,3.426,4.978,5.754,8.921,5.754H300.8c6.271,0,11.249,4.978,11.249,11.248
	c0,6.271-4.978,11.248-11.249,11.248H132.848c-5.495,0-9.697,4.461-9.697,9.697c0,5.495,4.461,9.697,9.697,9.697H300.8
	c17.002,0,30.901-13.899,30.901-30.901C331.701,232.339,323.426,221.091,311.855,216.63z M105.956,146.747h217.406l-32.453,67.879
	H137.826L105.956,146.747z"/>
</svg>