<svg width="512" height="512" viewBox="0 0 512 512" fill="none" xmlns="http://www.w3.org/2000/svg">
<g clip-path="url(#clip0_12_695)">
<path d="M256 512C397.385 512 512 397.385 512 256C512 114.615 397.385 0 256 0C114.615 0 0 114.615 0 256C0 397.385 114.615 512 256 512Z" fill="#C80036"/>
<path d="M246.339 357.524C196.887 371.75 169.731 302.064 159.364 277.205C138.688 227.548 84.7588 192.911 88.735 156.359C92.7112 119.808 137.627 123.46 137.627 123.46" stroke="#BDBDBD" stroke-width="30" stroke-miterlimit="10" stroke-linejoin="round"/>
<path d="M243.246 357.524C292.992 344.329 276.793 272.375 272.905 245.72C265.159 192.469 293.64 135.065 271.462 105.759C249.284 76.4531 212.615 102.637 212.615 102.637" stroke="#BDBDBD" stroke-width="30" stroke-miterlimit="10" stroke-linejoin="round"/>
<path d="M367.951 207.843C392.757 207.843 412.867 187.734 412.867 162.927C412.867 138.121 392.757 118.011 367.951 118.011C343.144 118.011 323.035 138.121 323.035 162.927C323.035 187.734 343.144 207.843 367.951 207.843Z" fill="#878787"/>
<path d="M369.541 199.184C391.354 199.184 409.038 181.501 409.038 159.688C409.038 137.874 391.354 120.191 369.541 120.191C347.728 120.191 330.044 137.874 330.044 159.688C330.044 181.501 347.728 199.184 369.541 199.184Z" fill="#BDBDBD"/>
<path d="M272.375 241.567C269.754 261.419 302.241 333.932 251.846 353.784C195.414 376.05 174.355 293.257 159.393 277.206" stroke="#03A9F4" stroke-width="30" stroke-miterlimit="10"/>
<path d="M164.106 284.598C164.106 284.598 195.827 318.057 233.026 302.712C268.281 288.162 273.76 249.549 273.76 249.549" stroke="#03A9F4" stroke-width="30" stroke-miterlimit="10"/>
<path opacity="0.22" d="M365.359 131.118C349.925 134.711 340.353 150.115 343.917 165.549C344.447 167.846 345.272 170.084 346.361 172.205L348.364 176.152C342.709 183.545 338.115 186.372 336.554 194.943C340.559 198.86 345.242 201.982 350.367 204.162C350.367 204.132 350.397 204.103 350.397 204.073C350.397 204.103 350.426 204.132 350.426 204.191C358.879 207.784 368.51 208.874 378.171 206.636C379.261 206.371 380.291 206.047 381.322 205.723L380.409 197.476C380.409 197.476 381.587 187.02 381.852 186.46C382.53 185.135 385.269 184.428 386.683 183.603C390.099 181.542 393.074 178.744 395.371 175.474C397.662 172.173 399.238 168.429 399.999 164.483C400.76 160.538 400.688 156.477 399.789 152.56C396.196 137.126 380.763 127.525 365.359 131.118Z" fill="#212121"/>
<path d="M245.956 350.838C274.201 415.547 317.497 424.707 349.484 419.14C377.582 414.221 414.781 389.039 414.693 343.387C414.575 288.368 377.876 291.844 357.995 256.588C333.225 212.644 366.979 172.293 366.979 172.293" stroke="#03A9F4" stroke-width="30" stroke-miterlimit="10"/>
<path opacity="0.22" d="M347.039 182.19C347.039 182.19 352.635 179.333 357.995 182.396C366.478 187.226 367.303 194.118 367.303 194.118C367.303 194.118 372.428 183.928 375.167 181.159C377.876 178.361 358.761 164.488 354.432 169.819C350.102 175.151 347.039 182.19 347.039 182.19Z" fill="#212121"/>
<path d="M149.968 109.352C145.55 109.382 141.662 111.502 139.1 114.713L135.448 111.826C132.119 109.205 127.23 111.591 127.26 115.832L127.377 131.118C127.407 135.359 132.326 137.686 135.595 135.006L139.159 132.119C141.751 135.33 145.697 137.421 150.145 137.392C157.891 137.333 164.135 131 164.076 123.254C164.017 115.508 157.714 109.293 149.968 109.352Z" fill="#616161"/>
<path d="M224.484 103.992L216.679 90.8556C214.5 87.2034 209.08 87.7041 207.608 91.6508L205.988 96.0099C202.13 94.5667 197.712 94.7728 193.912 97.0407C192.327 97.9814 190.943 99.2253 189.839 100.701C188.735 102.178 187.933 103.857 187.479 105.643C187.025 107.43 186.928 109.288 187.193 111.112C187.457 112.936 188.079 114.69 189.023 116.274C189.964 117.859 191.207 119.243 192.684 120.347C194.16 121.451 195.839 122.252 197.625 122.707C199.412 123.161 201.27 123.258 203.094 122.993C204.918 122.728 206.672 122.106 208.256 121.163C212.085 118.895 214.382 115.066 214.942 110.972L219.477 111.591C223.66 112.15 226.664 107.644 224.484 103.992Z" fill="#616161"/>
<path d="M374.872 181.159C389.707 181.159 401.733 169.133 401.733 154.298C401.733 139.463 389.707 127.436 374.872 127.436C360.037 127.436 348.011 139.463 348.011 154.298C348.011 169.133 360.037 181.159 374.872 181.159Z" fill="#424242"/>
<path d="M376.227 173.059C387.744 173.059 397.08 163.723 397.08 152.206C397.08 140.69 387.744 131.354 376.227 131.354C364.71 131.354 355.374 140.69 355.374 152.206C355.374 163.723 364.71 173.059 376.227 173.059Z" fill="#D1D1D1"/>
<path d="M192.793 112.504C190.348 108.999 190.82 102.46 195.031 99.4854C199.243 96.5106 205.605 97.8066 208.05 101.724C210.789 106.083 203.632 102.166 199.42 105.14C195.208 108.115 195.738 116.745 192.793 112.504Z" fill="#757575"/>
<path d="M141.662 118.807C142.723 114.654 147.936 110.737 152.943 111.974C157.95 113.211 161.131 118.836 159.776 123.254C158.274 128.173 156.536 120.191 151.529 118.983C146.551 117.746 140.396 123.814 141.662 118.807Z" fill="#757575"/>
</g>
<defs>
<clipPath id="clip0_12_695">
<rect width="512" height="512" fill="white"/>
</clipPath>
</defs>
</svg>
