<svg width="512" height="512" viewBox="0 0 512 512" fill="none" xmlns="http://www.w3.org/2000/svg">
<g clip-path="url(#clip0_7_375)">
<path d="M256 512C397.385 512 512 397.385 512 256C512 114.615 397.385 0 256 0C114.615 0 0 114.615 0 256C0 397.385 114.615 512 256 512Z" fill="#1C274C"/>
<g clip-path="url(#clip1_7_375)">
<path d="M159.055 388.418C148.949 398.523 132.873 399 123.339 389.467C113.806 379.933 114.283 363.857 124.388 353.751L326.018 152.121C336.132 142.007 352.2 141.539 361.733 151.073C371.275 160.606 370.799 176.683 360.685 186.788L159.055 388.418Z" fill="#D67909"/>
<path d="M382.403 166.361C384.014 164.751 385.291 162.84 386.162 160.736C387.034 158.633 387.483 156.378 387.483 154.102C387.483 151.825 387.034 149.57 386.162 147.467C385.291 145.363 384.014 143.452 382.403 141.843L370.149 129.588C366.897 126.338 362.488 124.512 357.891 124.513C353.294 124.514 348.885 126.341 345.635 129.592C342.385 132.844 340.559 137.253 340.56 141.85C340.561 146.447 342.388 150.856 345.639 154.106L357.894 166.361C361.144 169.61 365.552 171.436 370.149 171.436C374.745 171.436 379.153 169.61 382.403 166.361Z" fill="#D67909"/>
<path d="M382.403 166.361C384.014 164.751 385.291 162.84 386.162 160.736C387.034 158.633 387.483 156.378 387.483 154.102C387.483 151.825 387.034 149.57 386.162 147.467C385.291 145.363 384.014 143.452 382.403 141.843L370.149 129.588C366.897 126.338 362.488 124.512 357.891 124.513C353.294 124.514 348.885 126.341 345.635 129.592C342.385 132.844 340.559 137.253 340.56 141.85C340.561 146.447 342.388 150.856 345.639 154.106L357.894 166.361C361.144 169.61 365.552 171.436 370.149 171.436C374.745 171.436 379.153 169.61 382.403 166.361Z" fill="#D67909"/>
<path d="M410.171 216.341C407.987 201.045 406.921 178.607 382.403 154.097L376.276 147.961L333.385 105.061C330.134 101.812 325.726 99.9863 321.13 99.9863C316.534 99.9863 312.126 101.812 308.875 105.061L278.23 135.707C276.62 137.316 275.342 139.227 274.471 141.331C273.599 143.434 273.151 145.689 273.151 147.966C273.151 150.242 273.599 152.497 274.471 154.6C275.342 156.704 276.62 158.615 278.23 160.225L333.385 215.379L351.767 233.761L364.021 246.016C372.922 254.917 392.743 274.746 404.911 262.578C411.61 255.887 413.239 237.791 410.171 216.341Z" fill="#66757F"/>
<path d="M352.937 388.418C363.042 398.523 379.127 399 388.652 389.467C398.185 379.933 397.709 363.857 387.603 353.751L185.982 152.121C175.868 142.007 159.791 141.531 150.267 151.073C140.725 160.606 141.201 176.683 151.315 186.788L352.937 388.418Z" fill="#F4900C"/>
<path d="M129.597 166.361C127.986 164.751 126.709 162.84 125.837 160.736C124.966 158.633 124.517 156.378 124.517 154.102C124.517 151.825 124.966 149.57 125.837 147.467C126.709 145.363 127.986 143.452 129.597 141.843L141.851 129.588C145.103 126.338 149.512 124.512 154.109 124.513C158.706 124.514 163.115 126.341 166.365 129.592C169.615 132.844 171.441 137.253 171.44 141.85C171.439 146.447 169.612 150.856 166.361 154.106L154.106 166.361C150.855 169.61 146.447 171.436 141.851 171.436C137.255 171.436 132.847 169.61 129.597 166.361Z" fill="#F4900C"/>
<path d="M135.724 233.779C142.484 240.539 153.465 240.539 160.233 233.779L233.77 160.242C235.38 158.632 236.658 156.721 237.529 154.618C238.401 152.514 238.849 150.26 238.849 147.983C238.849 145.706 238.401 143.452 237.529 141.348C236.658 139.245 235.38 137.334 233.77 135.724L203.125 105.087C199.874 101.838 195.466 100.012 190.87 100.012C186.274 100.012 181.866 101.838 178.615 105.087L105.079 178.615C101.829 181.866 100.004 186.274 100.004 190.87C100.004 195.466 101.829 199.874 105.079 203.125L135.724 233.779Z" fill="#66757F"/>
</g>
</g>
<defs>
<clipPath id="clip0_7_375">
<rect width="512" height="512" fill="white"/>
</clipPath>
<clipPath id="clip1_7_375">
<rect width="312" height="312" fill="white" transform="translate(100 100)"/>
</clipPath>
</defs>
</svg>
