<?xml version="1.0" encoding="iso-8859-1"?>
<!-- Uploaded to: SVG Repo, www.svgrepo.com, Generator: SVG Repo Mixer Tools -->
<svg version="1.1" id="Layer_1" xmlns="http://www.w3.org/2000/svg" xmlns:xlink="http://www.w3.org/1999/xlink" 
	 viewBox="0 0 512 512" xml:space="preserve">
<path style="fill:#E64A55;" d="M244.846,0.256C108.639,6.098,0,118.354,0,256c0,137.817,108.91,250.179,245.356,255.763
	l10.647-255.762L244.846,0.256z"/>
<path style="fill:#E64A55;" d="M512,256c0-70.693-28.654-134.693-74.981-181.019C393.131,31.094,333.379,3.085,267.106,0.255
	L256,139.13L64.362,330.769l180.994,180.994C248.888,511.908,252.433,512,256,512C397.385,512,512,397.385,512,256z"/>
<path style="fill:#313A3E;" d="M267.107,0.255C263.423,0.097,259.723,0,256,0c-3.739,0-7.454,0.098-11.154,0.256v200.092h22.261
	V0.255z"/>
<polygon style="fill:#57676E;" points="256,128 233.739,172.522 278.261,172.522 278.261,128 "/>
<rect x="233.739" y="128" style="fill:#748993;" width="22.261" height="44.522"/>
<polygon style="fill:#A2B1B7;" points="372.87,150.261 256,150.261 233.739,233.739 256,317.217 372.87,317.217 "/>
<g>
	<rect x="139.13" y="150.261" style="fill:#C4D3D9;" width="116.87" height="166.957"/>
	<circle style="fill:#C4D3D9;" cx="139.13" cy="256" r="105.739"/>
</g>
<polygon style="fill:#57676E;" points="194.783,239.304 155.826,239.304 155.826,200.348 122.435,200.348 122.435,239.304 
	83.478,239.304 83.478,272.696 122.435,272.696 122.435,311.652 155.826,311.652 155.826,272.696 194.783,272.696 "/>
<circle style="fill:#A2B1B7;" cx="372.87" cy="256" r="105.739"/>
<circle style="fill:#748993;" cx="372.87" cy="256" r="83.478"/>
<path style="fill:#A2B1B7;" d="M380.74,200.908c-8.693-8.694-22.788-8.694-31.481,0l-31.481,31.481
	c-8.693,8.693-8.693,22.787,0,31.481c8.693,8.694,22.788,8.694,31.481,0l31.481-31.481
	C389.434,223.695,389.434,209.601,380.74,200.908z"/>
<g>
	<circle style="fill:#FEEB5C;" cx="333.512" cy="248.131" r="11.13"/>
	<circle style="fill:#FEEB5C;" cx="365" cy="216.654" r="11.13"/>
</g>
<path style="fill:#A2B1B7;" d="M427.962,248.13c-8.693-8.694-22.788-8.694-31.481,0l-31.481,31.481
	c-8.693,8.693-8.693,22.787,0,31.481c8.693,8.694,22.788,8.694,31.481,0l31.481-31.481
	C436.656,270.918,436.656,256.824,427.962,248.13z"/>
<g>
	<circle style="fill:#EA5A7D;" cx="380.739" cy="295.357" r="11.13"/>
	<circle style="fill:#EA5A7D;" cx="412.227" cy="263.869" r="11.13"/>
</g>
<g>
	<rect x="244.87" y="244.87" style="fill:#57676E;" width="22.261" height="22.261"/>
	<rect x="244.87" y="200.348" style="fill:#57676E;" width="22.261" height="22.261"/>
</g>
</svg>