<?xml version="1.0" encoding="iso-8859-1"?>
<!-- Uploaded to: SVG Repo, www.svgrepo.com, Generator: SVG Repo Mixer Tools -->
<svg version="1.1" id="Layer_1" xmlns="http://www.w3.org/2000/svg" xmlns:xlink="http://www.w3.org/1999/xlink" 
	 viewBox="0 0 393.568 393.568" xml:space="preserve">
<circle style="fill:#71D456;" cx="196.784" cy="196.784" r="196.784"/>
<g>
	<path style="fill:#F8B517;" d="M189.479,215.402c-47.709,0-83.588-13.899-106.408-40.857
		C47.192,131.814,56.889,72.598,57.406,70.271l1.293-7.628h86.756v18.36H74.667c-1.034,15.968-1.034,54.238,22.562,82.036
		c19.394,22.82,50.295,34.327,92.509,34.327v18.101h-0.259V215.402z"/>
	<path style="fill:#F8B517;" d="M204.089,215.402v-18.36c41.891,0,73.115-11.507,92.509-34.327
		c23.596-27.798,23.855-66.004,22.562-82.036h-70.788v-18.36h86.756l1.293,7.628c0.517,2.651,10.214,61.867-25.665,104.275
		C287.677,201.503,251.798,215.402,204.089,215.402z"/>
</g>
<path style="fill:#FBD303;" d="M181.98,229.042c-3.491,3.685-5.689,8.663-5.689,14.093c0,5.947,2.521,11.248,6.594,14.998
	c-11.313,2.392-19.135,7.564-19.135,13.576c0,0.259,0,0.453,0.065,0.711h65.939c0-0.259,0.065-0.453,0.065-0.711
	c0-6.012-7.822-11.184-19.135-13.576c4.008-3.749,6.594-9.051,6.594-14.998c0-5.495-2.133-10.473-5.689-14.093
	c32.517-6.853,57.018-35.749,57.018-70.271V55.273H124.962v103.499C124.962,193.293,149.527,222.19,181.98,229.042z"/>
<path style="fill:#F0582F;" d="M231.628,271.709h-69.689c-5.754,0-10.214,4.719-10.214,10.214v8.404h90.376v-8.404
	C242.101,276.17,237.382,271.709,231.628,271.709z"/>
<path style="fill:#4F5565;" d="M248.954,286.384H144.614c-3.943,0-7.305,3.168-7.305,7.305v81.455h118.949v-81.39
	C256.259,289.552,253.091,286.384,248.954,286.384z"/>
<g>
	<path style="fill:#646B79;" d="M260.719,366.804H132.848c-2.327,0-3.943,1.81-3.943,3.943c0,2.327,1.81,3.943,3.943,3.943h127.871
		c2.327,0,3.943-1.81,3.943-3.943C264.921,368.679,263.046,366.804,260.719,366.804z"/>
	<rect x="162.715" y="307.071" style="fill:#646B79;" width="68.137" height="42.99"/>
</g>
</svg>