<?xml version="1.0" encoding="iso-8859-1"?>
<!-- Uploaded to: SVG Repo, www.svgrepo.com, Generator: SVG Repo Mixer Tools -->
<svg height="800px" width="800px" version="1.1" id="Layer_1" xmlns="http://www.w3.org/2000/svg" xmlns:xlink="http://www.w3.org/1999/xlink" 
	 viewBox="0 0 512 512" xml:space="preserve">
<circle style="fill:#FFEDB5;" cx="256" cy="256" r="256"/>
<path style="fill:#FFEDB5;" d="M266.807,511.757c133.067-5.529,239.883-112.618,244.982-245.794l-162.46-162.461L196.212,292.174
	l8.409,8.409l-103.91,45.077L266.807,511.757z"/>
<path style="fill:#A30F44;" d="M76.714,256c0-15.281,18.954-27.867,22.721-41.96c3.898-14.581-6.11-34.937,1.276-47.702
	c7.492-12.95,30.194-14.414,40.705-24.923c10.511-10.511,11.973-33.211,24.923-40.703c12.767-7.387,33.121,2.622,47.702-1.276
	c14.093-3.767,26.677-22.721,41.958-22.721s27.867,18.954,41.96,22.721c14.581,3.898,34.937-6.11,47.702,1.276
	c12.95,7.492,14.414,30.194,24.923,40.705c10.511,10.511,33.211,11.973,40.703,24.923c7.387,12.767-2.622,33.121,1.276,47.702
	c3.767,14.093,22.721,26.677,22.721,41.958s-18.954,27.867-22.721,41.96c-3.898,14.581,6.11,34.937-1.276,47.702
	c-7.492,12.95-30.194,14.414-40.705,24.923c-10.511,10.511-11.973,33.211-24.923,40.703c-12.767,7.387-33.121-2.622-47.702,1.276
	c-14.093,3.767-26.677,22.721-41.958,22.721s-27.867-18.954-41.96-22.721c-14.581-3.898-34.937,6.11-47.702-1.276
	c-12.95-7.492-14.414-30.194-24.923-40.705c-10.511-10.511-33.211-11.973-40.703-24.923c-7.387-12.767,2.622-33.121-1.276-47.702
	C95.668,283.865,76.714,271.281,76.714,256z"/>
<path style="fill:#7F0E3C;" d="M412.565,297.96c3.767-14.093,22.721-26.679,22.721-41.96s-18.954-27.865-22.721-41.958
	c-3.898-14.581,6.111-34.935-1.276-47.702c-7.492-12.95-30.194-14.414-40.703-24.923c-10.511-10.511-11.973-33.211-24.923-40.705
	c-12.767-7.387-33.121,2.622-47.702-1.276c-14.093-3.767-26.679-22.721-41.958-22.721v358.572c15.279,0,27.865-18.954,41.958-22.721
	c14.581-3.898,34.935,6.111,47.702-1.276c12.95-7.492,14.414-30.194,24.923-40.703c10.511-10.511,33.211-11.973,40.705-24.923
	C418.675,332.897,408.667,312.541,412.565,297.96z"/>
<circle style="fill:#FF314F;" cx="256" cy="256" r="119.81"/>
<path style="fill:#A30F44;" d="M375.811,256c0-66.17-53.641-119.811-119.811-119.811v239.623
	C322.17,375.811,375.811,322.17,375.811,256z"/>
<path style="fill:#FFAD9E;" d="M256,382.707c-69.866,0-126.707-56.841-126.707-126.707S186.134,129.293,256,129.293
	S382.707,186.134,382.707,256S325.866,382.707,256,382.707z M256,143.084c-62.262,0-112.916,50.654-112.916,112.916
	S193.738,368.916,256,368.916S368.916,318.262,368.916,256S318.262,143.084,256,143.084z"/>
<path style="fill:#FF6262;" d="M382.707,256c0-69.866-56.841-126.707-126.707-126.707v13.791
	c62.262,0,112.916,50.654,112.916,112.916S318.262,368.916,256,368.916v13.791C325.866,382.707,382.707,325.866,382.707,256z"/>
<path style="fill:#FFFFFF;" d="M226.64,252.876c-14.467,0-26.236-11.769-26.236-26.236s11.769-26.236,26.236-26.236
	s26.236,11.769,26.236,26.236C252.876,241.107,241.105,252.876,226.64,252.876z M226.64,217.643c-4.961,0-8.997,4.036-8.997,8.997
	s4.036,8.997,8.997,8.997s8.997-4.036,8.997-8.997S231.602,217.643,226.64,217.643z"/>
<path style="fill:#D0D1D3;" d="M285.36,311.596c-14.467,0-26.236-11.769-26.236-26.236s11.769-26.236,26.236-26.236
	s26.236,11.769,26.236,26.236S299.827,311.596,285.36,311.596z M285.36,276.365c-4.961,0-8.997,4.036-8.997,8.997
	s4.036,8.997,8.997,8.997s8.997-4.036,8.997-8.997C294.357,280.4,290.321,276.365,285.36,276.365z"/>
<path style="fill:#FFFFFF;" d="M216.497,304.123c-2.205,0-4.413-0.841-6.094-2.526c-3.367-3.365-3.367-8.823,0-12.188l79.007-79.007
	c3.363-3.367,8.825-3.367,12.188,0c3.367,3.365,3.367,8.823,0,12.188l-79.007,79.007
	C220.91,303.282,218.702,304.123,216.497,304.123z"/>
<path style="fill:#D0D1D3;" d="M301.597,210.403c-3.363-3.367-8.825-3.367-12.188,0L256,243.812v24.378l45.597-45.597
	C304.964,219.226,304.964,213.768,301.597,210.403z"/>
</svg>