<?xml version="1.0" encoding="iso-8859-1"?>
<!-- Uploaded to: SVG Repo, www.svgrepo.com, Generator: SVG Repo Mixer Tools -->
<svg version="1.1" id="Layer_1" xmlns="http://www.w3.org/2000/svg" xmlns:xlink="http://www.w3.org/1999/xlink" 
	 viewBox="0 0 512 512" xml:space="preserve">
<circle style="fill:#C1D354;" cx="256" cy="256" r="256"/>
<path style="fill:#9DB138;" d="M215.084,414.572c-2.017,2.12-4.649,3.254-7.355,3.397l-13.422,0.699
	c-0.366,0.036-0.73,0.182-0.991,0.435c-0.253,0.292-0.399,0.66-0.399,1.024v0.435l90.015,90.017
	c114.289-11.95,206.136-99.108,225.313-211.095L300.728,91.971c-0.366-0.366-0.842-0.548-1.313-0.548h-10.058h-18.289
	c-0.44,0-0.914,0.182-1.28,0.548c-0.369,0.366-0.548,0.806-0.548,1.277v3.548h-0.443c-0.069,0-0.148,0-0.218,0.044
	c-0.02,0-0.044,0.013-0.061,0.018c-0.179,0.028-0.353,0.067-0.509,0.143c-0.095,0.041-0.172,0.113-0.264,0.174
	c-0.087,0.064-0.182,0.12-0.261,0.197c-0.097,0.105-0.166,0.23-0.241,0.353c-0.046,0.074-0.1,0.131-0.133,0.207
	c-0.087,0.212-0.141,0.445-0.141,0.694v14.625c0,0.256,0.054,0.502,0.148,0.727h0.008c0.105,0.238,0.264,0.443,0.453,0.62
	c0.067,0.069,0.141,0.136,0.197,0.189l1.462,1.503v69.12c0,1.974-0.407,4.017-1.354,5.921c-0.911,1.938-2.232,3.548-3.766,4.79
	l-7.427,5.926c-5.194,4.129-9.582,9.472-12.652,15.872c-3.072,6.4-4.5,13.169-4.5,19.82v42.35H187.73
	c-4.247,7.831-6.694,17.193-6.694,27.282c0,1.672,0.087,3.315,0.218,4.938c0.044,0.474,0.092,0.927,0.141,1.393
	c0.125,1.226,0.294,2.435,0.494,3.633c0.074,0.425,0.133,0.85,0.212,1.272c0.302,1.569,0.643,3.126,1.062,4.636
	c0.005,0.033,0.02,0.054,0.028,0.079c0.415,1.49,0.899,2.931,1.418,4.347c0.133,0.358,0.274,0.709,0.415,1.06
	c0.458,1.167,0.952,2.304,1.482,3.423c0.125,0.269,0.246,0.548,0.387,0.812c1.37,2.772,2.957,5.345,4.733,7.721
	c0.141,0.189,0.284,0.374,0.428,0.563c0.85,1.103,1.741,2.163,2.668,3.164c0.036,0.038,0.061,0.077,0.097,0.113
	c0.018,0.026,0.044,0.044,0.056,0.064c0.568,0.607,1.16,1.185,1.756,1.756c0.143,0.133,0.274,0.287,0.417,0.415l20.992,20.992
	v39.276C218.043,409.743,217.057,412.449,215.084,414.572z"/>
<path style="fill:#34495E;" d="M306.404,196.114c-1.559-1.242-2.872-2.844-3.791-4.769c-0.919-1.917-1.354-3.94-1.354-5.942V93.261
	c0-0.471-0.174-0.937-0.538-1.293c-0.356-0.358-0.824-0.538-1.29-0.538h-28.344c-0.471,0-0.937,0.179-1.293,0.538
	c-0.358,0.356-0.533,0.822-0.533,1.293v92.145c0,2.002-0.435,4.024-1.352,5.942c-0.922,1.925-2.237,3.525-3.794,4.769l-7.411,5.926
	c-5.197,4.157-9.572,9.503-12.644,15.9c-3.072,6.392-4.513,13.156-4.513,19.802V411.43c0,2.335,0.891,4.675,2.675,6.459
	c1.784,1.784,4.124,2.683,6.461,2.683h73.144c2.345,0,4.677-0.899,6.461-2.683c1.789-1.784,2.683-4.124,2.683-6.459V237.745
	c0-6.648-1.441-13.412-4.511-19.802c-3.075-6.397-7.45-11.743-12.646-15.9L306.404,196.114z"/>
<path style="fill:#5C7D99;" d="M250.353,242.248c-2.486,0-4.506-2.02-4.506-4.506c0-5.96,1.311-11.704,3.894-17.07
	c2.578-5.368,6.244-9.979,10.9-13.704l7.411-5.932c1.938-1.562,4.774-1.247,6.328,0.699c1.556,1.938,1.242,4.777-0.699,6.328
	l-7.414,5.934c-3.587,2.872-6.421,6.433-8.407,10.578c-1.994,4.137-3.005,8.568-3.005,13.166
	C254.856,240.23,252.841,242.248,250.353,242.248z"/>
<path style="fill:#283A4D;" d="M303.539,113.26c0,1.009-0.817,1.828-1.82,1.828h-32.916c-1.004,0-1.833-0.822-1.833-1.828V98.627
	c0-1.006,0.829-1.825,1.833-1.825h32.916c1.004,0,1.82,0.822,1.82,1.825V113.26z"/>
<rect x="288" y="276.122" style="fill:#F2F9FF;" width="42.975" height="96.916"/>
<rect x="294.4" y="282.522" style="fill:#FF8E31;" width="36.57" height="84.111"/>
<path style="fill:#E1EFFA;" d="M226.481,358.2c1.37-1.687,2.929-2.294,4.803-3.005c0.425-0.159,1.664-0.586,2.097-0.753
	c16.289-6.313,28.109-24.996,28.109-47.068c0-10.084-2.476-19.464-6.707-27.282h-1.055c3.681,7.091,5.819,15.465,5.819,24.448
	c0,25.485-17.139,46.144-38.287,46.144c-21.151,0-38.292-20.659-38.292-46.144c0-8.983,2.138-17.357,5.819-24.448h-1.06
	c-4.229,7.821-6.697,17.198-6.697,27.282c0,22.072,11.814,40.755,28.104,47.068c0.428,0.164,1.672,0.594,2.092,0.753
	c1.882,0.712,3.441,1.318,4.803,3.005c1.37,1.697,2.028,3.722,2.028,5.737v43.098c0,2.701-0.986,5.407-2.982,7.521
	c-2.002,2.12-4.641,3.269-7.332,3.43l-13.44,0.684c-0.361,0.013-0.717,0.166-0.986,0.451c-0.266,0.282-0.399,0.645-0.399,1.011
	v0.443h28.344h28.339v-0.443c0-0.366-0.133-0.727-0.402-1.011c-0.266-0.282-0.625-0.438-0.986-0.451l-13.443-0.684
	c-2.693-0.161-5.332-1.311-7.332-3.43c-1.989-2.115-2.982-4.823-2.982-7.521v-43.098C224.458,361.923,225.119,359.898,226.481,358.2
	z"/>
<path style="fill:#F2F9FF;" d="M188.79,280.092c-3.681,7.091-5.819,15.465-5.819,24.448c0,25.485,17.144,46.144,38.292,46.144
	c21.146,0,38.287-20.659,38.287-46.144c0-8.983-2.138-17.357-5.819-24.448H188.79z"/>
<path style="fill:#FF8E31;" d="M184.753,318.5c4.908,18.652,19.395,32.184,36.511,32.184c17.108,0,31.59-13.532,36.495-32.184
	H184.753L184.753,318.5z"/>
<path style="fill:#FFFFFF;" d="M199.864,318.5c-1.595-4.265-2.478-9.019-2.478-13.96c0-4.332,0.66-8.543,1.971-12.508
	c0.622-1.889-0.404-3.93-2.294-4.547c-1.897-0.648-3.93,0.399-4.552,2.291c-1.549,4.698-2.335,9.661-2.335,14.766
	c0,4.856,0.748,9.569,2.107,13.96h7.58V318.5z"/>
<path style="fill:#FFCB7C;" d="M210.243,340.923c0.499,0.233,1.019,0.346,1.539,0.346c1.349,0,2.639-0.758,3.259-2.058
	c0.855-1.797,0.087-3.948-1.71-4.797c-6.008-2.849-10.765-8.673-13.468-15.913h-7.58
	C195.418,328.622,201.866,336.947,210.243,340.923z"/>
</svg>