<svg width="512" height="512" viewBox="0 0 512 512" fill="none" xmlns="http://www.w3.org/2000/svg">
<g clip-path="url(#clip0_4_112)">
<path d="M256 512C397.385 512 512 397.385 512 256C512 114.615 397.385 0 256 0C114.615 0 0 114.615 0 256C0 397.385 114.615 512 256 512Z" fill="#FF0000"/>
<path d="M299.386 89.2119H145.67V402.101H373.226V163.052L299.386 89.2119Z" fill="#F4E3C3"/>
<path d="M373.226 163.052L299.386 89.2119H254.85V402.101H373.226V163.052Z" fill="#FED8B2"/>
<path d="M299.386 163.052H373.226L299.386 89.2119V163.052Z" fill="#FFD15D"/>
<path d="M339.609 188.768H211.178V195.664H339.609V188.768Z" fill="#F9B54C"/>
<path d="M197.387 188.768H168.943V195.664H197.387V188.768Z" fill="#F9B54C"/>
<path d="M339.609 217.212H211.178V224.108H339.609V217.212Z" fill="#F9B54C"/>
<path d="M197.387 217.212H168.943V224.108H197.387V217.212Z" fill="#F9B54C"/>
<path d="M339.609 245.657H211.178V252.553H339.609V245.657Z" fill="#F9B54C"/>
<path d="M197.387 245.657H168.943V252.553H197.387V245.657Z" fill="#F9B54C"/>
<path d="M339.609 274.101H211.178V280.997H339.609V274.101Z" fill="#F9B54C"/>
<path d="M197.387 274.101H168.943V280.997H197.387V274.101Z" fill="#F9B54C"/>
<path d="M294.788 343.488H237.899V350.384H294.788V343.488Z" fill="#F9B54C"/>
<path d="M339.609 188.768H254.845V195.664H339.609V188.768Z" fill="#F4A200"/>
<path d="M339.609 217.212H254.845V224.108H339.609V217.212Z" fill="#F4A200"/>
<path d="M339.609 245.657H254.845V252.553H339.609V245.657Z" fill="#F4A200"/>
<path d="M339.609 274.101H254.845V280.997H339.609V274.101Z" fill="#F4A200"/>
<path d="M294.788 343.488H254.845V350.384H294.788V343.488Z" fill="#F4A200"/>
<path d="M340.34 334.932C341.84 334.932 343.057 333.715 343.057 332.215V330.358C343.057 324.731 337.737 320.144 331.121 319.965V319.255C331.121 317.755 329.904 316.538 328.404 316.538C326.904 316.538 325.687 317.755 325.687 319.255V319.965C319.071 320.144 313.751 324.73 313.751 330.358V334.071C313.751 339.698 319.071 344.285 325.687 344.463V358.128C322.125 357.973 319.186 355.768 319.186 353.168V351.311C319.186 349.811 317.969 348.594 316.469 348.594C314.969 348.594 313.752 349.811 313.752 351.311V353.168C313.752 358.795 319.072 363.382 325.688 363.56V364.27C325.688 365.77 326.905 366.987 328.405 366.987C329.905 366.987 331.122 365.77 331.122 364.27V363.56C337.738 363.381 343.058 358.795 343.058 353.168V349.455C343.058 343.828 337.738 339.241 331.122 339.062V325.397C334.684 325.552 337.623 327.757 337.623 330.357V332.214C337.624 333.715 338.839 334.932 340.34 334.932ZM319.185 334.072V330.359C319.185 327.759 322.124 325.553 325.686 325.399V339.033C322.124 338.877 319.185 336.672 319.185 334.072ZM337.624 349.456V353.169C337.624 355.769 334.685 357.974 331.123 358.129V344.495C334.684 344.65 337.624 346.857 337.624 349.456Z" fill="#F4A200"/>
<rect x="64" y="285" width="165" height="165" rx="82.5" fill="white"/>
<path d="M126.456 331.728H144.147C146.878 331.728 149.092 329.514 149.092 326.783V320.721C149.092 317.991 146.878 315.776 144.147 315.776H141.077C141.077 312.587 138.492 310 135.301 310C132.112 310 129.525 312.585 129.525 315.776H126.455C123.724 315.776 121.51 317.99 121.51 320.721V326.783C121.511 329.515 123.726 331.728 126.456 331.728Z" fill="#FF0000"/>
<path d="M159.817 320.83H152.286V326.67H159.817V320.83Z" fill="#FF0000"/>
<path d="M169.621 329.696C166.75 329.696 164.354 327.659 163.799 324.95C164.4 330.201 168.809 334.294 174.221 334.294C180.043 334.294 202.567 323.752 202.567 323.752C202.567 323.752 180.045 313.21 174.221 313.21C168.808 313.21 164.4 317.303 163.799 322.554C164.354 319.845 166.749 317.81 169.621 317.81C172.903 317.81 175.563 320.47 175.563 323.752C175.565 327.036 172.905 329.696 169.621 329.696Z" fill="#FF0000"/>
<path d="M175.039 364.373H154.661V360.352H115.755V364.373H95.3783C92.6479 364.373 90.4333 366.588 90.4333 369.318V420.055C90.4333 422.785 92.6479 425 95.3783 425H175.039C177.769 425 179.984 422.785 179.984 420.055V369.318C179.984 366.588 177.771 364.373 175.039 364.373ZM136.406 412.986C139.115 412.432 141.152 410.036 141.152 407.164C141.152 403.882 138.492 401.22 135.21 401.22C131.928 401.22 129.267 403.881 129.267 407.164C129.267 410.036 131.305 412.432 134.012 412.986C128.761 412.385 124.668 407.977 124.668 402.564C124.668 396.742 135.21 374.219 135.21 374.219C135.21 374.219 145.752 396.74 145.752 402.564C145.75 407.977 141.657 412.385 136.406 412.986Z" fill="#FF0000"/>
<path d="M115.879 326.676V326.662H118.054V320.832H115.879C112.651 320.832 110.035 318.216 110.035 314.988H104.191V332.52H110.035C110.033 329.292 112.651 326.676 115.879 326.676Z" fill="#FF0000"/>
<path d="M115.755 351.097V354.776H154.661V351.097C154.661 348.367 152.446 346.152 149.716 346.152H141.077V336.625H129.527V346.152H120.7C117.968 346.152 115.755 348.365 115.755 351.097Z" fill="#FF0000"/>
</g>
<defs>
<clipPath id="clip0_4_112">
<rect width="512" height="512" fill="white"/>
</clipPath>
</defs>
</svg>
