<svg xmlns="http://www.w3.org/2000/svg" width="21" height="20" viewBox="0 0 21 20" fill="none">
    <path d="M8.01675 2.36664L3.52508 5.86664C2.77508 6.44997 2.16675 7.69164 2.16675 8.63331V14.8083C2.16675 16.7416 3.74175 18.325 5.67508 18.325H15.3251C17.2584 18.325 18.8334 16.7416 18.8334 14.8166V8.74997C18.8334 7.74164 18.1584 6.44997 17.3334 5.87497L12.1834 2.26664C11.0167 1.44997 9.14175 1.49164 8.01675 2.36664Z" stroke="#777E90" stroke-width="1.2" stroke-linecap="round" stroke-linejoin="round"/>
    <path d="M9.25 15H11.75C13.125 15 14.25 13.875 14.25 12.5V10C14.25 8.625 13.125 7.5 11.75 7.5H9.25C7.875 7.5 6.75 8.625 6.75 10V12.5C6.75 13.875 7.875 15 9.25 15Z" stroke="#777E90" stroke-width="1.2" stroke-linecap="round" stroke-linejoin="round"/>
    <path d="M10.5 7.5V15" stroke="#777E90" stroke-width="1.2" stroke-linecap="round" stroke-linejoin="round"/>
    <path d="M6.75 11.25H14.25" stroke="#777E90" stroke-width="1.2" stroke-linecap="round" stroke-linejoin="round"/>
</svg>