<svg width="512" height="512" viewBox="0 0 512 512" fill="none" xmlns="http://www.w3.org/2000/svg">
<g clip-path="url(#clip0_73_137)">
<path d="M256 512C397.385 512 512 397.385 512 256C512 114.615 397.385 0 256 0C114.615 0 0 114.615 0 256C0 397.385 114.615 512 256 512Z" fill="#432E54"/>
<g clip-path="url(#clip1_73_137)">
<path d="M273.821 150.559L274.379 225.583C274.415 230.391 273.321 234.945 271.349 238.998L232.797 239.285C219.876 239.381 208.579 246.171 202.159 256.333L183.513 256.472L131.234 290.859L132.441 256.852L103.995 257.063C87.3058 257.187 73.6824 243.755 73.5584 227.076L73.0007 152.052C72.8767 135.354 86.3002 121.73 102.988 121.606L243.375 120.563C260.064 120.439 273.697 133.862 273.821 150.559Z" fill="#70E5CF"/>
<path d="M439.325 274.277L439.999 364.975C440.148 385.142 423.905 401.62 403.729 401.77L302.698 402.521L298.67 446.439L272.368 419.97L255.377 402.874L234.012 403.033C213.836 403.183 197.358 386.948 197.208 366.781L196.534 276.083C196.48 268.827 198.546 262.054 202.148 256.336H202.157C208.577 246.174 219.875 239.384 232.795 239.288L402.512 238.027C422.689 237.874 439.176 254.108 439.325 274.277Z" fill="#F95428"/>
<path d="M147.011 256.851L132.437 256.96L131.233 290.859L146.153 281.046L147.011 256.851Z" fill="#35D8B9"/>
<path d="M88.128 227.074L87.5703 152.051C87.4471 135.354 100.87 121.73 117.559 121.606L245.838 120.654C245.026 120.594 244.206 120.558 243.375 120.563L102.989 121.606C86.3002 121.73 72.8767 135.354 73.0007 152.052L73.5584 227.075C73.6824 243.754 87.3066 257.187 103.995 257.062L116.104 256.972C100.559 255.834 88.2463 242.926 88.128 227.074Z" fill="#35D8B9"/>
<path d="M211.779 366.778L211.105 276.08C211.051 268.824 213.117 262.051 216.719 256.333H216.728C223.148 246.171 234.445 239.381 247.366 239.285L405.19 238.112C404.304 238.055 403.413 238.017 402.511 238.024L232.794 239.285C219.873 239.381 208.576 246.171 202.156 256.333H202.147C198.544 262.052 196.479 268.825 196.534 276.08L197.207 366.778C197.357 386.945 213.835 403.181 234.011 403.03L245.902 402.942C226.969 401.711 211.922 386.044 211.779 366.778Z" fill="#E54728"/>
<path d="M286.94 419.968L269.949 402.872L255.486 402.979L272.369 419.968L298.671 446.437L299.902 433.014L286.94 419.968Z" fill="#E54728"/>
<path d="M152.34 172.032C155.962 172.032 158.897 169.096 158.897 165.475C158.897 161.153 160.632 157.143 163.782 154.181C166.931 151.223 171.054 149.742 175.391 150.011C183.027 150.485 189.38 156.838 189.855 164.473C190.213 170.241 187.381 175.694 182.464 178.704C173.304 184.311 167.834 194.001 167.834 204.627C167.834 208.248 170.769 211.183 174.391 211.183C178.013 211.183 180.947 208.248 180.947 204.627C180.947 198.603 184.073 193.093 189.31 189.887C198.378 184.337 203.602 174.287 202.943 163.66C202.051 149.308 190.556 137.813 176.204 136.922C168.215 136.428 160.616 139.161 154.802 144.624C149.07 150.011 145.784 157.61 145.784 165.474C145.783 169.096 148.719 172.032 152.34 172.032Z" fill="#4D4D4D"/>
<path d="M317.99 343.831C322.193 343.831 325.599 340.424 325.599 336.222V271.816C325.599 267.614 322.192 264.207 317.99 264.207C313.787 264.207 310.38 267.614 310.38 271.816V336.222C310.38 340.424 313.786 343.831 317.99 343.831Z" fill="#4D4D4D"/>
<path d="M317.991 377.927C322.194 377.927 325.601 374.52 325.601 370.317C325.601 366.114 322.194 362.708 317.991 362.708C313.789 362.708 310.382 366.114 310.382 370.317C310.382 374.52 313.789 377.927 317.991 377.927Z" fill="#4D4D4D"/>
<path d="M174.383 235.486C178.004 235.486 180.94 232.551 180.94 228.93C180.94 225.308 178.004 222.373 174.383 222.373C170.762 222.373 167.827 225.308 167.827 228.93C167.827 232.551 170.762 235.486 174.383 235.486Z" fill="#4D4D4D"/>
</g>
</g>
<defs>
<clipPath id="clip0_73_137">
<rect width="512" height="512" fill="white"/>
</clipPath>
<clipPath id="clip1_73_137">
<rect width="367" height="367" fill="white" transform="translate(73 100)"/>
</clipPath>
</defs>
</svg>
