<svg width="512" height="512" viewBox="0 0 512 512" fill="none" xmlns="http://www.w3.org/2000/svg">
<g clip-path="url(#clip0_76_297)">
<path d="M256 512C397.385 512 512 397.385 512 256C512 114.615 397.385 0 256 0C114.615 0 0 114.615 0 256C0 397.385 114.615 512 256 512Z" fill="#1877F2"/>
<path d="M289.833 149H340.583C345.07 149 349.373 147.121 352.545 143.777C355.718 140.432 357.5 135.896 357.5 131.167V95.5C357.5 90.7703 355.718 86.2343 352.545 82.8899C349.373 79.5455 345.07 77.6667 340.583 77.6667H289.833C267.4 77.6667 245.886 87.061 230.024 103.783C214.161 120.505 205.25 143.185 205.25 166.833V220.333H171.417C166.93 220.333 162.627 222.212 159.455 225.557C156.282 228.901 154.5 233.437 154.5 238.167V273.833C154.5 278.563 156.282 283.099 159.455 286.443C162.627 289.788 166.93 291.667 171.417 291.667H205.25V416.5C205.25 421.23 207.032 425.766 210.205 429.11C213.377 432.454 217.68 434.333 222.167 434.333H256C260.487 434.333 264.789 432.454 267.962 429.11C271.134 425.766 272.917 421.23 272.917 416.5V291.667H310.472C314.336 291.785 318.122 290.505 321.2 288.039C324.278 285.573 326.462 282.07 327.388 278.113L335.847 242.447C336.474 239.776 336.507 236.989 335.943 234.303C335.379 231.617 334.233 229.106 332.594 226.964C330.956 224.823 328.87 223.11 326.5 221.96C324.129 220.809 321.538 220.253 318.93 220.333H272.917V166.833C272.917 162.104 274.699 157.568 277.871 154.223C281.044 150.879 285.347 149 289.833 149Z" fill="white"/>
</g>
<defs>
<clipPath id="clip0_76_297">
<rect width="512" height="512" fill="white"/>
</clipPath>
</defs>
</svg>
