<svg width="512" height="512" viewBox="0 0 512 512" fill="none" xmlns="http://www.w3.org/2000/svg">
<g clip-path="url(#clip0_73_81)">
<path d="M256 512C397.385 512 512 397.385 512 256C512 114.615 397.385 0 256 0C114.615 0 0 114.615 0 256C0 397.385 114.615 512 256 512Z" fill="#432E54"/>
<path d="M273.082 345.7H238.939V385.151H273.082V345.7Z" fill="#4D4C78"/>
<path d="M205.462 136.593H83.6882C81.3459 136.593 79.0995 137.576 77.4432 139.325C75.7869 141.075 74.8565 143.448 74.8565 145.922V375.795C74.8537 377.022 75.0802 378.238 75.5228 379.372C75.9654 380.506 76.6155 381.537 77.4359 382.406C78.2562 383.275 79.2308 383.964 80.3036 384.434C81.3765 384.904 82.5266 385.146 83.6882 385.146H238.939V362.866C238.939 362.492 238.918 362.118 238.877 361.746L214.231 144.824C213.977 142.556 212.944 140.465 211.327 138.948C209.711 137.431 207.624 136.593 205.462 136.593Z" fill="#67BAEB"/>
<path d="M317.074 143.99L273.269 361.351C273.137 361.986 273.067 362.633 273.061 363.283V385.146H428.312C429.473 385.146 430.624 384.904 431.696 384.434C432.769 383.964 433.744 383.275 434.564 382.406C435.385 381.538 436.035 380.506 436.477 379.372C436.92 378.238 437.146 377.022 437.144 375.795V145.922C437.144 143.448 436.213 141.075 434.557 139.325C432.901 137.576 430.654 136.593 428.312 136.593H325.719C323.692 136.588 321.726 137.32 320.151 138.668C318.576 140.015 317.49 141.895 317.074 143.99Z" fill="#67BAEB"/>
<path d="M318.549 136.593L273.061 362.295V345.7H238.939V362.295L213.296 136.593H89.9016V378.978L98.7957 375.115C146.99 354.166 200.959 353.569 249.558 373.446L256 376.19L262.442 373.446C311.041 353.569 365.01 354.166 413.204 375.115L422.099 378.978V136.593H318.549Z" fill="#46A1F8"/>
<path d="M256 368.815C204.859 346.6 147.485 346.6 96.3435 368.815V117.319C147.481 95.0836 204.863 95.0836 256 117.319V368.815Z" fill="#C8C2E9"/>
<path d="M378.48 404.946L367.612 395.376L356.765 404.946C353.086 408.195 347.476 405.429 347.476 400.359V335.361H387.748V400.359C387.748 405.429 382.158 408.195 378.48 404.946Z" fill="#F4C23F"/>
<path d="M347.476 359.31C361.082 360.114 374.576 362.38 387.748 366.071V335.361H347.476V359.31Z" fill="#F4A93F"/>
<path d="M256 368.815C307.141 346.6 364.515 346.6 415.656 368.815V117.319C364.519 95.0836 307.137 95.0836 256 117.319V368.815Z" fill="#C8C2E9"/>
<path d="M109.643 129.898V112.095C105.175 113.676 100.728 115.41 96.3435 117.32V368.815C147.815 348.443 204.528 348.443 256 368.815V342.188L254.566 341.683C167.974 311.807 109.643 226.11 109.643 129.898Z" fill="#B9B1E0"/>
<path d="M269.3 129.898V112.095C264.811 113.676 260.378 115.417 256 117.32V368.815C307.472 348.443 364.185 348.443 415.656 368.815V342.188L414.223 341.683C327.61 311.807 269.3 226.11 269.3 129.898Z" fill="#B9B1E0"/>
<path d="M122.652 168.466C121.673 168.47 120.724 168.109 119.973 167.446C119.221 166.784 118.715 165.862 118.544 164.844C118.372 163.826 118.547 162.777 119.036 161.882C119.525 160.986 120.298 160.301 121.218 159.949C155.883 146.456 193.967 146.456 228.632 159.949C229.145 160.148 229.616 160.451 230.018 160.843C230.42 161.234 230.745 161.705 230.975 162.228C231.204 162.752 231.334 163.319 231.356 163.896C231.379 164.472 231.293 165.048 231.105 165.59C230.917 166.132 230.629 166.63 230.259 167.054C229.889 167.479 229.443 167.822 228.947 168.065C228.451 168.307 227.915 168.444 227.369 168.468C226.823 168.492 226.277 168.401 225.764 168.202C192.953 155.413 156.897 155.413 124.085 168.202C123.625 168.375 123.14 168.464 122.652 168.466Z" fill="#B9B1E0"/>
<path d="M122.652 215.002C121.673 215.006 120.724 214.645 119.973 213.983C119.221 213.32 118.715 212.399 118.544 211.381C118.372 210.363 118.547 209.314 119.036 208.418C119.525 207.523 120.298 206.838 121.218 206.485C155.878 192.963 193.971 192.963 228.632 206.485C229.167 206.665 229.663 206.957 230.088 207.344C230.514 207.731 230.861 208.206 231.108 208.739C231.355 209.272 231.497 209.852 231.526 210.444C231.555 211.037 231.47 211.63 231.276 212.186C231.082 212.743 230.783 213.253 230.398 213.684C230.012 214.116 229.548 214.46 229.032 214.696C228.517 214.933 227.962 215.057 227.4 215.06C226.839 215.064 226.282 214.947 225.764 214.717C192.953 201.927 156.897 201.927 124.085 214.717C123.629 214.907 123.142 215.004 122.652 215.002Z" fill="#B9B1E0"/>
<path d="M122.652 261.517C121.683 261.507 120.748 261.14 120.008 260.479C119.268 259.818 118.77 258.905 118.6 257.898C118.43 256.89 118.598 255.851 119.076 254.961C119.554 254.071 120.312 253.385 121.218 253.022C155.878 239.5 193.971 239.5 228.632 253.022C229.168 253.201 229.663 253.493 230.089 253.881C230.514 254.268 230.861 254.742 231.108 255.275C231.355 255.808 231.497 256.388 231.526 256.981C231.555 257.573 231.47 258.166 231.276 258.723C231.082 259.28 230.783 259.789 230.398 260.221C230.012 260.652 229.548 260.997 229.032 261.233C228.517 261.47 227.962 261.593 227.4 261.597C226.839 261.6 226.282 261.484 225.764 261.254C192.953 248.464 156.897 248.464 124.086 261.254C123.625 261.426 123.14 261.515 122.652 261.517Z" fill="#B9B1E0"/>
<path d="M122.652 308.054C121.673 308.058 120.724 307.697 119.973 307.034C119.221 306.372 118.715 305.45 118.544 304.432C118.372 303.414 118.547 302.365 119.036 301.469C119.525 300.574 120.298 299.889 121.218 299.537C155.883 286.043 193.967 286.043 228.632 299.537C229.145 299.735 229.616 300.039 230.018 300.43C230.42 300.821 230.745 301.292 230.975 301.816C231.204 302.34 231.334 302.907 231.356 303.483C231.379 304.06 231.293 304.636 231.105 305.178C230.917 305.72 230.629 306.217 230.259 306.642C229.889 307.067 229.443 307.41 228.947 307.653C228.451 307.895 227.915 308.032 227.369 308.056C226.823 308.079 226.277 307.989 225.764 307.79C192.953 295 156.897 295 124.085 307.79C123.625 307.963 123.14 308.052 122.652 308.054Z" fill="#B9B1E0"/>
<path d="M386.855 168.466C386.366 168.464 385.881 168.375 385.421 168.202C352.609 155.413 316.554 155.413 283.742 168.202C282.706 168.604 281.561 168.555 280.56 168.065C279.558 167.575 278.782 166.685 278.401 165.59C278.021 164.496 278.068 163.286 278.532 162.228C278.996 161.171 279.838 160.35 280.874 159.949C315.54 146.456 353.623 146.456 388.289 159.949C389.209 160.301 389.981 160.986 390.471 161.882C390.96 162.777 391.134 163.826 390.963 164.844C390.791 165.862 390.285 166.784 389.534 167.446C388.782 168.109 387.834 168.47 386.855 168.466Z" fill="#B9B1E0"/>
<path d="M386.855 215.002C386.364 215.004 385.877 214.907 385.421 214.717C352.609 201.927 316.554 201.927 283.742 214.717C283.224 214.947 282.668 215.064 282.106 215.06C281.544 215.057 280.989 214.933 280.474 214.696C279.959 214.46 279.494 214.116 279.109 213.684C278.723 213.253 278.424 212.743 278.23 212.186C278.036 211.63 277.951 211.037 277.98 210.444C278.009 209.852 278.151 209.272 278.398 208.739C278.646 208.206 278.992 207.731 279.418 207.344C279.843 206.957 280.339 206.665 280.874 206.485C315.535 192.963 353.628 192.963 388.289 206.485C389.209 206.838 389.981 207.523 390.471 208.418C390.96 209.314 391.134 210.363 390.963 211.381C390.791 212.399 390.285 213.32 389.534 213.983C388.782 214.645 387.834 215.006 386.855 215.002Z" fill="#B9B1E0"/>
<path d="M386.855 261.517C386.366 261.515 385.881 261.426 385.421 261.254C352.609 248.464 316.554 248.464 283.742 261.254C283.224 261.484 282.668 261.6 282.106 261.597C281.544 261.593 280.989 261.47 280.474 261.233C279.959 260.997 279.494 260.652 279.109 260.221C278.723 259.789 278.424 259.28 278.23 258.723C278.036 258.166 277.951 257.573 277.98 256.981C278.009 256.388 278.151 255.808 278.398 255.275C278.646 254.742 278.992 254.268 279.418 253.881C279.843 253.493 280.339 253.201 280.874 253.022C315.535 239.5 353.628 239.5 388.289 253.022C389.195 253.385 389.952 254.071 390.43 254.961C390.908 255.851 391.077 256.89 390.907 257.898C390.737 258.905 390.239 259.818 389.499 260.479C388.759 261.14 387.824 261.507 386.855 261.517Z" fill="#B9B1E0"/>
<path d="M386.855 308.054C386.366 308.052 385.881 307.963 385.421 307.79C352.609 295 316.554 295 283.742 307.79C282.706 308.192 281.561 308.142 280.56 307.653C279.558 307.163 278.782 306.273 278.401 305.178C278.021 304.084 278.068 302.874 278.532 301.816C278.996 300.758 279.838 299.938 280.874 299.537C315.54 286.043 353.623 286.043 388.289 299.537C389.209 299.889 389.981 300.574 390.471 301.469C390.96 302.365 391.134 303.414 390.963 304.432C390.791 305.45 390.285 306.372 389.534 307.034C388.782 307.697 387.834 308.058 386.855 308.054Z" fill="#B9B1E0"/>
<path d="M389.141 164.734C388.652 164.732 388.167 164.643 387.707 164.471C354.895 151.681 318.839 151.681 286.028 164.471C284.992 164.872 283.847 164.823 282.845 164.333C281.844 163.843 281.067 162.953 280.687 161.859C280.307 160.764 280.354 159.555 280.818 158.497C281.281 157.439 282.124 156.619 283.16 156.217C317.826 142.724 355.909 142.724 390.574 156.217C391.494 156.57 392.267 157.254 392.756 158.15C393.246 159.045 393.42 160.095 393.248 161.113C393.077 162.131 392.571 163.052 391.82 163.715C391.068 164.377 390.119 164.738 389.141 164.734Z" fill="#DFDAFD"/>
<path d="M389.141 211.271C388.65 211.272 388.163 211.175 387.707 210.985C354.895 198.196 318.84 198.196 286.028 210.985C285.51 211.215 284.954 211.332 284.392 211.329C283.83 211.325 283.275 211.201 282.76 210.965C282.245 210.728 281.78 210.384 281.395 209.952C281.009 209.521 280.71 209.012 280.516 208.455C280.322 207.898 280.237 207.305 280.266 206.713C280.295 206.12 280.437 205.54 280.684 205.007C280.931 204.474 281.278 204 281.704 203.613C282.129 203.225 282.625 202.933 283.16 202.754C317.821 189.232 355.914 189.232 390.574 202.754C391.495 203.106 392.267 203.791 392.756 204.686C393.246 205.582 393.42 206.631 393.249 207.649C393.077 208.667 392.571 209.589 391.82 210.251C391.068 210.914 390.119 211.275 389.141 211.271Z" fill="#DFDAFD"/>
<path d="M389.141 257.785C388.652 257.783 388.167 257.694 387.707 257.522C354.895 244.732 318.84 244.732 286.028 257.522C285.51 257.752 284.954 257.869 284.392 257.865C283.83 257.862 283.275 257.738 282.76 257.501C282.245 257.265 281.78 256.92 281.395 256.489C281.009 256.058 280.71 255.548 280.516 254.991C280.322 254.434 280.237 253.842 280.266 253.249C280.295 252.657 280.437 252.076 280.684 251.544C280.931 251.011 281.278 250.536 281.704 250.149C282.129 249.762 282.625 249.47 283.16 249.29C317.821 235.768 355.914 235.768 390.574 249.29C391.48 249.653 392.238 250.339 392.716 251.229C393.194 252.12 393.363 253.158 393.193 254.166C393.023 255.174 392.524 256.087 391.785 256.748C391.045 257.409 390.11 257.776 389.141 257.785Z" fill="#DFDAFD"/>
<path d="M389.141 304.322C388.652 304.32 388.167 304.231 387.707 304.058C354.895 291.269 318.839 291.269 286.028 304.058C285.515 304.257 284.97 304.348 284.424 304.324C283.878 304.3 283.341 304.163 282.845 303.921C282.349 303.678 281.904 303.335 281.533 302.91C281.163 302.486 280.875 301.988 280.687 301.446C280.499 300.904 280.413 300.329 280.436 299.752C280.458 299.175 280.588 298.608 280.818 298.085C281.047 297.561 281.372 297.09 281.774 296.699C282.176 296.307 282.647 296.004 283.16 295.805C317.826 282.312 355.909 282.312 390.574 295.805C391.494 296.158 392.267 296.842 392.756 297.738C393.246 298.633 393.42 299.682 393.248 300.7C393.077 301.718 392.571 302.64 391.82 303.302C391.068 303.965 390.119 304.326 389.141 304.322Z" fill="#DFDAFD"/>
<path d="M124.937 164.734C123.959 164.738 123.01 164.377 122.258 163.715C121.507 163.052 121.001 162.131 120.83 161.113C120.658 160.095 120.832 159.045 121.322 158.15C121.811 157.254 122.584 156.57 123.504 156.217C158.169 142.724 196.252 142.724 230.918 156.217C231.431 156.416 231.902 156.72 232.304 157.111C232.706 157.502 233.031 157.973 233.26 158.497C233.49 159.021 233.62 159.587 233.642 160.164C233.665 160.741 233.579 161.317 233.391 161.859C233.203 162.4 232.915 162.898 232.545 163.323C232.174 163.747 231.729 164.09 231.233 164.333C230.737 164.576 230.2 164.713 229.654 164.736C229.108 164.76 228.563 164.67 228.05 164.471C195.239 151.681 159.183 151.681 126.371 164.471C125.911 164.643 125.426 164.732 124.937 164.734Z" fill="#DFDAFD"/>
<path d="M124.937 211.271C123.959 211.275 123.01 210.914 122.258 210.251C121.507 209.589 121.001 208.667 120.83 207.649C120.658 206.631 120.832 205.582 121.322 204.686C121.811 203.791 122.584 203.106 123.504 202.754C158.164 189.232 196.257 189.232 230.918 202.754C231.453 202.933 231.949 203.225 232.374 203.613C232.8 204 233.147 204.474 233.394 205.007C233.641 205.54 233.783 206.12 233.812 206.713C233.841 207.305 233.756 207.898 233.562 208.455C233.368 209.012 233.069 209.521 232.683 209.952C232.298 210.384 231.833 210.728 231.318 210.965C230.803 211.201 230.248 211.325 229.686 211.329C229.125 211.332 228.568 211.215 228.05 210.985C195.239 198.196 159.183 198.196 126.371 210.985C125.915 211.175 125.428 211.272 124.937 211.271Z" fill="#DFDAFD"/>
<path d="M124.937 257.785C123.969 257.776 123.033 257.409 122.293 256.748C121.554 256.087 121.056 255.174 120.885 254.166C120.715 253.158 120.884 252.12 121.362 251.229C121.84 250.339 122.598 249.653 123.504 249.29C158.164 235.768 196.257 235.768 230.918 249.29C231.453 249.47 231.949 249.762 232.374 250.149C232.8 250.536 233.147 251.011 233.394 251.544C233.641 252.076 233.783 252.657 233.812 253.249C233.841 253.842 233.756 254.434 233.562 254.991C233.368 255.548 233.069 256.058 232.683 256.489C232.298 256.92 231.833 257.265 231.318 257.501C230.803 257.738 230.248 257.862 229.686 257.865C229.125 257.869 228.568 257.752 228.05 257.522C195.239 244.732 159.183 244.732 126.371 257.522C125.911 257.694 125.426 257.783 124.937 257.785Z" fill="#DFDAFD"/>
<path d="M124.937 304.322C123.959 304.326 123.01 303.965 122.258 303.302C121.507 302.64 121.001 301.718 120.83 300.7C120.658 299.682 120.832 298.633 121.322 297.738C121.811 296.842 122.584 296.158 123.504 295.805C158.169 282.312 196.252 282.312 230.918 295.805C231.431 296.004 231.902 296.307 232.304 296.699C232.706 297.09 233.031 297.561 233.26 298.085C233.49 298.608 233.62 299.175 233.642 299.752C233.665 300.329 233.579 300.904 233.391 301.446C233.203 301.988 232.915 302.486 232.545 302.91C232.174 303.335 231.729 303.678 231.233 303.921C230.737 304.163 230.2 304.3 229.654 304.324C229.108 304.348 228.563 304.257 228.05 304.058C195.239 291.269 159.183 291.269 126.371 304.058C125.911 304.231 125.426 304.32 124.937 304.322Z" fill="#DFDAFD"/>
<path d="M388.101 166.271C387.613 166.269 387.128 166.18 386.668 166.007C353.856 153.218 317.8 153.218 284.989 166.007C284.476 166.206 283.931 166.296 283.385 166.273C282.838 166.249 282.302 166.112 281.806 165.87C281.31 165.627 280.865 165.284 280.494 164.859C280.124 164.435 279.836 163.937 279.648 163.395C279.46 162.853 279.374 162.277 279.397 161.701C279.419 161.124 279.549 160.557 279.778 160.033C280.008 159.51 280.333 159.039 280.735 158.647C281.137 158.256 281.608 157.953 282.121 157.754C316.787 144.261 354.87 144.261 389.535 157.754C390.455 158.106 391.228 158.791 391.717 159.686C392.206 160.582 392.381 161.631 392.209 162.649C392.038 163.667 391.532 164.589 390.78 165.251C390.029 165.914 389.08 166.275 388.101 166.271Z" fill="#4D4C78"/>
<path d="M388.102 212.807C387.611 212.809 387.124 212.712 386.668 212.522C353.856 199.732 317.8 199.732 284.989 212.522C284.471 212.752 283.914 212.869 283.353 212.865C282.791 212.862 282.236 212.738 281.721 212.501C281.206 212.265 280.741 211.92 280.356 211.489C279.97 211.058 279.671 210.548 279.477 209.991C279.283 209.434 279.198 208.842 279.227 208.249C279.256 207.657 279.398 207.076 279.645 206.544C279.892 206.011 280.239 205.536 280.665 205.149C281.09 204.762 281.586 204.47 282.121 204.29C316.782 190.768 354.875 190.768 389.535 204.29C390.455 204.643 391.228 205.327 391.717 206.223C392.207 207.119 392.381 208.168 392.209 209.186C392.038 210.204 391.532 211.125 390.781 211.788C390.029 212.45 389.08 212.811 388.102 212.807Z" fill="#4D4C78"/>
<path d="M388.102 259.322C387.613 259.32 387.128 259.231 386.668 259.059C353.856 246.269 317.8 246.269 284.989 259.059C284.471 259.289 283.914 259.405 283.353 259.402C282.791 259.398 282.236 259.275 281.721 259.038C281.206 258.801 280.741 258.457 280.356 258.026C279.97 257.594 279.671 257.085 279.477 256.528C279.283 255.971 279.198 255.378 279.227 254.786C279.256 254.193 279.398 253.613 279.645 253.08C279.892 252.547 280.239 252.073 280.665 251.686C281.09 251.298 281.586 251.006 282.121 250.827C316.782 237.305 354.875 237.305 389.535 250.827C390.441 251.19 391.199 251.876 391.677 252.766C392.155 253.656 392.324 254.695 392.154 255.703C391.983 256.71 391.485 257.623 390.746 258.284C390.006 258.945 389.07 259.312 388.102 259.322Z" fill="#4D4C78"/>
<path d="M388.101 305.859C387.613 305.857 387.128 305.767 386.668 305.595C353.856 292.805 317.8 292.805 284.989 305.595C284.476 305.794 283.931 305.884 283.385 305.861C282.838 305.837 282.302 305.7 281.806 305.457C281.31 305.215 280.865 304.871 280.494 304.447C280.124 304.022 279.836 303.525 279.648 302.983C279.46 302.441 279.374 301.865 279.397 301.288C279.419 300.712 279.549 300.145 279.778 299.621C280.008 299.097 280.333 298.626 280.735 298.235C281.137 297.844 281.608 297.54 282.121 297.341C316.787 283.848 354.87 283.848 389.535 297.341C390.455 297.694 391.228 298.379 391.717 299.274C392.206 300.17 392.381 301.219 392.209 302.237C392.038 303.255 391.532 304.176 390.78 304.839C390.029 305.501 389.08 305.863 388.101 305.859Z" fill="#4D4C78"/>
<path d="M415.636 139.315C415.636 134.368 411.84 130.359 407.157 130.359C402.475 130.359 398.679 134.368 398.679 139.315V241.061C398.679 246.007 402.475 250.017 407.157 250.017C411.84 250.017 415.636 246.007 415.636 241.061V139.315Z" fill="#DFDAFD"/>
<path d="M256 149.237C256 145.721 253.302 142.871 249.974 142.871C246.645 142.871 243.947 145.721 243.947 149.237V213.933C243.947 217.449 246.645 220.299 249.974 220.299C253.302 220.299 256 217.449 256 213.933V149.237Z" fill="#DFDAFD"/>
<path d="M123.898 166.271C122.92 166.275 121.971 165.914 121.219 165.251C120.468 164.589 119.962 163.667 119.791 162.649C119.619 161.631 119.793 160.582 120.283 159.686C120.772 158.791 121.544 158.106 122.465 157.754C157.13 144.261 195.213 144.261 229.879 157.754C230.392 157.953 230.863 158.256 231.265 158.647C231.667 159.039 231.992 159.51 232.221 160.033C232.451 160.557 232.581 161.124 232.603 161.701C232.625 162.277 232.54 162.853 232.352 163.395C232.163 163.937 231.876 164.435 231.506 164.859C231.135 165.284 230.69 165.627 230.194 165.87C229.698 166.112 229.161 166.249 228.615 166.273C228.069 166.296 227.524 166.206 227.011 166.007C194.2 153.218 158.144 153.218 125.332 166.007C124.872 166.18 124.387 166.269 123.898 166.271Z" fill="#4D4C78"/>
<path d="M123.898 212.807C122.92 212.811 121.971 212.45 121.219 211.788C120.468 211.125 119.962 210.204 119.791 209.186C119.619 208.168 119.793 207.119 120.283 206.223C120.772 205.327 121.544 204.643 122.465 204.29C157.125 190.768 195.218 190.768 229.879 204.29C230.414 204.47 230.91 204.762 231.335 205.149C231.761 205.536 232.108 206.011 232.355 206.544C232.602 207.076 232.744 207.657 232.773 208.249C232.802 208.842 232.717 209.434 232.523 209.991C232.329 210.548 232.03 211.058 231.644 211.489C231.259 211.92 230.794 212.265 230.279 212.501C229.764 212.738 229.209 212.862 228.647 212.865C228.086 212.869 227.529 212.752 227.011 212.522C194.2 199.732 158.144 199.732 125.332 212.522C124.876 212.712 124.389 212.809 123.898 212.807Z" fill="#4D4C78"/>
<path d="M123.898 259.322C122.93 259.312 121.994 258.945 121.254 258.284C120.515 257.623 120.017 256.71 119.847 255.703C119.676 254.695 119.845 253.656 120.323 252.766C120.801 251.876 121.559 251.19 122.465 250.827C157.125 237.305 195.218 237.305 229.879 250.827C230.414 251.006 230.91 251.298 231.335 251.686C231.761 252.073 232.108 252.547 232.355 253.08C232.602 253.613 232.744 254.193 232.773 254.786C232.802 255.378 232.717 255.971 232.523 256.528C232.329 257.085 232.03 257.594 231.644 258.026C231.259 258.457 230.794 258.801 230.279 259.038C229.764 259.275 229.209 259.398 228.647 259.402C228.086 259.405 227.529 259.289 227.011 259.059C194.2 246.269 158.144 246.269 125.332 259.059C124.872 259.231 124.387 259.32 123.898 259.322Z" fill="#4D4C78"/>
<path d="M123.898 305.859C122.92 305.863 121.971 305.501 121.219 304.839C120.468 304.176 119.962 303.255 119.791 302.237C119.619 301.219 119.793 300.17 120.283 299.274C120.772 298.379 121.544 297.694 122.465 297.341C157.13 283.848 195.213 283.848 229.879 297.341C230.392 297.54 230.863 297.844 231.265 298.235C231.667 298.626 231.992 299.097 232.221 299.621C232.451 300.145 232.581 300.712 232.603 301.288C232.625 301.865 232.54 302.441 232.352 302.983C232.163 303.525 231.876 304.022 231.506 304.447C231.135 304.871 230.69 305.215 230.194 305.457C229.698 305.7 229.161 305.837 228.615 305.861C228.069 305.884 227.524 305.794 227.011 305.595C194.2 292.805 158.144 292.805 125.332 305.595C124.872 305.767 124.387 305.857 123.898 305.859Z" fill="#4D4C78"/>
<path d="M387.748 381.568C387.748 379.168 385.911 377.222 383.644 377.222C381.378 377.222 379.54 379.168 379.54 381.568V396.008C379.54 398.408 381.378 400.354 383.644 400.354C385.911 400.354 387.748 398.408 387.748 396.008V381.568Z" fill="#FAD564"/>
<path d="M437.143 168.927C437.143 166.611 435.366 164.734 433.174 164.734C430.982 164.734 429.205 166.611 429.205 168.927V259.269C429.205 261.585 430.982 263.462 433.174 263.462C435.366 263.462 437.143 261.585 437.143 259.269V168.927Z" fill="#83D0FB"/>
</g>
<defs>
<clipPath id="clip0_73_81">
<rect width="512" height="512" fill="white"/>
</clipPath>
</defs>
</svg>
