<svg width="1108" height="1108" viewBox="0 0 1108 1108" fill="none" xmlns="http://www.w3.org/2000/svg">
<path d="M558.869 810.574L854.509 659L861 680.232L847.428 710.311L823.824 729.184L827.364 866.604L796.089 921.454L665.087 996.356L577.753 1040H534.085L320.469 921.454L295.685 881.348L299.226 761.033L289.194 725.646L265 697.336V659L558.869 810.574Z" fill="url(#paint0_linear_33_839)"/>
<path d="M386.299 777.523L362.794 764V812.8L348.103 808.684L334 810.448L362.794 861.6L334 873.359L348.103 904.52L372.196 918.631H396.876L386.299 957.436L486.196 1008L474.443 957.436L497.361 948.617L505 926.863L451.526 886.294L464.454 881.002L479.732 854.545L492.072 826.911L470.33 816.916L451.526 838.082L430.959 846.313V826.911L415.68 788.694L396.876 805.157L386.299 777.523Z" fill="url(#paint1_linear_33_839)"/>
<path d="M641.924 863.314L636.021 830.993L759.979 764V792.795L754.076 813.363L783 808.662L780.639 833.343L759.979 860.963L780.639 871.541L783 891.521L754.076 919.728L730.465 917.378V959.689L693.278 976.143L638.972 1002L641.924 955.575L630.118 950.874L613 934.42L623.035 924.43L669.667 887.407L641.924 863.314Z" fill="url(#paint2_linear_33_839)"/>
<path d="M622.706 889.157L649.176 885L668 889.157L631.529 918.259L613.294 922.416L592.706 918.259L622.706 889.157Z" fill="#1D5C3C"/>
<path d="M583.882 977.056L626.235 955.081L649.176 958.645L636.235 990.122L622.706 1002L578 987.152L583.882 977.056Z" fill="#1D5C3C"/>
<path d="M819 761.419L559.063 897L298.537 759.051L295 747.209L305.02 733L559.063 861.477L819 733V761.419Z" fill="black" fill-opacity="0.3"/>
<path d="M300.742 667.422L561.638 529.139L604.63 547.381C539.259 579.644 466.349 652.703 452.686 751.041L300.742 667.422Z" fill="url(#paint3_linear_33_839)"/>
<path d="M300.742 667.422L561.638 529.139L604.63 547.381C539.259 579.644 466.349 652.703 452.686 751.041L300.742 667.422Z" fill="url(#paint4_linear_33_839)" fill-opacity="0.5"/>
<path d="M819 679.779L561.638 811V789.228L604.63 701.551L724.771 656.83L772.475 635.058L806.044 656.83L819 679.779Z" fill="url(#paint5_linear_33_839)"/>
<path d="M819 679.779L561.638 811V789.228L604.63 701.551L724.771 656.83L772.475 635.058L806.044 656.83L819 679.779Z" fill="url(#paint6_linear_33_839)" fill-opacity="0.5"/>
<path d="M170 482.653V467.354L184.134 465L193.557 472.061V486.184L170 482.653Z" fill="url(#paint7_linear_33_839)"/>
<path d="M170 482.653V467.354L184.134 465L193.557 472.061V486.184L170 482.653Z" fill="url(#paint8_linear_33_839)" fill-opacity="0.5"/>
<path d="M563.064 809L457 754.104V731.083L494.711 639L545.976 582.333L583.098 559.903L653.776 528.435C658.373 526.388 659.961 520.656 657.073 516.535L643.2 496.743L646.736 478.444C713.674 426.028 730.801 475.887 730.998 507.368H747.496L761.049 447.75L825.276 384L866.523 437.715L880.665 404.66L908.949 390.493L939 404.66L915.43 461.917L866.523 474.312L860.042 513.271L802.885 598.861L735.122 647.854L652.039 675.597L588.99 719.278L563.064 809Z" fill="url(#paint9_linear_33_839)"/>
<path d="M291.99 672L269 654.902V643.7L562.563 491L642.733 528.143L605.006 545.831L558.437 526.375L291.99 672Z" fill="#C7F8C8"/>
<path d="M799.536 608.326L773.009 633.678L829.01 670.231L852 659.029V643.7L799.536 608.326Z" fill="#C7F8C8"/>
<path d="M273.761 426.572H225.953C174.958 402.075 177.555 339.811 185.228 311.742L246.611 325.875L269.039 370.04L273.761 426.572Z" fill="url(#paint10_linear_33_839)"/>
<path d="M337.505 435.994C393.576 435.994 368.787 380.051 341.046 370.04L315.667 380.051C298.747 407.728 296.274 435.994 337.505 435.994Z" fill="url(#paint11_linear_33_839)"/>
<path d="M379.411 533.158C412.07 538.261 473.256 522.087 456.73 416.561C418.562 415.972 349.664 438.467 379.411 533.158Z" fill="url(#paint12_linear_33_839)"/>
<path d="M289.107 463.082L240.118 468.971C238.348 480.552 243.542 510.545 278.483 537.869C353.087 565.663 361.507 539.243 356.392 522.558L289.107 463.082Z" fill="url(#paint13_linear_33_839)"/>
<path d="M257.235 576.734L243.07 605C174.132 593.223 177.358 556.909 187.589 540.224C231.501 535.042 252.316 562.405 257.235 576.734Z" fill="url(#paint14_linear_33_839)"/>
<path d="M756.563 407.139C785.287 393.988 827.153 363.445 764.826 346.485C738.069 353.159 698.957 374.633 756.563 407.139Z" fill="url(#paint15_linear_33_839)"/>
<path d="M843.325 351.196C869.492 333.53 906.125 283.358 843.325 224C815.978 243.825 777.693 297.02 843.325 351.196Z" fill="url(#paint16_linear_33_839)"/>
<path d="M324.98 519.851C332.086 520.497 343.251 519.851 343.251 519.851C372.956 535.901 358.379 546.994 347.377 550.534L260.147 530.472L238.929 477.366C238.929 477.366 251.853 483.855 260.147 487.988C285.397 500.57 296.89 517.296 324.98 519.851Z" fill="url(#paint17_linear_33_839)"/>
<path d="M225.373 580.037C233.833 586.927 245.412 599.509 245.412 599.509C196.374 611.311 186.08 568.236 187.062 545.224C187.062 545.224 195.05 557.63 201.797 564.106C209.815 571.801 216.756 573.019 225.373 580.037Z" fill="url(#paint18_linear_33_839)"/>
<path d="M254.253 378.236C259.767 381.258 268.987 384.727 268.987 384.727C280.775 429.099 267.219 429.178 258.968 423.671L220.657 346.963C220.657 346.963 238.538 369.624 254.253 378.236Z" fill="url(#paint19_linear_33_839)"/>
<path d="M343.251 404.789C331.739 410.142 310.834 407.149 310.834 407.149C339.125 459.075 375.078 414.82 362.701 387.677C362.701 387.677 352.422 400.525 343.251 404.789Z" fill="url(#paint20_linear_33_839)"/>
<path d="M396.296 500.379C391.1 505.138 375.667 506.28 375.667 506.28L382.74 525.752L424.587 523.981L461.719 477.366L445.216 416.59C445.216 416.59 423.997 475.006 396.296 500.379Z" fill="url(#paint21_linear_33_839)"/>
<path d="M753.467 384.727C749.193 390.893 747.573 403.019 747.573 403.019L758.772 407.149L784.705 394.168L788.831 375.876L774.096 359.354C774.096 359.354 771.57 368.232 768.202 372.925C763.903 378.917 757.669 378.666 753.467 384.727Z" fill="url(#paint22_linear_33_839)"/>
<path d="M887.849 449.043C879.8 453.851 866.041 459.075 866.041 459.075L903.173 469.696L935 435.472L930.285 403.609C930.285 403.609 908.685 436.596 887.849 449.043Z" fill="url(#paint23_linear_33_839)"/>
<path d="M901.405 574.137C890.93 582.987 878.418 600.689 878.418 600.689V601.87L906.709 606L931.464 572.957V546.994C931.464 546.994 926.775 555.462 922.623 559.975C915.876 567.309 909.015 567.707 901.405 574.137Z" fill="url(#paint24_linear_33_839)"/>
<path d="M842.466 226L843.644 344.012L870.167 334.571L883.723 299.758L871.346 253.143L842.466 226Z" fill="url(#paint25_linear_33_839)"/>
<path d="M690 197.232C690 269.157 631.622 327.464 559.61 327.464C487.598 327.464 429.22 269.157 429.22 197.232C429.22 125.307 487.598 67 559.61 67C631.622 67 690 125.307 690 197.232Z" fill="url(#paint26_linear_33_839)"/>
<path d="M690 197.232C690 269.157 631.622 327.464 559.61 327.464C487.598 327.464 429.22 269.157 429.22 197.232C429.22 125.307 487.598 67 559.61 67C631.622 67 690 125.307 690 197.232Z" fill="url(#paint27_linear_33_839)" fill-opacity="0.2"/>
<path d="M301.78 324.518L323.02 318.625L353.7 331L372.58 318.625L375.53 293.875L388.51 274.429L380.25 251.446L356.06 247.321L353.7 227.875L327.15 212.554L305.32 241.429L310.63 269.125L292.34 276.786L277 296.232L285.85 316.268L301.78 324.518Z" fill="url(#paint28_linear_33_839)"/>
<path d="M301.78 324.518L323.02 318.625L353.7 331L372.58 318.625L375.53 293.875L388.51 274.429L380.25 251.446L356.06 247.321L353.7 227.875L327.15 212.554L305.32 241.429L310.63 269.125L292.34 276.786L277 296.232L285.85 316.268L301.78 324.518Z" fill="url(#paint29_linear_33_839)" fill-opacity="0.2"/>
<path fill-rule="evenodd" clip-rule="evenodd" d="M559.564 57C483.29 57 421.458 118.851 421.458 195.148C421.458 271.446 483.29 333.297 559.564 333.297C635.839 333.297 697.671 271.446 697.671 195.148C697.671 118.851 635.839 57 559.564 57ZM559.564 114.267C604.221 114.267 640.422 150.479 640.422 195.148C640.422 239.818 604.221 276.03 559.564 276.03C514.908 276.03 478.707 239.818 478.707 195.148C478.707 150.479 514.908 114.267 559.564 114.267ZM553.662 134.34L549.531 137.882V146.737C534.776 147.918 524.153 160.316 524.153 176.256L524.152 176.402C524.143 179.938 524.079 203.995 558.384 203.414C572.549 203.414 574.91 207.546 574.91 213.45C574.91 222.306 567.237 225.258 557.794 224.667C544.809 224.667 540.481 216.008 538.317 211.679H524.153L520.611 215.221V219.944C528.284 234.113 540.678 241.198 550.121 242.379V254.186L552.482 256.548H567.827V242.379H569.008C587.894 239.545 593.206 225.848 593.206 213.45C593.206 193.968 581.992 185.112 562.515 185.112C550.378 185.64 546.262 182.864 544.261 179.316C543.795 178.491 543.629 177.539 543.629 176.591V174.049C543.629 172.777 543.841 171.493 544.449 170.376C551.365 157.672 572.13 161.373 576.09 172.124H592.025L596.747 170.353C592.497 156.183 576.09 147.918 568.417 145.557V134.34H553.662ZM559.564 80.6151C496.329 80.6151 445.066 131.893 445.066 195.148C445.066 258.403 496.329 309.682 559.564 309.682C622.8 309.682 674.063 258.403 674.063 195.148C674.063 131.893 622.8 80.6151 559.564 80.6151ZM459.821 195.148C459.821 140.045 504.478 95.3746 559.564 95.3746C614.651 95.3746 659.308 140.045 659.308 195.148C659.308 250.252 614.651 294.922 559.564 294.922C504.478 294.922 459.821 250.252 459.821 195.148Z" fill="#012023"/>
<path d="M723.049 214.631C723.049 209.317 728.951 201.643 736.624 201.643C744.296 201.643 751.379 209.908 751.379 214.631C751.379 221.125 741.936 227.619 737.214 227.619C732.492 227.619 723.049 220.299 723.049 214.631Z" fill="#012023"/>
<path d="M751.379 280.753C751.379 277.508 759.642 267.765 765.544 267.765C771.162 267.765 778.528 273.787 778.528 281.344C778.528 284.295 774.397 294.922 766.134 294.922C762.593 294.922 751.379 284.532 751.379 280.753Z" fill="#012023"/>
<path fill-rule="evenodd" clip-rule="evenodd" d="M842.86 201.643C842.86 211.679 831.056 219.354 818.071 231.752C809.808 237.656 770.265 296.103 818.071 348.647C831.646 359.864 842.86 362.816 843.45 373.443C845.22 363.406 857.615 356.912 868.828 348.647C912.503 300.826 882.993 249.463 868.828 231.752C859.975 222.896 842.86 212.033 842.86 201.643ZM825.154 255.957C832.329 242.969 842.86 239.427 842.86 230.571C842.86 240.017 854.506 242.379 861.746 255.957C880.632 291.38 868.238 317.357 861.746 327.393C855.254 337.429 851.713 339.791 849.942 337.429C848.171 332.116 842.269 297.284 842.269 274.849C842.269 288.428 839.318 337.429 835.777 337.429C832.826 336.249 827.514 331.299 825.154 327.393C809.808 302.007 812.759 278.392 825.154 255.957Z" fill="#012023"/>
<path fill-rule="evenodd" clip-rule="evenodd" d="M718.328 376.394C718.328 354.223 736.296 336.249 758.461 336.249C780.626 336.249 798.595 354.223 798.595 376.394C798.595 398.566 780.626 416.54 758.461 416.54C736.296 416.54 718.328 398.566 718.328 376.394ZM758.461 356.322C747.379 356.322 738.394 365.309 738.394 376.394C738.394 387.48 747.379 396.467 758.461 396.467C769.544 396.467 778.528 387.48 778.528 376.394C778.528 365.309 769.544 356.322 758.461 356.322Z" fill="#012023"/>
<path d="M917.815 317.357C917.815 323.26 904.83 338.61 898.928 338.61C902.47 338.61 917.815 348.883 917.815 356.912C917.815 352.189 928.438 338.61 934.34 338.61C931.389 338.61 917.815 323.26 917.815 317.357Z" fill="#012023"/>
<path d="M507.627 355.731V446.649C509.398 457.867 525.333 461.409 529.464 446.649V355.731C528.284 346.285 511.876 341.09 507.627 355.731Z" fill="#012023"/>
<path d="M548.941 356.912V434.842C548.941 444.288 564.876 452.553 570.188 434.842V356.912C566.647 345.695 551.302 346.876 548.941 356.912Z" fill="#012023"/>
<path d="M590.845 354.55V411.227C592.025 420.673 608.551 422.444 612.092 411.227V354.55C609.141 343.333 592.025 344.514 590.845 354.55Z" fill="#012023"/>
<path d="M586.713 447.83C586.713 440.657 592.527 434.842 599.698 434.842C606.869 434.842 612.682 440.657 612.682 447.83C612.682 455.003 606.869 460.818 599.698 460.818C592.527 460.818 586.713 455.003 586.713 447.83Z" fill="#012023"/>
<path d="M458.641 363.996C458.641 357.475 463.925 352.189 470.444 352.189C476.964 352.189 482.248 357.475 482.248 363.996C482.248 370.518 476.964 375.804 470.444 375.804C463.925 375.804 458.641 370.518 458.641 363.996Z" fill="#012023"/>
<path d="M414.376 330.935C419.687 330.935 429.721 319.128 429.721 314.405C429.721 317.357 442.115 330.935 446.246 330.935C442.705 330.935 429.721 342.271 429.721 347.466C429.721 344.514 419.097 330.935 414.376 330.935Z" fill="#012023"/>
<path fill-rule="evenodd" clip-rule="evenodd" d="M293.385 330.935C267.416 322.08 256.793 280.753 293.385 263.042C296.69 261.625 298.697 261.664 299.287 261.861C293.975 253.005 291.024 238.246 301.057 220.535C319.944 192.197 365.389 204.004 365.389 236.475C383.095 234.704 414.376 261.861 383.095 292.561C399.03 330.935 353.585 358.683 326.436 325.032C324.665 326.409 319.944 329.282 315.222 329.755C312.861 384.069 291.614 366.948 293.385 330.935ZM306.959 280.163C294.211 280.163 288.073 291.38 288.073 299.055C288.073 307.32 293.385 314.405 303.418 314.405C313.452 314.405 322.305 305.549 322.305 291.38C322.305 284.886 322.305 280.163 306.959 280.163ZM331.748 222.896C324.075 222.896 312.271 229.981 312.271 243.559C312.271 250.644 312.271 254.777 322.305 262.451C324.075 263.632 327.97 264.223 329.387 262.451C330.961 260.484 334.109 255.957 337.06 252.415C340.31 248.514 347.093 245.331 347.093 237.656C347.093 229.981 340.601 222.896 331.748 222.896ZM365.979 254.186C360.667 254.186 345.322 258.909 345.322 277.211H359.487C360.431 277.211 361.258 277.801 361.848 278.392C362.438 278.982 364.445 280.163 367.75 280.163C371.881 280.163 378.964 273.669 378.964 265.994C378.964 258.319 373.062 254.186 365.979 254.186ZM337.65 303.778C337.65 299.055 338.24 293.151 340.601 293.151C345.594 293.151 347.683 296.693 350.634 296.693H360.077C364.799 296.693 369.52 299.645 369.52 309.091C369.52 313.342 364.519 322.67 352.995 322.67C347.093 322.67 337.65 314.995 337.65 303.778Z" fill="#012023"/>
<path d="M295.746 573.581C302.265 573.581 307.55 578.867 307.55 585.388C307.55 591.909 302.265 597.196 295.746 597.196C289.226 597.196 283.942 591.909 283.942 585.388C283.942 578.867 289.226 573.581 295.746 573.581Z" fill="#012023"/>
<path d="M180.657 649.149C180.657 644.584 184.356 640.884 188.92 640.884C193.483 640.884 197.182 644.584 197.182 649.149C197.182 653.714 193.483 657.414 188.92 657.414C184.356 657.414 180.657 653.714 180.657 649.149Z" fill="#012023"/>
<path fill-rule="evenodd" clip-rule="evenodd" d="M160 473.807C160 461.743 169.777 451.963 181.837 451.963C193.898 451.963 203.675 461.743 203.675 473.807C203.675 485.871 193.898 495.651 181.837 495.651C169.777 495.651 160 485.871 160 473.807ZM181.837 468.493C178.904 468.493 176.526 470.872 176.526 473.807C176.526 476.741 178.904 479.12 181.837 479.12C184.771 479.12 187.149 476.741 187.149 473.807C187.149 470.872 184.771 468.493 181.837 468.493Z" fill="#012023"/>
<path d="M234.955 779.032C234.955 771.859 240.768 766.044 247.94 766.044C255.111 766.044 260.924 771.859 260.924 779.032C260.924 786.205 255.111 792.02 247.94 792.02C240.768 792.02 234.955 786.205 234.955 779.032Z" fill="#012023"/>
<path d="M165.902 525.17C171.804 529.893 172.984 536.977 172.984 559.412C172.984 579.484 199.543 632.618 257.383 610.184C254.432 608.019 248.058 602.155 246.169 596.015C216.069 601.919 197.182 581.256 192.461 561.183C190.559 553.096 188.989 548.4 185.605 545.436C185.524 545.369 185.449 545.305 185.379 545.242C185.455 545.306 185.531 545.371 185.605 545.436C187.582 547.063 192.997 550.012 206.035 551.146C221.381 552.327 246.759 560.002 247.349 591.882C257.383 596.605 260.334 598.967 260.924 604.871C276.269 537.568 220.79 532.845 202.494 532.845C181.837 532.845 170.624 528.948 165.902 525.17Z" fill="#012023"/>
<path d="M862.336 605.461C863.516 600.738 868.828 594.834 874.73 593.654C874.73 567.086 887.124 551.737 913.683 551.737H927.258C927.258 567.677 918.995 597.786 878.271 597.786C876.501 601.328 871.661 608.649 866.467 609.594C903.06 627.305 950.276 607.823 947.915 530.483H914.864C871.189 532.845 847.581 560.592 862.336 605.461Z" fill="#012023"/>
<path d="M871.779 759.55C871.779 764.273 884.764 779.032 890.666 779.032C885.944 779.032 871.779 792.375 871.779 798.515C871.779 792.611 859.975 779.032 854.073 779.032C858.205 779.032 871.779 767.225 871.779 759.55Z" fill="#012023"/>
<path d="M720.098 877.035C705.934 879.396 697.081 888.842 697.081 898.288C697.081 903.011 701.802 905.373 706.524 905.373C711.245 905.373 715.377 903.602 718.918 897.698C721.751 892.975 722.459 887.071 722.459 884.71V881.167L721.869 877.035H720.098Z" fill="#012023"/>
<path d="M397.85 877.035V885.891C397.85 888.252 399.857 895.691 403.162 899.469C407.293 904.192 410.244 905.373 413.195 905.373C416.146 905.373 422.048 903.602 422.048 897.698C422.048 892.975 419.294 888.252 417.917 886.481C414.966 882.939 408.474 878.216 408.474 878.216C406.703 877.035 406.113 877.035 403.162 877.035H397.85Z" fill="#012023"/>
<path fill-rule="evenodd" clip-rule="evenodd" d="M174.755 302.007C177.706 307.911 171.804 323.851 171.214 343.333C171.214 414.769 211.347 440.155 245.579 440.155C260.688 440.155 271.548 436.613 275.089 434.842C276.663 438.187 280.991 446.413 285.712 452.553H270.957C257.973 452.553 232.004 459.047 220.2 469.674C221.971 502.145 255.022 559.412 322.895 559.412C343.198 559.412 360.471 551.933 366.569 548.194C370.111 549.375 383.685 561.773 387.226 569.448L269.777 631.438C259.744 637.932 253.842 646.787 253.842 655.053V691.066C253.842 712.91 273.908 729.44 287.483 732.983V870.541C287.483 893.565 299.287 918.361 323.485 933.121L528.284 1044.7C547.17 1052.97 566.647 1055.33 588.484 1045.88L796.234 933.121C813.94 921.904 832.236 900.65 832.236 865.818V731.212C866.467 717.042 866.467 692.837 866.467 676.897V662.137C866.467 653.872 866.467 642.655 848.171 630.257L825.744 617.269L807.448 630.257L832.236 643.245C841.089 647.968 847.581 652.691 840.499 656.824L828.695 663.318C826.924 655.053 818.661 650.92 808.038 645.607L795.644 639.113L776.757 650.92L789.151 657.709L801.546 664.499C805.087 666.86 805.087 672.174 801.546 674.535C797.768 676.424 651.242 752.465 578.451 790.249C577.27 730.031 619.765 690.475 695.31 669.222C720.688 662.137 761.412 647.378 787.971 625.534C823.383 596.015 857.024 562.363 874.73 480.301C901.289 483.843 926.668 474.397 943.783 437.794C947.561 428.348 948.112 419.689 947.915 416.54L946.144 380.527H907.781C882.403 380.527 857.024 405.913 857.024 432.48C857.024 442.517 862.926 446.059 865.877 446.649C868.828 447.24 874.73 444.288 874.73 437.794C874.73 431.3 878.862 421.263 882.403 416.54C885.944 411.817 889.485 408.275 893.617 405.323C898.338 402.371 906.601 399.419 908.962 399.419H927.848V417.13C927.848 428.348 920.766 445.469 906.601 455.505C897.158 461.409 881.813 463.652 877.091 460.818C871.779 457.63 862.926 454.324 858.205 462.59C856.788 465.896 855.647 469.871 855.254 471.445C835.777 601.328 734.853 635.57 682.326 654.462C610.321 679.258 557.794 712.319 557.794 794.972V796.743L540.678 787.297C540.678 747.742 548.941 674.535 669.341 630.257C813.919 571.81 835.777 487.385 835.777 391.154C835.777 375.804 815.71 375.214 815.71 391.154C815.71 455.505 807.448 561.183 660.488 611.955C571.958 645.607 529.464 692.837 520.021 777.261V778.442L504.086 768.996C509.397 696.379 544.809 648.559 603.239 614.317C635.818 594.952 649.865 591.882 654.586 589.521C669.223 582.909 687.834 572.99 695.31 568.858C721.279 554.216 745.87 523.792 754.92 510.41C768.894 489.747 771.446 465.541 771.446 454.324V444.878C766.724 426.577 750.789 434.251 749.608 444.878V460.228C749.608 468.493 749.608 478.53 740.165 496.241C737.804 434.842 673.473 441.926 660.488 452.553C642.192 466.132 635.11 480.301 633.929 492.108C632.749 503.916 641.602 503.916 645.733 503.326C649.038 502.853 651.832 498.406 652.816 496.241C661.669 472.036 672.292 463.77 687.637 463.77C700.032 463.77 720.098 473.807 720.098 494.47C720.098 519.856 707.114 537.568 687.637 550.556C668.161 563.544 635.7 575.352 612.682 586.569C589.664 597.786 550.711 623.763 536.547 641.474C525.215 655.643 521.595 660.76 521.201 661.547C499.364 692.247 489.331 712.91 485.199 760.14V761.911L468.674 750.694C473.986 691.656 504.086 622.582 559.564 589.521C575.5 580.075 582.582 571.81 608.551 561.183C634.52 550.556 657.537 543.471 676.424 523.399C691.533 507.34 690.195 493.88 687.637 489.157C683.162 480.891 671.938 483.135 670.522 492.108C668.633 504.388 661.078 511.591 657.537 514.543C640.067 527.295 616.42 536.78 606.78 539.929C579.041 548.99 515.89 586.569 485.199 637.341C453.919 686.343 450.968 730.621 450.378 740.658L396.079 713.5C401.391 698.15 418.507 678.078 422.048 611.955C529.7 552.917 558.581 536.977 559.564 536.387L561.925 535.206L579.041 544.062L601.468 534.025L568.417 515.724C565.466 513.952 558.738 513.834 555.433 515.724L418.507 589.521C417.72 586.175 415.674 579.012 413.785 577.123L552.482 503.916C556.22 502.145 565.938 499.783 574.909 504.506C583.88 509.229 605.797 520.643 615.633 525.76L632.749 516.904L577.27 486.795C570.778 483.253 559.564 480.301 545.4 486.795L405.523 559.412C400.604 553.901 390.295 542.527 388.407 541.11C436.803 543.172 472.805 507.458 472.805 456.686C472.805 430.237 462.969 410.636 458.05 404.142C415.556 404.142 393.128 419.492 377.783 438.974C363.028 460.228 353.585 483.843 360.077 515.724C357.716 515.724 341.781 498.485 337.06 488.566V444.878C357.716 443.698 380.734 428.596 380.734 404.142C380.734 379.688 364.457 361.045 340.011 361.045C315.564 361.045 297.516 376.146 297.516 400.6C297.516 429.528 318.763 438.974 318.763 438.974V464.951C301.648 447.83 288.073 421.854 283.942 383.479C279.22 343.333 261.514 314.405 216.069 306.139C195.766 304.25 187.149 309.091 174.755 302.007ZM234.365 419.492C201.314 406.504 187.149 379.937 192.461 325.032H211.347C238.496 325.032 260.924 356.322 260.924 376.394C260.924 391.515 265.842 409.062 268.006 415.95C246.759 422.444 242.038 421.854 234.365 419.492ZM361.848 402.961C361.848 390.245 351.542 379.937 338.83 379.937C326.118 379.937 315.812 390.245 315.812 402.961C315.812 415.678 326.118 425.986 338.83 425.986C351.542 425.986 361.848 415.678 361.848 402.961ZM436.803 502.145C452.738 480.891 454.509 452.553 444.476 424.805C430.901 427.167 417.327 432.598 412.015 435.432C394.997 444.511 377.978 470.498 377.73 501.335C377.711 503.716 378.942 505.881 380.559 507.629C384.953 512.377 386.033 517.67 389.665 520.96C390.685 521.884 392.096 522.191 393.471 522.101C417.911 520.516 428.194 511.331 436.803 502.145ZM319.944 539.339C283.942 541.11 250.3 509.229 243.218 479.12C244.989 478.53 254.432 475.015 259.153 473.807C284.532 467.313 305.189 479.12 311.091 488.566C315.812 496.123 338.633 522.415 349.454 534.616C344.732 536.19 332.22 539.339 319.944 539.339ZM395.489 587.159C399.739 589.993 401.194 595.818 401.391 598.377C372.078 614.12 311.917 646.433 305.779 649.739C299.287 652.691 294.172 658.595 291.614 662.137C285.948 660.72 275.679 653.872 276.859 652.101L279.22 649.149L280.4 647.968L395.489 587.159ZM315.812 666.86L402.572 620.811C396.67 667.451 384.866 698.15 377.783 704.054L315.812 672.174C311.681 669.812 314.632 667.451 315.812 666.86ZM270.367 672.174L559.564 820.359L848.171 672.764V685.752C848.171 696.97 837.548 705.235 832.236 708.777L559.564 849.878L283.942 707.006C273.318 700.512 270.367 691.066 270.367 685.752V672.174ZM306.959 870.541V742.429L352.995 766.044C350.634 783.165 351.814 796.153 354.765 805.009C354.175 804.418 351.342 803.238 344.732 803.238C338.122 803.238 329.387 800.089 325.846 798.515C327.616 828.034 338.24 845.745 350.044 856.962C345.322 856.962 340.207 861.685 338.24 864.047C333.99 853.184 321.911 840.235 316.403 835.118V850.468C319.747 854.01 326.318 863.22 325.846 871.721C325.256 882.348 332.338 901.831 341.781 910.686C349.336 917.771 352.798 926.627 353.585 930.169L331.158 914.819C308.73 897.108 306.959 881.758 306.959 870.541ZM375.422 776.671L366.569 772.538V793.792C366.569 794.382 366.924 796.98 368.34 802.647C372.471 814.455 381.915 816.226 387.817 823.31C387.817 821.736 387.935 818.115 388.407 816.226C388.997 813.864 389.587 812.684 389.587 810.322C389.587 807.961 384.866 796.743 383.685 791.43C382.505 786.117 380.144 779.032 375.422 776.671ZM397.85 800.286C398.794 796.98 403.555 792.808 405.523 791.43L393.128 785.526C394.899 787.297 393.128 792.02 397.85 800.286ZM434.442 822.72C435.681 829.529 435.032 840.431 435.032 840.431C435.032 840.431 442.588 837.862 446.246 834.528C449.554 831.513 450.146 828.731 452.738 825.082C454.555 822.526 457.46 818.587 457.46 818.587L427.95 803.828C427.95 803.828 433.085 815.259 434.442 822.72ZM477.527 830.395L467.493 825.082C467.493 825.082 465.133 826.853 463.952 830.395C462.537 834.642 459.231 838.66 459.231 838.66C459.231 838.66 464.487 840.25 467.493 841.612C470.349 842.906 470.906 844.565 473.986 845.154C475.344 845.414 477.527 845.154 477.527 845.154V830.395ZM383.095 944.928L370.111 937.253C370.111 937.253 370.988 933.341 372.471 931.35C373.741 929.645 374.478 927.807 376.603 927.807H384.275C384.275 927.807 384.376 929.97 384.275 931.35C384.104 933.695 383.355 934.917 383.095 937.253C382.764 940.232 383.095 944.928 383.095 944.928ZM495.233 963.82H480.478C480.478 963.82 483.02 972.015 486.97 974.447C494.642 979.17 498.184 980.941 498.184 980.941H486.38C487.324 982.831 489.134 990.781 489.921 994.52H502.315C513.647 994.52 526.316 987.829 531.235 984.484C527.497 980.941 518.841 973.148 514.119 970.315C509.397 967.363 501.725 963.82 495.233 963.82ZM476.937 898.879C472.023 895.281 464.542 891.204 464.542 891.204C464.542 891.204 469.449 889.433 472.805 889.433C479.888 889.433 484.011 890.832 490.511 893.565C499.87 897.501 503.008 901.559 510.578 908.325C513.619 911.043 518.25 916 518.25 916H499.364C499.364 916 493.785 912.45 490.511 910.096C485.084 906.193 482.33 902.829 476.937 898.879ZM599.698 974.447C594.868 978.379 587.304 984.484 587.304 984.484C587.304 984.484 601.1 991.892 610.321 993.339C617.608 994.483 629.208 993.339 629.208 993.339C629.208 993.339 630.388 988.026 632.749 984.484C633.653 983.127 633.339 980.941 633.339 979.761H629.208C625.053 979.761 618.584 980.351 618.584 980.351C618.584 980.351 632.292 978.207 635.7 971.495C637.194 968.552 637.47 963.23 637.47 963.23C637.47 963.23 623.654 961.671 615.043 965.592C609.08 968.306 604.78 970.311 599.698 974.447ZM747.247 938.434L735.443 944.928V928.398C735.443 928.398 741.647 927.842 744.296 930.169C746.871 932.431 747.247 938.434 747.247 938.434ZM790.922 911.867L766.134 928.398C766.134 928.398 768.722 923.994 770.265 921.313C774.757 913.511 780.083 910.305 784.43 902.421C787.076 897.622 788.561 895.337 789.151 890.023C790.38 878.962 791.374 872.877 796.234 862.866C798.358 858.491 802.726 852.239 802.726 852.239V832.166L801.546 835.708C801.546 835.708 798.537 840.905 796.234 843.974C792.612 848.799 788.975 850.182 785.61 855.191C783.023 859.042 780.299 865.818 780.299 865.818C780.299 865.818 777.524 861.697 774.987 859.914C772.535 858.191 767.904 856.962 767.904 856.962C767.904 856.962 779.536 845.014 784.43 835.708C789.487 826.092 791.757 819.967 792.693 809.141C793.07 804.777 792.693 797.924 792.693 797.924C792.693 797.924 787.268 801.724 783.25 802.647C779.431 803.525 777.12 802.308 773.216 802.647C769.252 802.992 763.183 804.418 763.183 804.418C763.183 804.418 767.146 795.663 767.904 789.659C768.425 785.542 767.904 779.032 767.904 779.032L766.724 764.273L812.759 740.658V852.239C812.759 852.239 813.964 873.558 809.218 885.891C804.761 897.471 796.234 908.325 790.922 911.867ZM738.394 779.032L753.74 771.357C753.74 771.357 756.216 789.495 752.559 799.695C748.32 811.521 731.902 822.72 731.902 822.72C731.902 822.72 731.432 818.704 730.722 816.226C729.896 813.345 727.771 809.141 727.771 809.141C727.771 809.141 733.338 800.528 735.443 794.382C737.422 788.607 738.394 779.032 738.394 779.032ZM715.967 790.84L724.82 786.117C724.82 786.117 724.995 789.833 724.23 792.02C723.512 794.073 721.279 796.743 721.279 796.743C721.279 796.743 720.357 794.834 719.508 793.792C718.371 792.396 715.967 790.84 715.967 790.84ZM663.439 818.587L689.408 805.009C689.408 805.009 685.781 814.549 684.686 820.949C683.403 828.452 684.096 840.431 684.096 840.431C684.096 840.431 674.99 838.988 671.112 835.118C667.533 831.547 668.371 827.664 665.8 823.31C664.532 821.163 663.439 818.587 663.439 818.587ZM641.602 830.985L651.635 825.082C651.635 825.082 653.048 829.938 654.586 832.757C656.088 835.509 659.308 839.251 659.308 839.251C659.308 839.251 653.74 840.194 650.455 841.612C647.225 843.007 642.782 846.335 642.782 846.335C642.782 846.335 642.962 842.011 642.782 839.251C642.57 835.997 641.602 830.985 641.602 830.985ZM610.912 907.144C606.72 911.017 601.468 916.59 601.468 916.59L622.716 916C622.716 916 632.358 905.625 639.831 900.65C646.267 896.365 657.537 891.794 657.537 891.794C657.537 891.794 641.628 886.796 630.978 891.794C623.146 895.471 617.267 901.272 610.912 907.144ZM669.931 981.532L643.372 995.701C643.372 995.701 646.089 980.323 650.455 971.495C655.054 962.196 666.39 950.242 666.39 950.242C666.39 950.242 680.361 935.007 688.818 924.855C691.769 921.313 694.72 914.819 694.72 914.819C692.831 913.874 691.179 910.686 689.998 905.373H688.228C687.755 907.734 678.784 918.361 653.996 940.796C653.996 940.796 646.914 945.987 639.831 945.519C627.437 944.699 623.306 934.302 623.306 934.302L636.29 920.132C636.29 920.132 650.786 905.113 662.849 900.65C672.235 897.178 688.228 897.108 688.228 897.108C688.228 897.108 689.036 891.818 690.588 888.842C692.626 884.938 698.261 880.577 698.261 880.577C698.261 880.577 677.014 883.728 665.21 877.035C653.406 870.541 646.914 855.191 646.914 855.191C646.914 855.191 659.675 848.811 668.161 849.878C677.809 851.09 689.408 862.866 689.408 862.866C689.408 862.866 693.251 869.498 697.081 872.312C698.993 873.717 702.392 875.264 702.392 875.264C702.865 872.902 705.343 871.131 706.524 870.541C706.524 870.541 698.003 852.867 697.081 840.431C695.9 815.045 702.983 810.322 704.163 805.009C705.343 800.286 705.343 796.743 705.343 796.743C705.343 796.743 715.893 810.001 718.328 819.178C721.834 832.393 714.786 854.01 714.786 854.01C714.786 854.01 713.606 859.281 713.606 863.456C713.606 865.818 714.786 869.36 714.786 869.36C714.786 869.36 717.147 869.36 718.918 867.589C725.41 859.914 725.41 855.781 727.771 852.239C729.541 849.582 728.951 844.564 741.936 830.985C754.308 817.997 778.528 811.503 778.528 811.503C778.528 811.503 776.757 832.166 751.969 855.781C740.532 865.818 726.59 871.131 726.59 871.131V873.493C726.59 873.493 729.764 876.358 730.722 878.806C732.518 883.396 728.361 891.204 728.361 891.204C728.361 891.204 739.468 882.468 746.657 878.216C752.701 874.641 754.429 869.813 761.412 870.541C768.932 871.324 775.184 872.589 776.757 879.987C778.346 887.456 776.757 888.842 767.314 899.469L767.078 899.735C761.69 905.801 758.908 908.932 749.018 910.096C740.111 911.144 726.59 900.06 726.59 900.06C726.59 900.06 724.341 905.549 721.869 908.325C719.231 911.287 713.606 914.229 713.606 914.229C713.606 914.229 718.426 920.577 719.508 925.446C721.869 936.073 720.688 953.194 720.688 953.194L704.753 962.049C704.753 962.049 703.441 962.404 702.983 960.278C702.321 957.213 703.33 952.675 704.163 949.651C705.975 943.069 707.704 932.53 707.704 932.53C707.704 932.53 708.22 922.85 705.343 917.771C703.494 914.505 698.851 910.686 698.851 910.686C698.851 910.686 700.52 918.463 699.441 923.675C698.563 927.916 697.081 930.331 695.31 934.302C690.881 944.234 689.502 950.258 685.277 960.278C682.63 966.555 683.042 971.434 678.194 976.218C675.463 978.913 669.931 981.532 669.931 981.532ZM399.03 930.759C400.691 923.804 406.113 913.048 406.113 913.048C398.393 911.841 394.633 903.493 393.719 899.469C393.719 899.469 381.255 909.963 371.881 909.506C347.683 908.325 341.191 881.758 341.781 879.987C342.371 876.444 350.494 870.942 357.716 870.541C368.34 869.95 391.358 890.614 391.358 890.614C391.358 890.614 388.786 886.128 388.407 882.939C387.813 877.938 391.948 870.541 391.948 870.541C391.948 870.541 374.996 863.139 366.569 855.191C345.912 835.708 340.601 812.093 340.601 812.093C340.601 812.093 356.549 816.138 365.389 821.539C375.216 827.544 384.505 839.947 386.527 842.647L386.636 842.793C387.964 844.564 392.538 856.962 396.079 861.685C398.328 864.271 402.572 867.589 402.572 867.589H404.932V858.733C403.752 853.617 401.391 840.904 401.391 830.985C401.391 830.985 400.801 820.949 404.932 811.503C407.268 806.174 413.195 799.105 413.195 799.105C412.723 801.466 413.785 804.025 414.376 805.009C414.376 805.009 423.139 823.231 423.228 835.708C423.329 849.71 412.605 869.95 412.605 869.95C415.91 871.367 418.704 874.083 419.687 875.264L432.081 860.504C432.081 860.504 443.298 850.419 452.148 849.878C460.151 849.388 471.625 856.372 471.625 856.372C471.625 856.372 464.065 869.477 456.28 874.673C445.624 881.785 424.409 879.987 424.409 879.987L422.048 881.167C429.13 884.474 431.688 893.172 432.081 897.108C432.081 897.108 441.525 894.156 459.231 902.421C476.937 910.686 490.983 927.099 492.872 928.988C494.761 930.877 495.233 933.711 495.233 934.892C495.233 934.892 492.282 946.109 480.478 946.109C467.235 946.109 460.064 937.547 450.378 928.398C442.332 920.799 433.262 905.963 433.262 905.963H429.721C429.249 909.742 426.77 914.229 425.589 916C426.534 920.723 439.754 937.253 443.885 940.205C443.885 940.205 462.779 956.396 469.264 970.315C473.869 980.199 476.346 996.882 476.346 996.882L449.787 983.303C449.787 983.303 444.696 980.563 442.115 977.99C438.671 974.556 435.623 967.363 435.623 967.363C435.623 967.363 431.738 955.105 429.13 947.29C425.589 932.53 420.868 931.94 419.687 920.132C419.687 916.59 420.868 913.638 420.868 913.638C419.923 914.111 417.327 913.835 416.146 913.638C416.146 913.638 411.179 924.855 411.425 934.892C411.425 947.29 417.327 949.061 417.327 956.146C417.396 959.381 416.736 964.411 416.736 964.411L397.85 952.013C397.85 952.013 397.043 939.084 399.03 930.759ZM528.284 1024.04L498.184 1008.1C498.184 1008.1 514.024 1007.11 523.562 1003.97C530.81 1001.58 541.268 995.701 541.268 995.701C544.416 993.733 551.302 989.561 553.662 988.616C551.498 987.239 546.462 983.657 543.629 980.351C543.629 980.351 534.381 968.172 526.513 962.64C517.897 956.581 501.725 952.013 501.725 952.013C501.725 952.013 507.559 947.005 510.578 943.157C512.946 940.139 512.197 936.798 515.89 934.892C534.186 925.446 545.99 923.084 545.99 923.084C545.99 923.084 537.331 917.314 532.415 913.638C519.748 904.165 521.201 895.242 502.905 885.891C490.511 879.555 476.346 878.216 476.346 878.216C476.346 878.216 484.409 866.258 486.97 857.552C489.391 849.321 489.331 835.708 489.331 835.708L547.17 866.408C547.17 866.408 554.385 871.089 559.564 871.131C564.157 871.168 570.778 867.589 570.778 867.589L628.618 837.48C628.618 837.48 629.332 851.507 632.159 859.914C634.722 867.537 641.602 878.216 641.602 878.216C641.602 878.216 633.766 878.642 628.618 879.987C621.835 881.758 618.44 884.253 612.682 888.252C602.901 895.045 600.085 901.91 591.435 910.096C585.26 915.939 574.909 924.265 574.909 924.265C584.943 927.217 596.157 930.759 603.239 934.892C605.01 936.073 606.879 941.91 610.321 945.519C613.154 948.489 618.584 952.013 618.584 952.013C618.584 952.013 609.02 953.886 603.239 956.146C584.84 963.336 565.466 989.797 565.466 989.797C565.466 989.797 583.126 1000.48 595.566 1004.56C603.217 1007.06 615.633 1009.28 615.633 1009.28L588.484 1024.04C588.484 1024.04 570.515 1031.71 558.384 1031.71C546.253 1031.71 528.284 1024.04 528.284 1024.04Z" fill="#012023"/>
<defs>
<linearGradient id="paint0_linear_33_839" x1="264.998" y1="853.568" x2="854.517" y2="855.817" gradientUnits="userSpaceOnUse">
<stop stop-color="#DBFFDA"/>
<stop offset="0.5" stop-color="#DBFFDA"/>
<stop offset="0.5" stop-color="#459662"/>
<stop offset="1" stop-color="#459662"/>
</linearGradient>
<linearGradient id="paint1_linear_33_839" x1="467.979" y1="772.231" x2="393.277" y2="993.276" gradientUnits="userSpaceOnUse">
<stop offset="0.304634" stop-color="#DFFDDF"/>
<stop offset="0.595" stop-color="#FEFFFA"/>
<stop offset="1" stop-color="#FEFFFA"/>
</linearGradient>
<linearGradient id="paint2_linear_33_839" x1="730.465" y1="785.743" x2="711.743" y2="1001.43" gradientUnits="userSpaceOnUse">
<stop stop-color="#27744E"/>
<stop offset="0.63" stop-color="#75BD8A"/>
<stop offset="1" stop-color="#7BC78B"/>
</linearGradient>
<linearGradient id="paint3_linear_33_839" x1="306.852" y1="658.563" x2="813.7" y2="660.953" gradientUnits="userSpaceOnUse">
<stop stop-color="#358252"/>
<stop offset="0.23" stop-color="#358252"/>
<stop offset="0.5" stop-color="#73CA8E"/>
<stop offset="0.5" stop-color="#358252"/>
<stop offset="0.599463" stop-color="#358252"/>
<stop offset="1" stop-color="#96D09F"/>
</linearGradient>
<linearGradient id="paint4_linear_33_839" x1="634.982" y1="529.139" x2="484.956" y2="811.104" gradientUnits="userSpaceOnUse">
<stop stop-opacity="0"/>
<stop offset="0.628823" stop-opacity="0"/>
<stop offset="1"/>
</linearGradient>
<linearGradient id="paint5_linear_33_839" x1="306.852" y1="658.563" x2="813.7" y2="660.953" gradientUnits="userSpaceOnUse">
<stop stop-color="#358252"/>
<stop offset="0.23" stop-color="#358252"/>
<stop offset="0.5" stop-color="#73CA8E"/>
<stop offset="0.5" stop-color="#358252"/>
<stop offset="0.599463" stop-color="#358252"/>
<stop offset="1" stop-color="#96D09F"/>
</linearGradient>
<linearGradient id="paint6_linear_33_839" x1="634.982" y1="529.139" x2="484.956" y2="811.104" gradientUnits="userSpaceOnUse">
<stop stop-opacity="0"/>
<stop offset="0.628823" stop-opacity="0"/>
<stop offset="1"/>
</linearGradient>
<linearGradient id="paint7_linear_33_839" x1="306.852" y1="658.563" x2="813.7" y2="660.953" gradientUnits="userSpaceOnUse">
<stop stop-color="#358252"/>
<stop offset="0.23" stop-color="#358252"/>
<stop offset="0.5" stop-color="#73CA8E"/>
<stop offset="0.5" stop-color="#358252"/>
<stop offset="0.599463" stop-color="#358252"/>
<stop offset="1" stop-color="#96D09F"/>
</linearGradient>
<linearGradient id="paint8_linear_33_839" x1="634.982" y1="529.139" x2="484.956" y2="811.104" gradientUnits="userSpaceOnUse">
<stop stop-opacity="0"/>
<stop offset="0.628823" stop-opacity="0"/>
<stop offset="1"/>
</linearGradient>
<linearGradient id="paint9_linear_33_839" x1="859.452" y1="399.937" x2="486.395" y2="773.518" gradientUnits="userSpaceOnUse">
<stop stop-color="#9DD6AA" stop-opacity="0"/>
<stop offset="0.615286" stop-color="#9DD6AA" stop-opacity="0"/>
<stop offset="0.759303" stop-color="#9DD6AA" stop-opacity="0.4"/>
<stop offset="1" stop-color="#9DD6AA"/>
</linearGradient>
<linearGradient id="paint10_linear_33_839" x1="161.619" y1="438.349" x2="886.886" y2="576.164" gradientUnits="userSpaceOnUse">
<stop offset="0.0173307" stop-color="#E2FBE3"/>
<stop offset="0.12829" stop-color="#ABEBB7"/>
<stop offset="0.230138" stop-color="#8ED9A2"/>
<stop offset="0.295766" stop-color="#FFFEF9"/>
<stop offset="0.377119" stop-color="#87C999"/>
<stop offset="0.732003" stop-color="#9FE5B2"/>
<stop offset="0.815354" stop-color="#93D89C"/>
<stop offset="0.854567" stop-color="#BAF2C6"/>
<stop offset="0.905388" stop-color="#93D99C"/>
</linearGradient>
<linearGradient id="paint11_linear_33_839" x1="161.619" y1="438.349" x2="886.886" y2="576.164" gradientUnits="userSpaceOnUse">
<stop offset="0.0173307" stop-color="#E2FBE3"/>
<stop offset="0.12829" stop-color="#ABEBB7"/>
<stop offset="0.230138" stop-color="#8ED9A2"/>
<stop offset="0.295766" stop-color="#FFFEF9"/>
<stop offset="0.377119" stop-color="#87C999"/>
<stop offset="0.732003" stop-color="#9FE5B2"/>
<stop offset="0.815354" stop-color="#93D89C"/>
<stop offset="0.854567" stop-color="#BAF2C6"/>
<stop offset="0.905388" stop-color="#93D99C"/>
</linearGradient>
<linearGradient id="paint12_linear_33_839" x1="161.619" y1="438.349" x2="886.886" y2="576.164" gradientUnits="userSpaceOnUse">
<stop offset="0.0173307" stop-color="#E2FBE3"/>
<stop offset="0.12829" stop-color="#ABEBB7"/>
<stop offset="0.230138" stop-color="#8ED9A2"/>
<stop offset="0.295766" stop-color="#FFFEF9"/>
<stop offset="0.377119" stop-color="#87C999"/>
<stop offset="0.732003" stop-color="#9FE5B2"/>
<stop offset="0.815354" stop-color="#93D89C"/>
<stop offset="0.854567" stop-color="#BAF2C6"/>
<stop offset="0.905388" stop-color="#93D99C"/>
</linearGradient>
<linearGradient id="paint13_linear_33_839" x1="161.619" y1="438.349" x2="886.886" y2="576.164" gradientUnits="userSpaceOnUse">
<stop offset="0.0173307" stop-color="#E2FBE3"/>
<stop offset="0.12829" stop-color="#ABEBB7"/>
<stop offset="0.230138" stop-color="#8ED9A2"/>
<stop offset="0.295766" stop-color="#FFFEF9"/>
<stop offset="0.377119" stop-color="#87C999"/>
<stop offset="0.732003" stop-color="#9FE5B2"/>
<stop offset="0.815354" stop-color="#93D89C"/>
<stop offset="0.854567" stop-color="#BAF2C6"/>
<stop offset="0.905388" stop-color="#93D99C"/>
</linearGradient>
<linearGradient id="paint14_linear_33_839" x1="161.619" y1="438.349" x2="886.886" y2="576.164" gradientUnits="userSpaceOnUse">
<stop offset="0.0173307" stop-color="#E2FBE3"/>
<stop offset="0.12829" stop-color="#ABEBB7"/>
<stop offset="0.230138" stop-color="#8ED9A2"/>
<stop offset="0.295766" stop-color="#FFFEF9"/>
<stop offset="0.377119" stop-color="#87C999"/>
<stop offset="0.732003" stop-color="#9FE5B2"/>
<stop offset="0.815354" stop-color="#93D89C"/>
<stop offset="0.854567" stop-color="#BAF2C6"/>
<stop offset="0.905388" stop-color="#93D99C"/>
</linearGradient>
<linearGradient id="paint15_linear_33_839" x1="161.619" y1="438.349" x2="886.886" y2="576.164" gradientUnits="userSpaceOnUse">
<stop offset="0.0173307" stop-color="#E2FBE3"/>
<stop offset="0.12829" stop-color="#ABEBB7"/>
<stop offset="0.230138" stop-color="#8ED9A2"/>
<stop offset="0.295766" stop-color="#FFFEF9"/>
<stop offset="0.377119" stop-color="#87C999"/>
<stop offset="0.732003" stop-color="#9FE5B2"/>
<stop offset="0.815354" stop-color="#93D89C"/>
<stop offset="0.854567" stop-color="#BAF2C6"/>
<stop offset="0.905388" stop-color="#93D99C"/>
</linearGradient>
<linearGradient id="paint16_linear_33_839" x1="161.619" y1="438.349" x2="886.886" y2="576.164" gradientUnits="userSpaceOnUse">
<stop offset="0.0173307" stop-color="#E2FBE3"/>
<stop offset="0.12829" stop-color="#ABEBB7"/>
<stop offset="0.230138" stop-color="#8ED9A2"/>
<stop offset="0.295766" stop-color="#FFFEF9"/>
<stop offset="0.377119" stop-color="#87C999"/>
<stop offset="0.732003" stop-color="#9FE5B2"/>
<stop offset="0.815354" stop-color="#93D89C"/>
<stop offset="0.854567" stop-color="#BAF2C6"/>
<stop offset="0.905388" stop-color="#93D99C"/>
</linearGradient>
<linearGradient id="paint17_linear_33_839" x1="160.539" y1="364.075" x2="841.067" y2="745.185" gradientUnits="userSpaceOnUse">
<stop offset="0.0376413" stop-color="#A7E9B3"/>
<stop offset="0.151763" stop-color="#56A36C"/>
<stop offset="0.156338" stop-color="#A7E9B3"/>
<stop offset="0.276205" stop-color="#56A36C"/>
<stop offset="0.320491" stop-color="#56A36C"/>
<stop offset="0.41112" stop-color="#A7E9B3"/>
<stop offset="0.729827" stop-color="#56A36C"/>
<stop offset="0.900973" stop-color="#A7E9B3"/>
</linearGradient>
<linearGradient id="paint18_linear_33_839" x1="160.539" y1="364.075" x2="841.067" y2="745.185" gradientUnits="userSpaceOnUse">
<stop offset="0.0376413" stop-color="#A7E9B3"/>
<stop offset="0.151763" stop-color="#56A36C"/>
<stop offset="0.156338" stop-color="#A7E9B3"/>
<stop offset="0.276205" stop-color="#56A36C"/>
<stop offset="0.320491" stop-color="#56A36C"/>
<stop offset="0.41112" stop-color="#A7E9B3"/>
<stop offset="0.729827" stop-color="#56A36C"/>
<stop offset="0.900973" stop-color="#A7E9B3"/>
</linearGradient>
<linearGradient id="paint19_linear_33_839" x1="160.539" y1="364.075" x2="841.067" y2="745.185" gradientUnits="userSpaceOnUse">
<stop offset="0.0376413" stop-color="#A7E9B3"/>
<stop offset="0.151763" stop-color="#56A36C"/>
<stop offset="0.156338" stop-color="#A7E9B3"/>
<stop offset="0.276205" stop-color="#56A36C"/>
<stop offset="0.320491" stop-color="#56A36C"/>
<stop offset="0.41112" stop-color="#A7E9B3"/>
<stop offset="0.729827" stop-color="#56A36C"/>
<stop offset="0.900973" stop-color="#A7E9B3"/>
</linearGradient>
<linearGradient id="paint20_linear_33_839" x1="160.539" y1="364.075" x2="841.067" y2="745.185" gradientUnits="userSpaceOnUse">
<stop offset="0.0376413" stop-color="#A7E9B3"/>
<stop offset="0.151763" stop-color="#56A36C"/>
<stop offset="0.156338" stop-color="#A7E9B3"/>
<stop offset="0.276205" stop-color="#56A36C"/>
<stop offset="0.320491" stop-color="#56A36C"/>
<stop offset="0.41112" stop-color="#A7E9B3"/>
<stop offset="0.729827" stop-color="#56A36C"/>
<stop offset="0.900973" stop-color="#A7E9B3"/>
</linearGradient>
<linearGradient id="paint21_linear_33_839" x1="160.539" y1="364.075" x2="841.067" y2="745.185" gradientUnits="userSpaceOnUse">
<stop offset="0.0376413" stop-color="#A7E9B3"/>
<stop offset="0.151763" stop-color="#56A36C"/>
<stop offset="0.156338" stop-color="#A7E9B3"/>
<stop offset="0.276205" stop-color="#56A36C"/>
<stop offset="0.320491" stop-color="#56A36C"/>
<stop offset="0.41112" stop-color="#A7E9B3"/>
<stop offset="0.729827" stop-color="#56A36C"/>
<stop offset="0.900973" stop-color="#A7E9B3"/>
</linearGradient>
<linearGradient id="paint22_linear_33_839" x1="160.539" y1="364.075" x2="841.067" y2="745.185" gradientUnits="userSpaceOnUse">
<stop offset="0.0376413" stop-color="#A7E9B3"/>
<stop offset="0.151763" stop-color="#56A36C"/>
<stop offset="0.156338" stop-color="#A7E9B3"/>
<stop offset="0.276205" stop-color="#56A36C"/>
<stop offset="0.320491" stop-color="#56A36C"/>
<stop offset="0.41112" stop-color="#A7E9B3"/>
<stop offset="0.729827" stop-color="#56A36C"/>
<stop offset="0.900973" stop-color="#A7E9B3"/>
</linearGradient>
<linearGradient id="paint23_linear_33_839" x1="160.539" y1="364.075" x2="841.067" y2="745.185" gradientUnits="userSpaceOnUse">
<stop offset="0.0376413" stop-color="#A7E9B3"/>
<stop offset="0.151763" stop-color="#56A36C"/>
<stop offset="0.156338" stop-color="#A7E9B3"/>
<stop offset="0.276205" stop-color="#56A36C"/>
<stop offset="0.320491" stop-color="#56A36C"/>
<stop offset="0.41112" stop-color="#A7E9B3"/>
<stop offset="0.729827" stop-color="#56A36C"/>
<stop offset="0.900973" stop-color="#A7E9B3"/>
</linearGradient>
<linearGradient id="paint24_linear_33_839" x1="160.539" y1="364.075" x2="841.067" y2="745.185" gradientUnits="userSpaceOnUse">
<stop offset="0.0376413" stop-color="#A7E9B3"/>
<stop offset="0.151763" stop-color="#56A36C"/>
<stop offset="0.156338" stop-color="#A7E9B3"/>
<stop offset="0.276205" stop-color="#56A36C"/>
<stop offset="0.320491" stop-color="#56A36C"/>
<stop offset="0.41112" stop-color="#A7E9B3"/>
<stop offset="0.729827" stop-color="#56A36C"/>
<stop offset="0.900973" stop-color="#A7E9B3"/>
</linearGradient>
<linearGradient id="paint25_linear_33_839" x1="160.539" y1="364.075" x2="841.067" y2="745.185" gradientUnits="userSpaceOnUse">
<stop offset="0.0376413" stop-color="#A7E9B3"/>
<stop offset="0.151763" stop-color="#56A36C"/>
<stop offset="0.156338" stop-color="#A7E9B3"/>
<stop offset="0.276205" stop-color="#56A36C"/>
<stop offset="0.320491" stop-color="#56A36C"/>
<stop offset="0.41112" stop-color="#A7E9B3"/>
<stop offset="0.729827" stop-color="#56A36C"/>
<stop offset="0.900973" stop-color="#A7E9B3"/>
</linearGradient>
<linearGradient id="paint26_linear_33_839" x1="551.35" y1="331" x2="467.165" y2="66.9409" gradientUnits="userSpaceOnUse">
<stop stop-color="#31B15E"/>
<stop offset="0.387098" stop-color="#A6E8B7"/>
<stop offset="0.525777" stop-color="#CBF5D0"/>
<stop offset="0.895" stop-color="#FFFFF7"/>
</linearGradient>
<linearGradient id="paint27_linear_33_839" x1="416.83" y1="19.8571" x2="675.469" y2="331.308" gradientUnits="userSpaceOnUse">
<stop stop-opacity="0"/>
<stop offset="1"/>
</linearGradient>
<linearGradient id="paint28_linear_33_839" x1="551.35" y1="331" x2="467.165" y2="66.9409" gradientUnits="userSpaceOnUse">
<stop stop-color="#31B15E"/>
<stop offset="0.387098" stop-color="#A6E8B7"/>
<stop offset="0.525777" stop-color="#CBF5D0"/>
<stop offset="0.895" stop-color="#FFFFF7"/>
</linearGradient>
<linearGradient id="paint29_linear_33_839" x1="416.83" y1="19.8571" x2="675.469" y2="331.308" gradientUnits="userSpaceOnUse">
<stop stop-opacity="0"/>
<stop offset="1"/>
</linearGradient>
</defs>
</svg>
