<svg width="512" height="512" viewBox="0 0 512 512" fill="none" xmlns="http://www.w3.org/2000/svg">
<path d="M95.8125 113H415.188C417.856 113 420 115.144 420 117.812V163.438C420 166.106 417.856 168.25 415.188 168.25H95.8125C93.144 168.25 91 166.106 91 163.438V117.812C91 115.144 93.144 113 95.8125 113Z" stroke="#231F20" stroke-width="36"/>
<path d="M109.5 410.312V218.5H401.875V410.312C401.875 415.466 397.716 419.625 392.562 419.625H118.812C113.659 419.625 109.5 415.466 109.5 410.312ZM210.062 309.75H301.312C321.378 309.75 337.625 293.503 337.625 273.438C337.625 253.372 321.378 237.125 301.312 237.125H210.062C189.997 237.125 173.75 253.372 173.75 273.438C173.75 293.503 189.997 309.75 210.062 309.75Z" stroke="#231F20" stroke-width="27"/>
</svg>
