<svg width="512" height="512" viewBox="0 0 512 512" fill="none" xmlns="http://www.w3.org/2000/svg">
<path d="M448.726 222.253H418.958V410.291H94.0774V103.211H256.518V65.3069H94.0774C89.9312 65.457 85.853 66.5642 82.0838 68.5633C78.3146 70.5623 74.9307 73.4126 72.1319 76.9458C69.3332 80.4791 67.1763 84.6236 65.7887 89.1347C64.4011 93.6458 63.8109 98.4321 64.0529 103.211V410.291C63.9158 414.997 64.584 419.688 66.0191 424.096C67.4542 428.504 69.6281 432.542 72.4166 435.98C75.205 439.418 78.5533 442.188 82.2701 444.131C85.9868 446.075 89.999 447.154 94.0774 447.307H418.958C423.036 447.154 427.049 446.075 430.765 444.131C434.482 442.188 437.83 439.418 440.619 435.98C443.407 432.542 445.581 428.504 447.016 424.096C448.451 419.688 449.12 414.997 448.982 410.291L448.726 222.253Z" fill="black"/>
<path d="M316.026 113.506L197.204 232.714L185.157 244.772L182.967 246.965L141.352 333.562C138.56 339.122 137.59 345.421 138.579 351.564C139.568 357.708 142.467 363.382 146.863 367.783C151.259 372.183 156.928 375.084 163.066 376.074C169.203 377.064 175.496 376.093 181.051 373.298L267.019 331.37L281.529 316.845L293.302 305.062L412.124 185.579L424.444 173.521L431.289 166.67C442.457 155.47 448.729 140.292 448.729 124.467C448.729 108.643 442.457 93.4651 431.289 82.2648C420.152 71.1982 405.093 64.9915 389.4 65.0001C373.624 64.9787 358.475 71.1819 347.237 82.2648L328.072 101.174L315.752 113.232L316.026 113.506ZM177.765 336.302L210.072 269.71L244.295 304.239L177.765 336.302ZM232.522 244.224L339.298 137.073L374.889 172.973L269.209 281.494L232.522 244.224ZM388.031 98.7073C391.34 98.6961 394.617 99.3446 397.673 100.615C400.728 101.885 403.5 103.752 405.827 106.106C410.558 110.88 413.213 117.332 413.213 124.056C413.213 130.781 410.558 137.232 405.827 142.006L398.982 148.583L363.39 112.958L370.235 106.106C372.706 103.671 375.673 101.798 378.933 100.616C382.193 99.4333 385.67 98.9693 389.126 99.2554L388.031 98.7073Z" fill="black"/>
</svg>
