<svg width="512" height="512" viewBox="0 0 512 512" fill="none" xmlns="http://www.w3.org/2000/svg">
<path d="M362.935 68.9118H319.539C319.609 68.0344 319.656 67.7674 319.656 67.202C319.656 59.936 313.765 54 306.499 54H204.749C197.483 54 191.592 59.936 191.592 67.202C191.592 67.7674 191.639 68.0344 191.709 68.9118H148.313C123.47 68.9118 103 89.0338 103 113.876V133.733C103 140.999 109.15 146.978 116.416 146.978H123.114L132.426 445.847C132.648 452.95 138.47 458.367 145.578 458.367H365.672C372.779 458.367 378.602 452.95 378.823 445.847L388.135 146.978H394.833C402.099 146.978 408.249 141.001 408.249 133.733V113.876C408.248 89.0338 387.779 68.9118 362.935 68.9118ZM352.917 432.052H158.331L149.441 146.978H361.808L352.917 432.052ZM381.934 120.664H129.314V113.876C129.314 103.544 137.979 95.2265 148.312 95.2265H362.935C373.268 95.2265 381.934 103.544 381.934 113.876V120.664H381.934Z" fill="black"/>
<line x1="257" y1="363.103" x2="257" y2="210.09" stroke="black" stroke-width="22"/>
<line x1="212" y1="363.193" x2="212" y2="210.18" stroke="black" stroke-width="22"/>
<line x1="302" y1="363.013" x2="302" y2="210" stroke="black" stroke-width="22"/>
</svg>
