<svg width="512" height="512" viewBox="0 0 512 512" fill="none" xmlns="http://www.w3.org/2000/svg">
<path d="M267.975 411.2L333.582 279.978L399.188 411.2H267.975ZM139.595 372.4V254.041C155.298 257.213 171.542 256.451 186.879 251.823C202.216 247.194 216.17 238.843 227.498 227.513C238.825 216.183 247.173 202.227 251.799 186.888C256.424 171.549 257.183 155.304 254.008 139.6H372.379V270.821L350.924 227.928C344.348 214.775 322.816 214.775 316.22 227.928L243.999 372.4H139.595ZM447.918 421.928L411.177 348.421V129.9C411.177 122.182 408.111 114.78 402.654 109.323C397.197 103.866 389.796 100.8 382.079 100.8H236.084C218.354 77.3842 190.555 62 158.994 62C105.511 62 62 105.514 62 159C62 190.564 77.3832 218.383 100.797 236.115V382.1C100.797 389.818 103.863 397.219 109.32 402.677C114.777 408.134 122.178 411.2 129.895 411.2H224.6L219.226 421.928C217.748 424.886 217.051 428.174 217.2 431.478C217.35 434.781 218.342 437.992 220.081 440.805C221.821 443.618 224.251 445.939 227.14 447.548C230.029 449.157 233.281 450.001 236.588 450H430.575C433.887 450.014 437.146 449.178 440.042 447.571C442.938 445.965 445.372 443.642 447.113 440.824C448.854 438.007 449.842 434.79 449.982 431.481C450.123 428.173 449.412 424.883 447.918 421.928Z" fill="#5C5F62"/>
</svg>
