<svg width="800" height="800" viewBox="0 0 800 800" fill="none" xmlns="http://www.w3.org/2000/svg">
<path fill-rule="evenodd" clip-rule="evenodd" d="M139 158.3C139 124.997 166.018 98 199.346 98H529.524L662 230.374V640.7C662 674.002 634.981 701 601.654 701H199.346C166.018 701 139 674.002 139 640.7V158.3ZM179.231 339.2H299.923V379.4H219.462V500H299.923V540.2H179.231V339.2ZM460.846 339.2H340.154V459.8H420.615V500H340.154V540.2H460.846V419.6H380.385V379.4H460.846V339.2ZM541.308 339.2H501.077V488.226L561.423 548.525L621.769 488.226V339.2H581.538V471.574L561.423 491.674L541.308 471.574V339.2Z" fill="black"/>
</svg>
