<svg width="512" height="512" viewBox="0 0 512 512" fill="none" xmlns="http://www.w3.org/2000/svg">
<path fill-rule="evenodd" clip-rule="evenodd" d="M255.5 460C159.569 460 111.604 460 81.802 430.197C52 400.397 52 352.43 52 256.5C52 160.569 52 112.604 81.802 82.802C111.604 53 159.569 53 255.5 53C351.43 53 399.397 53 429.197 82.802C459 112.604 459 160.569 459 256.5C459 352.43 459 400.397 429.197 430.197C399.397 460 351.43 460 255.5 460ZM189.363 144.575C189.363 136.145 182.529 129.312 174.1 129.312C165.671 129.312 158.838 136.145 158.838 144.575V170.012H133.4C124.971 170.012 118.138 176.846 118.138 185.275C118.138 193.704 124.971 200.537 133.4 200.537H158.838V225.975C158.838 234.404 165.671 241.238 174.1 241.238C182.529 241.238 189.363 234.404 189.363 225.975V200.537H214.8C223.229 200.537 230.063 193.704 230.063 185.275C230.063 176.846 223.229 170.012 214.8 170.012H189.363V144.575ZM296.2 170.012C287.771 170.012 280.938 176.845 280.938 185.275C280.938 193.704 287.771 200.537 296.2 200.537H377.6C386.029 200.537 392.863 193.704 392.863 185.275C392.863 176.845 386.029 170.012 377.6 170.012H296.2ZM296.2 292.113C287.771 292.113 280.938 298.946 280.938 307.375C280.938 315.804 287.771 322.638 296.2 322.638H377.6C386.029 322.638 392.863 315.804 392.863 307.375C392.863 298.946 386.029 292.113 377.6 292.113H296.2ZM154.367 296.583C148.407 290.623 138.743 290.623 132.783 296.583C126.822 302.544 126.822 312.206 132.783 318.167L152.516 337.9L132.783 357.633C126.823 363.594 126.823 373.256 132.783 379.217C138.744 385.177 148.407 385.177 154.367 379.217L174.1 359.485L193.833 379.217C199.793 385.177 209.457 385.177 215.417 379.217C221.377 373.256 221.377 363.594 215.417 357.633L195.685 337.9L215.417 318.167C221.377 312.206 221.377 302.544 215.417 296.583C209.457 290.623 199.793 290.623 193.833 296.583L174.1 316.315L154.367 296.583ZM296.2 353.163C287.771 353.163 280.938 359.996 280.938 368.425C280.938 376.854 287.771 383.688 296.2 383.688H377.6C386.029 383.688 392.863 376.854 392.863 368.425C392.863 359.996 386.029 353.163 377.6 353.163H296.2Z" fill="#1C274D"/>
</svg>
