<svg width="512" height="512" viewBox="0 0 512 512" fill="none" xmlns="http://www.w3.org/2000/svg">
<path d="M245.498 178.14C255.258 178.14 263.17 170.228 263.17 160.468C263.17 150.708 255.258 142.796 245.498 142.796C235.738 142.796 227.827 150.708 227.827 160.468C227.827 170.228 235.738 178.14 245.498 178.14Z" fill="#231F20"/>
<path d="M80.5622 225.264H410.434C421.002 225.264 430.274 218.231 433.125 208.052C435.976 197.873 431.699 187.046 422.669 181.562L257.733 81.4224C253.969 79.1369 249.734 78 245.498 78C241.263 78 237.028 79.1369 233.269 81.4224L68.3334 181.562C59.3031 187.046 55.0207 197.879 57.8776 208.052C60.7228 218.231 69.9945 225.264 80.5622 225.264ZM245.498 131.015C261.768 131.015 274.951 144.198 274.951 160.468C274.951 176.738 261.768 189.921 245.498 189.921C229.228 189.921 216.045 176.738 216.045 160.468C216.045 144.198 229.228 131.015 245.498 131.015Z" fill="#231F20"/>
<path d="M304.404 237.045H257.279V384.31H304.404V237.045Z" fill="#231F20"/>
<path d="M375.091 237.045H327.966V384.31H375.091V237.045Z" fill="#231F20"/>
<path d="M233.717 237.045H186.593V384.31H233.717V237.045Z" fill="#231F20"/>
<path d="M163.03 237.045H115.906V384.31H163.03V237.045Z" fill="#231F20"/>
<path d="M80.5623 419.653H410.434C410.434 406.641 399.884 396.091 386.872 396.091H104.125C91.1123 396.091 80.5623 406.641 80.5623 419.653Z" fill="#231F20"/>
<path d="M430.727 431.434H60.2693C58.2429 434.915 57 438.903 57 443.215V454.996H433.997V443.215C433.997 438.903 432.754 434.915 430.727 431.434Z" fill="#231F20"/>
</svg>
