<svg width="512" height="512" viewBox="0 0 512 512" fill="none" xmlns="http://www.w3.org/2000/svg">
<path d="M454.701 258.083C454.701 297.383 443.048 335.799 421.214 368.476C399.38 401.152 368.348 426.62 332.04 441.659C295.732 456.698 255.78 460.633 217.235 452.966C178.691 445.299 143.286 426.375 115.497 398.586C87.7082 370.797 68.7837 335.392 61.1168 296.848C53.4499 258.304 57.3848 218.351 72.424 182.044C87.4632 145.736 112.931 114.703 145.608 92.8692C178.284 71.0356 216.701 59.382 256 59.382C282.095 59.3787 307.935 64.516 332.044 74.5005C356.153 84.485 378.059 99.1211 396.51 117.573C414.962 136.025 429.598 157.931 439.583 182.04C449.567 206.149 454.704 231.988 454.701 258.083ZM190.971 239.335C199.965 239.335 208.756 236.668 216.234 231.672C223.713 226.676 229.542 219.575 232.984 211.267C236.427 202.958 237.329 193.815 235.577 184.994C233.824 176.173 229.495 168.07 223.137 161.709C216.78 155.347 208.679 151.014 199.859 149.257C191.038 147.499 181.895 148.396 173.585 151.834C165.274 155.272 158.17 161.098 153.17 168.573C148.17 176.048 145.498 184.839 145.493 193.832C145.5 205.894 150.293 217.46 158.819 225.991C167.346 234.523 178.909 239.322 190.971 239.335ZM190.971 211.501C187.476 211.501 184.06 210.465 181.155 208.523C178.249 206.582 175.984 203.822 174.647 200.594C173.31 197.365 172.96 193.813 173.641 190.385C174.323 186.958 176.006 183.809 178.477 181.338C180.948 178.867 184.096 177.184 187.524 176.503C190.951 175.821 194.504 176.171 197.733 177.508C200.961 178.845 203.721 181.11 205.662 184.016C207.604 186.921 208.64 190.338 208.64 193.832C208.633 198.516 206.77 203.007 203.458 206.319C200.145 209.631 195.655 211.495 190.971 211.501ZM334.532 176.314C336.087 174.148 337.191 171.692 337.777 169.091C338.364 166.49 338.421 163.797 337.945 161.174C337.47 158.55 336.472 156.049 335.01 153.82C333.548 151.59 331.652 149.677 329.436 148.195C327.219 146.713 324.727 145.692 322.108 145.193C319.489 144.693 316.796 144.726 314.19 145.289C311.584 145.852 309.118 146.933 306.938 148.469C304.758 150.004 302.91 151.963 301.503 154.227L177.92 339.25C175.042 343.634 174.013 348.977 175.057 354.116C176.101 359.255 179.134 363.773 183.494 366.686C187.854 369.599 193.188 370.672 198.335 369.67C203.483 368.668 208.025 365.673 210.974 361.336L334.532 176.314ZM366.808 322.811C366.808 313.816 364.141 305.024 359.143 297.545C354.146 290.066 347.044 284.237 338.734 280.795C330.424 277.353 321.28 276.452 312.458 278.207C303.636 279.962 295.533 284.293 289.173 290.653C282.812 297.014 278.481 305.117 276.726 313.939C274.972 322.761 275.872 331.905 279.314 340.215C282.756 348.525 288.585 355.627 296.064 360.624C303.543 365.621 312.336 368.289 321.33 368.289C333.388 368.275 344.947 363.48 353.473 354.954C361.999 346.428 366.795 334.868 366.808 322.811ZM338.974 322.811C338.974 326.307 337.937 329.724 335.995 332.63C334.052 335.536 331.291 337.801 328.061 339.137C324.831 340.474 321.277 340.822 317.849 340.139C314.421 339.455 311.272 337.77 308.802 335.296C306.332 332.822 304.651 329.672 303.973 326.243C303.294 322.814 303.647 319.26 304.988 316.032C306.329 312.804 308.598 310.046 311.507 308.108C314.416 306.169 317.835 305.137 321.33 305.142C326.01 305.155 330.494 307.022 333.801 310.333C337.107 313.645 338.967 318.131 338.974 322.811Z" fill="black"/>
</svg>
