<svg width="512" height="512" viewBox="0 0 512 512" fill="none" xmlns="http://www.w3.org/2000/svg">
<path fill-rule="evenodd" clip-rule="evenodd" d="M432.586 84.1427H287.871V50L50 86.7602V408.977L287.871 450V399.394H432.586C436.969 399.616 441.261 398.092 444.524 395.154C447.788 392.216 449.756 388.104 450 383.717V99.8051C449.753 95.4205 447.782 91.3121 444.519 88.3774C441.257 85.4427 436.966 83.9203 432.586 84.1427ZM434.871 386.32H287.386L287.143 359.301H322.671V327.833H286.871L286.7 309.238H322.671V277.77H286.429L286.257 259.176H322.671V227.708H286.143V209.113H322.671V177.645H286.143V159.051H322.671V127.583H286.143V98.9755H434.871V386.32Z" fill="#20744A"/>
<path d="M404 128H342V159H404V128Z" fill="#20744A"/>
<path d="M404 178H342V209H404V178Z" fill="#20744A"/>
<path d="M404 228H342V259H404V228Z" fill="#20744A"/>
<path d="M404 278H342V309H404V278Z" fill="#20744A"/>
<path d="M404 328H342V359H404V328Z" fill="#20744A"/>
<path fill-rule="evenodd" clip-rule="evenodd" d="M111.629 173.714L142.29 171.952L161.564 225.064L184.339 169.761L215 168L177.766 243.407L215 319L182.581 316.809L160.693 259.187L138.79 314.618L109 311.983L143.605 245.211L111.629 173.714Z" fill="white"/>
</svg>
