<svg width="800" height="800" viewBox="0 0 800 800" fill="none" xmlns="http://www.w3.org/2000/svg">
<path fill-rule="evenodd" clip-rule="evenodd" d="M425.787 254.142C423.441 249.304 419.777 245.224 415.217 242.369C410.656 239.514 405.382 238 400 238C394.618 238 389.344 239.514 384.783 242.369C380.223 245.224 376.559 249.304 374.213 254.142L330.662 344.145L233.398 358.644C228.149 359.431 223.222 361.659 219.166 365.079C215.11 368.499 212.086 372.978 210.43 378.015C208.774 383.051 208.552 388.448 209.787 393.604C211.023 398.76 213.669 403.471 217.43 407.213L288.104 477.415L271.41 576.613C270.516 581.892 271.123 587.316 273.162 592.267C275.2 597.219 278.589 601.5 282.943 604.624C287.296 607.748 292.44 609.589 297.79 609.939C303.139 610.289 308.479 609.132 313.204 606.602L400 560.017L486.796 606.563C491.518 609.091 496.853 610.246 502.199 609.897C507.544 609.549 512.684 607.711 517.036 604.592C521.388 601.473 524.778 597.199 526.82 592.253C528.862 587.308 529.476 581.889 528.59 576.613L511.896 477.338L582.57 407.175C586.331 403.433 588.977 398.722 590.212 393.566C591.448 388.41 591.226 383.013 589.57 377.976C587.914 372.94 584.89 368.461 580.834 365.041C576.778 361.621 571.851 359.393 566.602 358.606L469.376 344.107L425.825 254.104L425.787 254.142ZM375.627 382.68L400 332.318L424.373 382.68C426.408 386.876 429.437 390.511 433.199 393.271C436.961 396.03 441.341 397.83 445.958 398.514L501.695 406.831L460.971 447.236C457.729 450.464 455.309 454.421 453.913 458.776C452.517 463.13 452.187 467.756 452.949 472.264L462.385 528.578L413.562 502.405C409.393 500.168 404.733 498.997 400 498.997C395.267 498.997 390.607 500.168 386.438 502.405L337.615 528.578L347.089 472.264C347.847 467.753 347.51 463.125 346.108 458.771C344.705 454.416 342.278 450.46 339.029 447.236L298.305 406.793L354.08 398.514C358.691 397.824 363.063 396.022 366.817 393.262C370.572 390.503 373.596 386.871 375.627 382.68Z" fill="black"/>
<path fill-rule="evenodd" clip-rule="evenodd" d="M552.5 123.594C552.5 116.01 549.487 108.737 544.125 103.375C538.763 98.0125 531.49 95 523.906 95C516.323 95 509.05 98.0125 503.687 103.375C498.325 108.737 495.312 116.01 495.312 123.594V133.125H304.688V123.594C304.688 116.01 301.675 108.737 296.313 103.375C290.95 98.0125 283.677 95 276.094 95C268.51 95 261.237 98.0125 255.875 103.375C250.513 108.737 247.5 116.01 247.5 123.594V133.125H180.781C158.031 133.125 136.212 142.163 120.125 158.25C104.038 174.337 95 196.156 95 218.906L95 619.219C95 641.969 104.038 663.788 120.125 679.875C136.212 695.962 158.031 705 180.781 705H619.219C641.969 705 663.788 695.962 679.875 679.875C695.962 663.788 705 641.969 705 619.219V218.906C705 196.156 695.962 174.337 679.875 158.25C663.788 142.163 641.969 133.125 619.219 133.125H552.5V123.594ZM247.5 218.906V190.312H180.781C173.198 190.312 165.925 193.325 160.562 198.687C155.2 204.05 152.188 211.323 152.188 218.906V619.219C152.188 635.003 164.997 647.812 180.781 647.812H619.219C626.802 647.812 634.075 644.8 639.438 639.438C644.8 634.075 647.812 626.802 647.812 619.219V218.906C647.812 211.323 644.8 204.05 639.438 198.687C634.075 193.325 626.802 190.312 619.219 190.312H552.5V218.906C552.5 226.49 549.487 233.763 544.125 239.125C538.763 244.487 531.49 247.5 523.906 247.5C516.323 247.5 509.05 244.487 503.687 239.125C498.325 233.763 495.312 226.49 495.312 218.906V190.312H304.688V218.906C304.688 226.49 301.675 233.763 296.313 239.125C290.95 244.487 283.677 247.5 276.094 247.5C268.51 247.5 261.237 244.487 255.875 239.125C250.513 233.763 247.5 226.49 247.5 218.906Z" fill="black"/>
</svg>
