<svg xmlns="http://www.w3.org/2000/svg" width="20" height="20" viewBox="0 0 20 20" fill="none">
    <path d="M17.5667 7.14987V12.8498C17.5667 13.7832 17.0667 14.6499 16.2584 15.1249L11.3084 17.9832C10.5 18.4499 9.50005 18.4499 8.68338 17.9832L3.73338 15.1249C2.92505 14.6582 2.42505 13.7915 2.42505 12.8498V7.14987C2.42505 6.21653 2.92505 5.34983 3.73338 4.87483L8.68338 2.0165C9.49172 1.54984 10.4917 1.54984 11.3084 2.0165L16.2584 4.87483C17.0667 5.34983 17.5667 6.2082 17.5667 7.14987Z" stroke="#777E90" stroke-width="1.2" stroke-linecap="round" stroke-linejoin="round"/>
    <path d="M10 9.16651C11.0724 9.16651 11.9417 8.29719 11.9417 7.22483C11.9417 6.15248 11.0724 5.2832 10 5.2832C8.92766 5.2832 8.05835 6.15248 8.05835 7.22483C8.05835 8.29719 8.92766 9.16651 10 9.16651Z" stroke="#777E90" stroke-width="1.2" stroke-linecap="round" stroke-linejoin="round"/>
    <path d="M13.3334 13.8831C13.3334 12.3831 11.8417 11.1665 10.0001 11.1665C8.15841 11.1665 6.66675 12.3831 6.66675 13.8831" stroke="#777E90" stroke-width="1.2" stroke-linecap="round" stroke-linejoin="round"/>
</svg>