<?xml version="1.0" encoding="iso-8859-1"?>
<!-- Uploaded to: SVG Repo, www.svgrepo.com, Generator: SVG Repo Mixer Tools -->
<svg height="800px" width="800px" version="1.1" id="Layer_1" xmlns="http://www.w3.org/2000/svg" xmlns:xlink="http://www.w3.org/1999/xlink" 
	 viewBox="0 0 512 512" xml:space="preserve">
<circle style="fill:#0575A5;" cx="256" cy="256" r="256"/>
<path style="fill:#025E90;" d="M292.9,121.275l-0.294-0.292H260.13h-48.527v60.234c-25.236-6.257-53.251-3.441-55.299,0.914
	c-1.39,2.926,5.74,15.03,13.494,26.808c-12.47,10.862-21.942,24.21-27.244,39.091h-17.516c-3.407,0-6.18,10.388-6.18,23.194
	c0,9.544,1.569,17.766,3.799,21.32c0.55,0.914,1.134,1.498,1.756,1.759c0,0,0,0.036,0.038,0.036c-0.038,0-0.038,0-0.074,0
	c0.074,0.036,0.148,0.069,0.182,0.105l27.139,27.139c0.694,1.096,1.459,2.189,2.227,3.295c0.517,0.694,1.065,1.39,1.572,2.12
	c0.991,1.277,2.017,2.555,3.036,3.843c0.625,0.73,1.249,1.426,1.866,2.156c1.244,1.426,2.56,2.78,3.912,4.165
	c0.407,0.407,0.806,0.842,1.242,1.285c1.756,1.713,3.589,3.364,5.486,4.972c0.625,0.512,1.249,1.024,1.905,1.495
	c1.426,1.211,2.929,2.348,4.462,3.443c0.622,0.471,1.283,0.947,1.938,1.426c0.55,0.399,1.134,0.765,1.682,1.129l4.938,4.933v31.086
	c0,1.024,0.402,2.084,1.208,2.895l117.507,117.501c93.87-18.079,169.462-87.396,196.534-177.736L292.9,121.275z"/>
<path style="fill:#FF9D4D;" d="M389.025,266.15c-1.441,0-3.359-0.287-5.317-0.963c2.473-3.909,3.745-8.082,3.745-11.771
	c0-7.869-5.512-12.119-10.711-12.119c-2.819,0-5.527,1.219-7.452,3.341c-1.382,1.551-3.041,4.319-3.041,8.778
	c0,5.55,1.974,9.93,4.915,13.22c-1.39,0.998-2.941,1.874-4.677,2.619c-3.912-50.135-53.55-89.779-114.232-89.779
	c-11.4,0-22.397,1.411-32.786,4.009c-26.898-9.147-60.895-6.159-63.165-1.341c-1.377,2.929,5.752,15.027,13.514,26.775
	c-12.495,10.885-21.955,24.225-27.251,39.096h-17.526c3.423,0,6.198,10.388,6.198,23.204s-2.772,23.201-6.198,23.201
	c-0.218,0-0.428-0.049-0.643-0.125c0.189,0.12,0.358,0.279,0.553,0.384l17.789,9.075c7.46,20.529,22.861,38.134,43.205,50.299
	v32.855c0,1.06,0.402,2.104,1.208,2.908c0.796,0.806,1.846,1.216,2.908,1.216h31.217c1.539,0,3.072-0.43,4.46-1.316
	c1.38-0.893,2.401-2.12,3.034-3.51l7.017-15.396c5.381,0.66,10.872,1.004,16.463,1.004c8.829,0,17.421-0.842,25.677-2.429v17.526
	c0,1.044,0.399,2.104,1.203,2.908c0.806,0.806,1.861,1.216,2.913,1.216h31.437c1.48,0,2.977-0.402,4.319-1.229
	c1.357-0.842,2.376-1.994,3.041-3.323c0,0,39.183-78.264,39.583-79.235c2.171-5.245,3.82-10.696,4.879-16.315
	c0.806-4.227,1.265-8.54,1.385-12.938c4.488-1.434,8.271-3.63,11.328-6.257c3.625,1.792,7.57,2.65,11.005,2.65
	c2.276,0,4.122-1.841,4.122-4.116C393.147,268.004,391.301,266.15,389.025,266.15z M376.896,260.623
	c-1.452-1.836-2.401-4.201-2.401-7.206c0-2.36,0.886-3.884,2.248-3.884c1.226,0,2.473,1.201,2.473,3.884
	C379.215,255.639,378.427,258.171,376.896,260.623z"/>
<path style="fill:#F28124;" d="M149.98,275.773c0-15.316-3.297-27.73-7.434-27.73h-17.505c3.446,0,6.185,10.365,6.185,23.183
	s-2.739,23.194-6.185,23.194c-0.2,0-0.453-0.051-0.65-0.1c0.197,0.1,0.351,0.248,0.556,0.353l15.805,8.074l1.544,0.801l0.399,0.195
	c0-0.049-0.051-0.097-0.051-0.148C146.732,303.396,149.98,290.977,149.98,275.773z"/>
<path style="fill:#FF9D4D;" d="M118.858,271.222c0,12.815,2.772,23.201,6.185,23.201c3.423,0,6.198-10.388,6.198-23.201
	c0-12.815-2.772-23.204-6.198-23.204C121.631,248.018,118.858,258.406,118.858,271.222z"/>
<path style="fill:#F28124;" d="M389.025,266.15c-1.441,0-3.359-0.287-5.317-0.963c2.473-3.909,3.745-8.082,3.745-11.771
	c0-7.869-5.512-12.119-10.711-12.119c-2.819,0-5.527,1.219-7.452,3.341c-1.382,1.551-3.041,4.319-3.041,8.778
	c0,5.55,1.974,9.93,4.915,13.22c-1.39,0.998-2.941,1.874-4.677,2.619c-2.332-29.87-20.892-56.005-48.34-72.266
	c18.388,16.684,29.637,39.009,29.637,63.552c0,51.64-49.759,93.496-111.137,93.496c-34.88,0-65.997-13.524-86.377-34.68
	c8.428,13.85,20.708,25.748,35.679,34.703v32.855c0,1.06,0.402,2.104,1.208,2.908c0.796,0.806,1.846,1.216,2.908,1.216h31.217
	c1.539,0,3.072-0.43,4.46-1.316c1.38-0.893,2.401-2.12,3.034-3.51l7.017-15.396c5.381,0.66,10.872,1.004,16.463,1.004
	c8.829,0,17.421-0.842,25.677-2.429v17.526c0,1.044,0.399,2.104,1.203,2.908c0.806,0.806,1.861,1.216,2.913,1.216h31.437
	c1.48,0,2.977-0.402,4.319-1.229c1.357-0.842,2.376-1.994,3.041-3.323c0,0,39.183-78.264,39.583-79.235
	c2.171-5.245,3.82-10.696,4.879-16.315c0.806-4.227,1.265-8.54,1.385-12.938c4.488-1.434,8.271-3.63,11.328-6.257
	c3.625,1.792,7.57,2.65,11.005,2.65c2.276,0,4.122-1.841,4.122-4.116C393.147,268.004,391.301,266.15,389.025,266.15z
	 M376.896,260.623c-1.452-1.836-2.401-4.201-2.401-7.206c0-2.36,0.886-3.884,2.248-3.884c1.226,0,2.473,1.201,2.473,3.884
	C379.215,255.639,378.427,258.171,376.896,260.623z"/>
<path style="fill:#FF9D4D;" d="M195.571,389.821c0.801,0.806,1.853,1.216,2.908,1.216h-8.415c-1.062,0-2.112-0.407-2.908-1.216
	c-0.806-0.801-1.208-1.848-1.208-2.908v-32.855l8.407,4.495v28.36C194.355,387.976,194.757,389.02,195.571,389.821z
	 M287.555,389.821c-0.814-0.801-1.216-1.864-1.216-2.908v-19.448c-2.752,0.722-5.571,1.367-8.407,1.923v17.526
	c0,1.044,0.399,2.104,1.203,2.908c0.806,0.806,1.861,1.216,2.913,1.216h8.415C289.416,391.037,288.363,390.63,287.555,389.821z"/>
<path style="fill:#34495E;" d="M187.789,243.717c0,5.537-4.488,10.043-10.043,10.043c-5.542,0-10.035-4.506-10.035-10.043
	c0-5.542,4.495-10.048,10.035-10.048C183.301,233.669,187.789,238.177,187.789,243.717z"/>
<path style="fill:#E1EFFA;" d="M178.652,240.806c0,2.097-1.708,3.814-3.814,3.814c-2.099,0-3.814-1.718-3.814-3.814
	c0-2.104,1.713-3.814,3.814-3.814C176.945,236.992,178.652,238.702,178.652,240.806z"/>
<path style="fill:#F28124;" d="M292.908,208.507c-0.353,0-0.732-0.054-1.091-0.164c-25.782-7.811-53.335-7.811-79.122,0
	c-2.02,0.594-4.111-0.52-4.708-2.514c-0.596-1.994,0.517-4.104,2.514-4.705c27.208-8.246,56.305-8.246,83.507,0
	c1.992,0.604,3.118,2.711,2.511,4.705C296.033,207.46,294.536,208.507,292.908,208.507z"/>
<g>
	<path style="fill:#D0E070;" d="M215.805,144.553l0.003-19.374l19.374,0.005l34.14-0.003l19.377,0.003v19.395v58.951
		c1.413,0.381,2.819,0.775,4.209,1.196v-83.748h-81.303v83.748c1.387-0.42,2.79-0.812,4.199-1.193L215.805,144.553z"/>
	<path style="fill:#D0E070;" d="M268.372,192.527v-2.278l-3.377,0.013c-0.338-4.46-3.034-7.695-6.871-7.683
		c-4.58-0.008-5.827,3.894-6.881,7.683l-9.027-0.013c0.338-2.921,1.823-5.184,3.497-6.615l-2.388-1.848
		c-2.099,1.861-3.663,4.716-3.884,8.463h-3.307v2.284l3.302-0.003c0.233,3.201,1.416,5.286,2.996,6.506
		c2.857-0.202,5.746-0.313,8.66-0.337c1.526-1.541,2.291-3.895,2.933-6.171l8.1-0.003c-0.294,2.092-1.213,4.006-2.86,5.494
		l1.117,0.92c0.644,0.038,1.291,0.064,1.932,0.111c1.455-1.722,2.421-3.902,2.638-6.522L268.372,192.527L268.372,192.527z
		 M246.467,197.245c-1.792,0-3.904-1.18-4.283-4.716l8.471-0.01C249.874,195.123,248.881,197.245,246.467,197.245z M254.643,190.249
		c0.719-2.514,1.631-4.488,3.666-4.488c2.15,0.003,3.709,1.859,3.899,4.488H254.643z"/>
	<path style="fill:#D0E070;" d="M273.984,139.914c-3.031-3.021-4.818-6.804-5.084-10.522l-33.298-0.013
		c-0.259,3.73-2.048,7.516-5.084,10.532c-2.985,2.993-6.84,4.795-10.516,5.074l0.002,57.491c2.984-0.708,6.016-1.318,9.089-1.837
		c-1.616-2.883-2.522-6.115-2.522-9.531c-0.015-12.16,11.502-22.001,25.69-22.019c14.175,0.008,25.664,9.859,25.664,22.019
		c0,3.411-0.906,6.643-2.522,9.527c3.082,0.519,6.121,1.131,9.112,1.841v-57.494C280.84,144.704,276.977,142.904,273.984,139.914z"
		/>
</g>
<g>
	<path style="fill:#A6B83D;" d="M246.467,197.245c2.414,0,3.407-2.122,4.188-4.726l-8.471,0.01
		C242.563,196.065,244.675,197.245,246.467,197.245z"/>
	<path style="fill:#A6B83D;" d="M262.126,192.525l-8.1,0.003c-0.641,2.277-1.406,4.631-2.933,6.171
		c0.388-0.003,0.772-0.022,1.161-0.022c2.737,0,5.442,0.105,8.128,0.262l-1.117-0.92
		C260.913,196.531,261.832,194.616,262.126,192.525z"/>
	<path style="fill:#A6B83D;" d="M258.309,185.761c-2.035,0-2.947,1.974-3.666,4.488h7.565
		C262.019,187.62,260.46,185.764,258.309,185.761z"/>
	<path style="fill:#A6B83D;" d="M252.26,169.091c-14.188,0.018-25.705,9.859-25.69,22.019c0,3.416,0.906,6.648,2.522,9.531
		c4.366-0.736,8.813-1.283,13.341-1.604c-1.581-1.22-2.764-3.305-2.996-6.506l-3.302,0.003v-2.284h3.307
		c0.22-3.748,1.784-6.602,3.884-8.463l2.388,1.848c-1.674,1.431-3.159,3.694-3.497,6.615l9.027,0.013
		c1.055-3.789,2.301-7.69,6.881-7.683c3.837-0.013,6.533,3.223,6.871,7.683l3.377-0.013v2.278h-3.42
		c-0.217,2.62-1.183,4.8-2.638,6.522c4.442,0.322,8.803,0.865,13.087,1.586c1.617-2.884,2.522-6.116,2.522-9.527
		C277.924,178.949,266.435,169.098,252.26,169.091z"/>
	<path style="fill:#A6B83D;" d="M288.699,125.184l-19.377-0.003l-34.14,0.003l-19.374-0.005l-0.003,19.374l-0.002,58.98
		c1.388-0.375,2.79-0.722,4.199-1.056L220,144.986c3.676-0.279,7.531-2.081,10.516-5.074c3.036-3.016,4.826-6.802,5.084-10.532
		l33.298,0.013c0.266,3.717,2.053,7.501,5.084,10.522c2.993,2.99,6.856,4.79,10.529,5.069v57.494
		c1.405,0.333,2.802,0.68,4.186,1.053V144.58v-19.396H288.699z"/>
</g>
</svg>