<?xml version="1.0" encoding="iso-8859-1"?>
<!-- Uploaded to: SVG Repo, www.svgrepo.com, Generator: SVG Repo Mixer Tools -->
<svg version="1.1" id="Layer_1" xmlns="http://www.w3.org/2000/svg" xmlns:xlink="http://www.w3.org/1999/xlink" 
	 viewBox="0 0 512 512" xml:space="preserve">
<circle style="fill:#C1D354;" cx="256" cy="256" r="256"/>
<path style="fill:#9DB138;" d="M394.716,170.025c-4.096-3.656-9.249-5.45-14.369-5.45H131.656c-5.632,0-11.223,2.156-15.506,6.438
	c-4.278,4.275-6.433,9.874-6.433,15.506v160.917l163.899,163.894c123.325-8.387,222.633-104.061,236.631-225.774L394.716,170.025z"
	/>
<path style="fill:#0684BA;" d="M402.286,347.428h-292.57V186.514c0-5.614,2.143-11.233,6.426-15.516
	c4.283-4.288,9.894-6.431,15.514-6.431h248.681c5.617,0,11.238,2.143,15.516,6.431c4.291,4.28,6.433,9.9,6.433,15.516V347.428z"/>
<path style="fill:#0575A5;" d="M115.566,347.428V186.514c0-4.303,1.672-8.34,4.713-11.377c3.039-3.039,7.081-4.716,11.377-4.716
	h248.681c4.306,0,8.343,1.679,11.384,4.716c3.034,3.039,4.713,7.076,4.713,11.377v160.911H115.566V347.428z"/>
<g>
	<path style="fill:#FFFFFF;" d="M127.997,341.361h-6.362v-6.364c0-0.689,0.558-1.242,1.242-1.242c0.689,0,1.244,0.556,1.244,1.242
		v3.878h3.876c0.689,0,1.244,0.556,1.244,1.242C129.242,340.805,128.686,341.361,127.997,341.361z"/>
	<path style="fill:#FFFFFF;" d="M122.877,325.816c-0.686,0-1.242-0.556-1.242-1.242v-10.422c0-0.691,0.558-1.244,1.242-1.244
		c0.689,0,1.244,0.556,1.244,1.244v10.422C124.122,325.263,123.566,325.816,122.877,325.816z M389.117,325.768
		c-0.684,0-1.244-0.556-1.244-1.242v-10.422c0-0.689,0.563-1.242,1.244-1.242c0.689,0,1.242,0.556,1.242,1.242v10.422
		C390.359,325.212,389.806,325.768,389.117,325.768z M122.877,304.973c-0.686,0-1.242-0.556-1.242-1.242v-10.414
		c0-0.691,0.558-1.244,1.242-1.244c0.689,0,1.244,0.556,1.244,1.244v10.414C124.122,304.417,123.566,304.973,122.877,304.973z
		 M389.117,304.922c-0.684,0-1.244-0.556-1.244-1.234v-10.422c0-0.689,0.563-1.242,1.244-1.242c0.689,0,1.242,0.556,1.242,1.242
		v10.422C390.359,304.369,389.806,304.922,389.117,304.922z M122.877,284.134c-0.686,0-1.242-0.556-1.242-1.242v-10.422
		c0-0.691,0.558-1.244,1.242-1.244c0.689,0,1.244,0.556,1.244,1.244v10.422C124.122,283.579,123.566,284.134,122.877,284.134z
		 M389.117,284.086c-0.684,0-1.244-0.556-1.244-1.242v-10.422c0-0.689,0.563-1.242,1.244-1.242c0.689,0,1.242,0.556,1.242,1.242
		v10.422C390.359,283.53,389.806,284.086,389.117,284.086z M122.877,263.291c-0.686,0-1.242-0.556-1.242-1.242v-10.427
		c0-0.689,0.558-1.242,1.242-1.242c0.689,0,1.244,0.553,1.244,1.242v10.424C124.122,262.735,123.566,263.291,122.877,263.291z
		 M389.117,263.24c-0.684,0-1.244-0.556-1.244-1.242v-10.424c0-0.686,0.563-1.244,1.244-1.244c0.689,0,1.242,0.558,1.242,1.244
		v10.424C390.359,262.684,389.806,263.24,389.117,263.24z M122.877,242.445c-0.686,0-1.242-0.556-1.242-1.244v-10.422
		c0-0.689,0.558-1.242,1.242-1.242c0.689,0,1.244,0.556,1.244,1.242v10.422C124.122,241.889,123.566,242.445,122.877,242.445z
		 M389.117,242.399c-0.684,0-1.244-0.558-1.244-1.242v-10.424c0-0.686,0.563-1.244,1.244-1.244c0.689,0,1.242,0.558,1.242,1.244
		v10.422C390.359,241.838,389.806,242.399,389.117,242.399z M122.877,221.599c-0.686,0-1.242-0.556-1.242-1.244v-10.419
		c0-0.689,0.558-1.242,1.242-1.242c0.689,0,1.244,0.556,1.244,1.242v10.419C124.122,221.043,123.566,221.599,122.877,221.599z
		 M389.117,221.555c-0.684,0-1.244-0.558-1.244-1.242v-10.422c0-0.689,0.563-1.244,1.244-1.244c0.689,0,1.242,0.556,1.242,1.244
		v10.422C390.359,220.997,389.806,221.555,389.117,221.555z M122.877,200.758c-0.686,0-1.242-0.556-1.242-1.244v-10.419
		c0-0.689,0.558-1.242,1.242-1.242c0.689,0,1.244,0.556,1.244,1.242v10.419C124.122,200.202,123.566,200.758,122.877,200.758z
		 M389.117,200.712c-0.684,0-1.244-0.553-1.244-1.242v-10.422c0-0.689,0.563-1.242,1.244-1.242c0.689,0,1.242,0.553,1.242,1.242
		v10.422C390.359,200.159,389.806,200.712,389.117,200.712z M126.154,180.92c-0.361,0-0.719-0.161-0.965-0.463
		c-0.433-0.532-0.351-1.318,0.182-1.748c1.797-1.446,3.968-2.212,6.285-2.212h4.475c0.689,0,1.244,0.556,1.244,1.239
		c0,0.689-0.556,1.244-1.244,1.244h-4.475c-1.741,0-3.374,0.576-4.718,1.664C126.705,180.828,126.431,180.92,126.154,180.92z
		 M385.807,180.884c-0.271,0-0.548-0.084-0.773-0.266c-1.347-1.075-2.97-1.641-4.698-1.641h-4.516c-0.691,0-1.244-0.556-1.244-1.244
		c0-0.684,0.556-1.239,1.244-1.239h4.516c2.296,0,4.46,0.75,6.241,2.176c0.543,0.428,0.625,1.208,0.197,1.748
		C386.54,180.731,386.176,180.884,385.807,180.884z M365.399,178.98h-10.422c-0.684,0-1.242-0.556-1.242-1.244
		c0-0.684,0.561-1.239,1.242-1.239h10.422c0.689,0,1.242,0.556,1.242,1.239C366.643,178.424,366.088,178.98,365.399,178.98z
		 M344.563,178.98h-10.422c-0.691,0-1.244-0.556-1.244-1.244c0-0.684,0.556-1.239,1.244-1.239h10.422
		c0.681,0,1.242,0.556,1.242,1.239C345.805,178.424,345.242,178.98,344.563,178.98z M323.717,178.98h-10.422
		c-0.689,0-1.242-0.556-1.242-1.244c0-0.684,0.556-1.239,1.242-1.239h10.422c0.689,0,1.242,0.556,1.242,1.239
		C324.961,178.424,324.406,178.98,323.717,178.98z M302.874,178.98h-10.422c-0.689,0-1.242-0.556-1.242-1.244
		c0-0.684,0.556-1.239,1.242-1.239h10.422c0.689,0,1.242,0.556,1.242,1.239C304.115,178.424,303.56,178.98,302.874,178.98z
		 M282.028,178.98h-10.414c-0.689,0-1.242-0.556-1.242-1.244c0-0.684,0.556-1.239,1.242-1.239h10.414
		c0.689,0,1.242,0.556,1.242,1.239C283.269,178.424,282.716,178.98,282.028,178.98z M261.181,178.98h-10.417
		c-0.689,0-1.244-0.556-1.244-1.244c0-0.684,0.556-1.239,1.244-1.239h10.417c0.689,0,1.242,0.556,1.242,1.239
		C262.426,178.424,261.87,178.98,261.181,178.98z M240.343,178.98h-10.419c-0.689,0-1.244-0.556-1.244-1.244
		c0-0.684,0.556-1.239,1.244-1.239h10.419c0.689,0,1.242,0.556,1.242,1.239C241.587,178.424,241.032,178.98,240.343,178.98z
		 M219.502,178.98H209.08c-0.689,0-1.244-0.556-1.244-1.244c0-0.684,0.556-1.239,1.244-1.239h10.422
		c0.689,0,1.242,0.556,1.242,1.239C220.746,178.424,220.191,178.98,219.502,178.98z M198.659,178.98h-10.422
		c-0.689,0-1.242-0.556-1.242-1.244c0-0.684,0.553-1.239,1.242-1.239h10.422c0.689,0,1.242,0.556,1.242,1.239
		C199.9,178.424,199.347,178.98,198.659,178.98z M177.812,178.98h-10.419c-0.689,0-1.242-0.556-1.242-1.244
		c0-0.684,0.556-1.239,1.242-1.239h10.419c0.689,0,1.244,0.556,1.244,1.239C179.057,178.424,178.501,178.98,177.812,178.98z
		 M156.974,178.98h-10.422c-0.689,0-1.242-0.556-1.242-1.244c0-0.684,0.556-1.239,1.242-1.239h10.422
		c0.686,0,1.239,0.556,1.239,1.239C158.216,178.424,157.66,178.98,156.974,178.98z"/>
	<path style="fill:#FFFFFF;" d="M390.359,341.361h-6.362c-0.684,0-1.244-0.556-1.244-1.244s0.563-1.242,1.244-1.242h3.876v-3.878
		c0-0.689,0.563-1.242,1.244-1.242c0.689,0,1.242,0.556,1.242,1.242V341.361z"/>
	<path style="fill:#FFFFFF;" d="M373.757,341.361h-10.24c-0.689,0-1.242-0.556-1.242-1.244s0.556-1.242,1.242-1.242h10.24
		c0.689,0,1.242,0.556,1.242,1.242C374.999,340.805,374.446,341.361,373.757,341.361z M353.277,341.361h-10.24
		c-0.689,0-1.242-0.556-1.242-1.244s0.556-1.242,1.242-1.242h10.24c0.689,0,1.242,0.556,1.242,1.242
		C354.519,340.805,353.966,341.361,353.277,341.361z M332.797,341.361h-10.24c-0.689,0-1.242-0.556-1.242-1.244
		s0.556-1.242,1.242-1.242h10.24c0.689,0,1.242,0.556,1.242,1.242C334.039,340.805,333.486,341.361,332.797,341.361z
		 M312.317,341.361h-10.24c-0.689,0-1.242-0.556-1.242-1.244s0.556-1.242,1.242-1.242h10.24c0.691,0,1.244,0.556,1.244,1.242
		C313.562,340.805,313.009,341.361,312.317,341.361z M291.84,341.361H281.6c-0.691,0-1.244-0.556-1.244-1.244
		s0.556-1.242,1.244-1.242h10.24c0.689,0,1.242,0.556,1.242,1.242C293.082,340.805,292.529,341.361,291.84,341.361z M271.36,341.361
		h-10.24c-0.689,0-1.242-0.556-1.242-1.244s0.556-1.242,1.242-1.242h10.24c0.689,0,1.242,0.556,1.242,1.242
		C272.602,340.805,272.049,341.361,271.36,341.361z M250.88,341.361h-10.24c-0.686,0-1.244-0.556-1.244-1.244
		s0.558-1.242,1.244-1.242h10.24c0.686,0,1.244,0.556,1.244,1.242C252.124,340.805,251.566,341.361,250.88,341.361z M230.4,341.361
		h-10.237c-0.689,0-1.244-0.556-1.244-1.244s0.556-1.242,1.244-1.242H230.4c0.689,0,1.242,0.556,1.242,1.242
		C231.642,340.805,231.089,341.361,230.4,341.361z M209.92,341.361h-10.24c-0.684,0-1.242-0.556-1.242-1.244
		s0.558-1.242,1.242-1.242h10.24c0.686,0,1.244,0.556,1.244,1.242C211.162,340.805,210.604,341.361,209.92,341.361z
		 M189.437,341.361H179.2c-0.689,0-1.244-0.556-1.244-1.244s0.556-1.242,1.244-1.242h10.237c0.689,0,1.242,0.556,1.242,1.242
		C190.679,340.805,190.124,341.361,189.437,341.361z M168.96,341.361h-10.243c-0.684,0-1.242-0.556-1.242-1.244
		s0.558-1.242,1.242-1.242h10.243c0.686,0,1.244,0.556,1.244,1.242C170.204,340.805,169.646,341.361,168.96,341.361z
		 M148.477,341.361h-10.24c-0.689,0-1.244-0.556-1.244-1.244s0.556-1.242,1.244-1.242h10.24c0.689,0,1.242,0.556,1.242,1.242
		C149.719,340.805,149.166,341.361,148.477,341.361z"/>
</g>
<g>
	<rect x="109.716" y="322.56" style="fill:#03628A;" width="292.557" height="24.863"/>
	<path style="fill:#03628A;" d="M237.714,164.57v47.547c0,4.677,1.784,9.359,5.356,12.925c3.571,3.574,8.248,5.358,12.931,5.358
		c4.677,0,9.362-1.784,12.928-5.356c3.569-3.569,5.35-8.248,5.35-12.925V164.57H237.714z"/>
</g>
<circle style="fill:#FFFFFF;" cx="256" cy="212.122" r="7.314"/>
</svg>